<?xml version="1.0" encoding="UTF-8"?>
<svg width="116mm" height="137mm" version="1.1" viewBox="0 0 116 137" xmlns="http://www.w3.org/2000/svg">


  <linearGradient id="linearGradient3275" x1="152.09" x2="153.54" y1="163.25" y2="179.21" gradientUnits="userSpaceOnUse">
   <stop style="stop-color:#97912e" offset="0"/>
   <stop style="stop-color:#97912e;stop-opacity:0" offset="1"/>
  </linearGradient>
  <linearGradient id="linearGradient3283" x1="53.475" x2="54.503" y1="202.82" y2="214.03" gradientUnits="userSpaceOnUse">
   <stop style="stop-color:#97912e" offset="0"/>
   <stop style="stop-color:#97912e;stop-opacity:0" offset="1"/>
  </linearGradient>
  <linearGradient id="linearGradient4006" x1="78.866" x2="80.074" y1="117.92" y2="136.35" gradientUnits="userSpaceOnUse">
   <stop style="stop-color:#97912e" offset="0"/>
   <stop style="stop-color:#97912e;stop-opacity:0" offset="1"/>
  </linearGradient>

<!-- couleur pour le haut des feuilles #acbc3c -->

 

   <clipPath id="clipPath3067">
    <path d="m128.79 220.73c0.86826 4.9163 3.2382 7.2739 3.2382 7.2739 0.52152-0.84607 1.3895-6.2014 0.32706-6.7381-2.7362-1.382-3.5652-0.53583-3.5652-0.53583z" stroke="black" stroke-width=".35"/>
    <path d="m102.55 211.08c-3.0796-11.172 23.662-14.128 25.265-14.096 5.6416 0.1104 7.6583 3.4363 19.688 5.5722 12.029 2.136 8.5171-5.5399 27.035-2.7108 8.569 1.3092 3.2103 11.177 3.2103 11.177s-3.6136 3.8017-9.7771 5.1353c-6.1635 1.3336-25.187 6.3366-33.01 5.4277s-27.74-4.9271-32.41-10.506" stroke="black" stroke-width=".26458px"/>
    <path d="m139.57 201.87c1.4149-3.5361 4.3531-4.7232 4.3531-4.7232s-0.18988 3.6032-1.5596 5.7503c-1.3697 2.147-2.7935-1.027-2.7935-1.027z" stroke="black" stroke-width=".26458px"/>
    <path d="m146.21 203.75c-0.63742-4.1608 0.27369-4.7919 0.27369-4.7919s3.3334 3.9589 2.1563 4.8078c-1.1771 0.84885-2.43-0.0159-2.43-0.0159z"  stroke="black" stroke-width=".26458px"/>
    <path d="m150.05 204.57c1.2859-4.275 2.1635-4.1188 2.1635-4.1188s0.16936 5.8812-0.85221 5.8812-1.3113-1.7623-1.3113-1.7623z"  stroke="black" stroke-width=".26458px"/>
    <path d="m160.94 200.89c0.93945-5.1009 3.177-5.7771 3.177-5.7771s0.95927 4.7195-0.82697 5.9838c-1.7862 1.2643-1.7603 0.012-1.7603 0.012z" stroke="black" stroke-width=".26458px"/>
    <path d="m165.65 201.34c3.5241-4.8384 4.9682-4.7556 4.9682-4.7556s-0.0421 3.1605-1.494 4.9697c-1.4518 1.8092-3.4742-0.21407-3.4742-0.21407z" stroke="black" stroke-width=".26458px"/>
    <path d="m175.86 200.65c-1.2325-2.9578 1.4514-4.7624 1.4514-4.7624s0.9439 3.7667-0.43285 4.9177-1.0186-0.15537-1.0186-0.15537z"  stroke="black" stroke-width=".26458px"/>
    <path d="m175.86 200.65c3.2684-2.0976 7.4072-1.2611 7.4072-1.2611s-7.5777 4.336-10.23 3.6198c-2.6522-0.71619 2.8227-2.3586 2.8227-2.3586z" stroke="black" stroke-width=".26458px"/>
    <path d="m106.39 205.1c-3.3712-4.083-8.6867-0.72181-8.6867-0.72181s6.1701 2.8387 10.791 2.305c4.621-0.5337-2.1045-1.5832-2.1045-1.5832z" stroke="black" stroke-width=".26458px"/>
    <path d="m159.48 217.45c4.6468 2.5941 0.29554 8.26 0.29554 8.26s-1.9009-14.345-3.4841-15.694c-1.5832-1.3486 3.1886 7.4335 3.1886 7.4335z" stroke="black" stroke-width=".26458px"/>
    <path d="m154.56 217.56c-2.4056 5.1061-8.2883 7.1262-8.2883 7.1262s4.5087-13.086 6.3861-12.165c1.8775 0.92106 1.9022 5.0385 1.9022 5.0385z" stroke="black" stroke-width=".26458px"/>
    <path d="m153.92 212.25c1.4298 10.388 3.0446 10.228 3.0446 10.228s3.3255-9.3277 0.36074-10.268c-2.9648-0.93993-3.4053 0.0392-3.4053 0.0392z" stroke="black" stroke-width=".26458px"/>
    <path d="m179 206.83c2.4734 5.2498 0.84993 6.8722 0.84993 6.8722s-4.0811-4.4786-3.7773-5.8097c0.30379-1.3311 2.9274-1.0625 2.9274-1.0625z" stroke="black" stroke-width=".26458px"/>
    <path d="m174.92 207.99c1.2346 5.4411 0.056 6.8286 0.056 6.8286s-3.6512-3.1731-3.1044-4.7212c0.54676-1.5481 3.0484-2.1074 3.0484-2.1074z" stroke="black" stroke-width=".26458px"/>
    <path d="m166.34 215.09c-0.99118 4.4529 0.62296 4.9483 0.62296 4.9483s2.0922-3.6201 1.3011-5.6142c-0.791-1.9941-1.924 0.6659-1.924 0.6659z"  stroke="black" stroke-width=".26458px"/>
    <path d="m115.93 213.44c-5.2465-0.71448-6.8734 5.3605-6.8734 5.3605s6.4596-2.0981 9.4937-5.6242c3.0341-3.526-2.6203 0.26363-2.6203 0.26363z"  stroke="black" stroke-width=".26458px"/>
    <path d="m123.97 218.75c-4.7753 3.2976-6.6411 1.9609-6.6411 1.9609s3.7519-4.7578 5.1147-4.6755c1.3629 0.0824 1.5264 2.7146 1.5264 2.7146z" stroke="black" stroke-width=".26458px"/>
    <path d="m132.83 221.19c3.9387 3.0826 7.9915 1.7591 7.9915 1.7591s-3.5896-2.6738-6.39-3.8236c-2.8004-1.1498-1.6016 2.0645-1.6016 2.0645z"  stroke="black" stroke-width=".26458px"/>
    <path d="m104.32 211.6c3.619 4.543-1.7931 7.2046-1.7931 7.2046s-0.86907-2.5168 0.014-7.0445c0.88307-4.5277 1.7791-0.16005 1.7791-0.16005z"  stroke="black" stroke-width=".26458px"/>
    <path d="m102.55 211.08c-4.9334 2.6307-7.9641 2.077-7.9641 2.077s2.6161-6.5175 5.9876-5.4141c3.3715 1.1033 1.9766 3.3371 1.9766 3.3371z"  stroke="black" stroke-width=".26458px"/>
    <path d="m136.31 200.42c5.802-0.26938 4.2397-6.0947 4.2397-6.0947s-2.4661 1.0039-5.2912 4.6507c-2.825 3.6468 1.0515 1.4441 1.0515 1.4441z"  stroke="black" stroke-width=".26458px"/>
    <path d="m134.75 199.43c-1.2702-5.4448-3.6831-7.3604-3.6831-7.3604s-3.1806 6.2613-0.1297 8.0713c3.0509 1.81 3.8128-0.71093 3.8128-0.71093z"  stroke="black" stroke-width=".26458px"/>
</clipPath>

  
  <clipPath id="clipPath3206">
    <path d="m80.257 201.75c-11.046-12.99-20.324-7.2738-21.165-7.177-0.84075 0.0968-0.8424 2.5102-9.4947 2.6482-8.6523 0.13797-14.071 0.43511-15.96 4.2733s6.4594 6.4504 12.296 7.205c5.8368 0.75453 11.039-2.7037 19.327-1.3344 8.2887 1.3693 12.828-0.41427 13.665-1.2121 0.83729-0.79786 1.3314-4.403 1.3314-4.403z" fill="#abc837" stroke="#abc837" stroke-width=".24086px"/>
    <path d="m75.638 202.18c4.3415 3.8509 3.4885 5.9817 3.4885 5.9817s-5.5155-2.5085-5.7606-3.8518c-0.24466-1.3432 2.2721-2.1298 2.2721-2.1298z" fill="#abc837" stroke="#abc837" stroke-width=".26458px"/>
    <path d="m72.354 204.85c3.2783 4.5148 2.7416 6.2543 2.7416 6.2543s-4.6059-1.4782-4.7133-3.1165c-0.10735-1.6383 1.9717-3.1378 1.9717-3.1378z" fill="#abc837" stroke="#abc837" stroke-width=".26458px"/>
    <path d="m66.368 204.59c-2.4056 5.1061-8.2883 7.1262-8.2883 7.1262s4.5087-13.086 6.3861-12.165c1.8775 0.92106 1.9022 5.0385 1.9022 5.0385z" fill="#abc837" stroke="#abc837" stroke-width=".26458px"/>
    <path d="m40.593 207.76c0.86826 4.9163 3.2382 7.2739 3.2382 7.2739 0.52152-0.84607 1.3895-6.2014 0.32706-6.7381-2.7362-1.382-3.5652-0.53583-3.5652-0.53583z" fill="#abc837" stroke="#abc837" stroke-width=".26458px"/>
    <path d="m44.636 208.22c3.9387 3.0826 7.9915 1.7591 7.9915 1.7591s-3.5896-2.6738-6.39-3.8236c-2.8004-1.1498-1.6016 2.0645-1.6016 2.0645z" fill="#abc837" stroke="#abc837" stroke-width=".26458px"/>
    <path d="m56.566 197.98c-5.2323 0.97228-5.5036-6.1664-5.5036-6.1664s10.626 9.8227 12.705 9.849c2.0795 0.0263-7.2016-3.6826-7.2016-3.6826z" fill="#abc837" stroke="#abc837" stroke-width=".26458px"/>
    <path d="m43.012 202.45c-1.4108-5.4652 1.8251-10.777 1.8251-10.777s4.8897 12.948 2.8569 13.439c-2.0329 0.49059-4.682-2.6616-4.682-2.6616z" fill="#abc837" stroke="#abc837" stroke-width=".26458px"/>
    <path d="m43.012 202.45c-7.7357-7.0792-8.876-5.9249-8.876-5.9249s3.3996 9.301 6.2811 8.1303c2.8815-1.1706 2.595-2.2054 2.595-2.2054z" fill="#abc837" stroke="#abc837" stroke-width=".26458px"/>
    <path d="m31.805 201.43c-4.3752 1.2919-4.0258 2.9438-4.0258 2.9438s4.1804 0.0748 5.541-1.5839c1.3606-1.6586-1.5152-1.3599-1.5152-1.3599z" fill="#abc837" stroke="#abc837" stroke-width=".26458px"/>
    <path d="m39.954 204.31c-4.9995 0.14416-7.2723 3.7512-7.2723 3.7512s4.4697-0.23571 7.3588-1.1398c2.8891-0.90409-0.0865-2.6114-0.0865-2.6114z" fill="#abc837" stroke="#abc837" stroke-width=".26458px"/>
    <path d="m80.257 201.75c-1.2325-2.9578 1.4514-4.7624 1.4514-4.7624s0.9439 3.7667-0.43285 4.9177-1.0186-0.15537-1.0186-0.15537z" fill="#abc837" stroke="#abc837" stroke-width=".26458px"/>
    <path d="m80.257 201.75c3.2684-2.0976 7.4072-1.2611 7.4072-1.2611s-7.5777 4.336-10.23 3.6198c-2.6522-0.71619 2.8227-2.3586 2.8227-2.3586z" fill="#abc837" stroke="#abc837" stroke-width=".26458px"/>
  </clipPath>
    
  
   <clipPath id="clipPath2857">
    <path d="m48.014 110.18c-4.9995 0.14416-7.2723 3.7512-7.2723 3.7512s4.4697-0.23571 7.3588-1.1398c2.8891-0.90409-0.0865-2.6114-0.0865-2.6114z" fill="#abc837" stroke="#abc837" stroke-width=".26458px"/>
    <path d="m47.908 118.62c-3.8076-5.6058 0.75152-15.152 15.343-12.823 13.894 2.218 12.454 4.0401 22.091 3.288 9.6365-0.75202 21.524-1.0879 25.244 2.424s3.5737 3.8803 2.5008 7.5426c-1.0729 3.6623-6.6215 7.9318-14.026 7.384-7.7448-0.57305-11.37 4.7079-21.855 4.6688-16.351-0.0609-25.897-7.0504-29.298-12.485" fill="#abc837" stroke="#abc837" stroke-width=".26458px"/>
    <path d="m108.31 112.43c3.8084-3.228 7.1378-3.5281 7.1378-3.5281-0.13913 0.9841-2.8922 5.6589-4.0524 5.3932-2.988-0.68443-3.0854-1.8651-3.0854-1.8651z" fill="#abc837" stroke="#abc837" stroke-width=".26458px"/>
    <path d="m111.71 114.66c4.9995 0.14416 7.2723 3.7512 7.2723 3.7512s-4.4697-0.23571-7.3588-1.1398c-2.8891-0.90409 0.0865-2.6114 0.0865-2.6114z" fill="#abc837" stroke="#abc837" stroke-width=".26458px"/>
    <path d="m109.18 123.28c5.802 0.26938 4.2397 6.0947 4.2397 6.0947s-2.4661-1.0039-5.2912-4.6507c-2.825-3.6468 1.0515-1.4441 1.0515-1.4441z" fill="#abc837" stroke="#abc837" stroke-width=".26458px"/>
    <path d="m107.62 124.27c-1.2702 5.4448-3.6831 7.3604-3.6831 7.3604s-3.1806-6.2613-0.1297-8.0713c3.0509-1.81 3.8128 0.71093 3.8128 0.71093z" fill="#abc837" stroke="#abc837" stroke-width=".26458px"/>
    <path d="m96.628 125.85c3.6647 2.7168 2.769 4.1481 2.769 4.1481s-3.9515-1.3664-4.6592-3.3916 1.8902-0.75645 1.8902-0.75645z" fill="#abc837" stroke="#abc837" stroke-width=".26458px"/>
    <path d="m85.315 128c5.802 0.26938 4.2397 6.0947 4.2397 6.0947s-2.4661-1.0039-5.2912-4.6507c-2.825-3.6468 1.0515-1.4441 1.0515-1.4441z" fill="#abc837" stroke="#abc837" stroke-width=".26458px"/>
    <path d="m83.757 128.99c-1.2702 5.4448-3.6831 7.3604-3.6831 7.3604s-3.1806-6.2613-0.1297-8.0713c3.0509-1.81 3.8128 0.71093 3.8128 0.71093z" fill="#abc837" stroke="#abc837" stroke-width=".26458px"/>
    <path d="m72.761 130.57c3.6647 2.7168 2.769 4.1481 2.769 4.1481s-3.9515-1.3664-4.6592-3.3916 1.8902-0.75645 1.8902-0.75645z" fill="#abc837" stroke="#abc837" stroke-width=".26458px"/>
    <path d="m56.389 106.4c1.5677-5.5875 3.8571-5.7509 3.8571-5.7509s0.15249 6.0573-0.94871 6.8645c-1.1012 0.80719-2.9084-1.1136-2.9084-1.1136z" fill="#abc837" stroke="#abc837" stroke-width=".26458px"/>
    <path d="m60.229 108.19c2.6294-4.921 4.4286-5.1981 4.4286-5.1981s0.68219 4.789-0.74469 5.6012-3.6839-0.40304-3.6839-0.40304z" fill="#abc837" stroke="#abc837" stroke-width=".26458px"/>
    <path d="m93.814 109.23c1.5677-5.5875 3.8571-5.7509 3.8571-5.7509s0.15249 6.0573-0.94871 6.8645c-1.1012 0.80719-2.9084-1.1136-2.9084-1.1136z" fill="#abc837" stroke="#abc837" stroke-width=".26458px"/>
    <path d="m97.654 111.01c2.6294-4.921 4.4286-5.1981 4.4286-5.1981s0.68219 4.789-0.74469 5.6012c-1.4269 0.81219-3.6839-0.40304-3.6839-0.40304z" fill="#abc837" stroke="#abc837" stroke-width=".26458px"/>
    <path d="m83.92 111.01c5.802-0.26938 4.2397-6.0947 4.2397-6.0947s-2.4661 1.0039-5.2912 4.6507c-2.825 3.6468 1.0515 1.4441 1.0515 1.4441z" fill="#abc837" stroke="#abc837" stroke-width=".26458px"/>
    <path d="m82.362 110.02c-1.2702-5.4448-3.6831-7.3604-3.6831-7.3604s-3.1806 6.2613-0.1297 8.0713c3.0509 1.81 3.8128-0.71093 3.8128-0.71093z" fill="#abc837" stroke="#abc837" stroke-width=".26458px"/>
    <path d="m71.367 108.44c3.6647-2.7168 2.769-4.1481 2.769-4.1481s-3.9515 1.3664-4.6592 3.3916c-0.70769 2.0252 1.8902 0.75645 1.8902 0.75645z" fill="#abc837" stroke="#abc837" stroke-width=".26458px"/>
    <path d="m51.415 107.95c-3.8084-3.228-7.1378-3.5281-7.1378-3.5281 0.13912 0.9841 2.8922 5.6589 4.0524 5.3932 2.988-0.68443 3.0854-1.8651 3.0854-1.8651z" fill="#abc837" stroke="#abc837" stroke-width=".26458px"/>
    <path d="m65.085 129.47c-3.3924 4.7084-5.5985 4.0751-5.5985 4.0751s1.9384-5.7407 3.25-6.1203c1.3115-0.37965 2.3485 2.0452 2.3485 2.0452z" fill="#abc837" stroke="#abc837" stroke-width=".26458px"/>
    <path d="m62.093 126.47c-4.1604 3.7177-5.9453 3.3596-5.9453 3.3596s1.0051-4.7317 2.6242-5.0041c1.6191-0.27235 3.3211 1.6445 3.3211 1.6445z" fill="#abc837" stroke="#abc837" stroke-width=".26458px"/>
    <path d="m51.72 122.41c-4.3752 1.2919-4.0258 2.9438-4.0258 2.9438s4.1804 0.0748 5.541-1.5839c1.3606-1.6586-1.5152-1.3599-1.5152-1.3599z" fill="#abc837" stroke="#abc837" stroke-width=".26458px"/>
    <path d="m51.103 116.98c-4.1604 3.7177-5.9453 3.3596-5.9453 3.3596s1.0051-4.7317 2.6242-5.0041c1.6191-0.27235 3.3211 1.6445 3.3211 1.6445z" fill="#abc837" stroke="#abc837" stroke-width=".26458px"/>
  </clipPath>
  



 <g transform="translate(-38.375 -98.315)">
  <g transform="translate(-46.275 -20.711)">
   <g transform="translate(15.464 -47.092)">
    <path d="m128.79 220.73c0.86826 4.9163 3.2382 7.2739 3.2382 7.2739 0.52152-0.84607 1.3895-6.2014 0.32706-6.7381-2.7362-1.382-3.5652-0.53583-3.5652-0.53583z" fill="#acbc3c" stroke="black" stroke-width=".15"/>
    
    
    
   
    
    <g fill="#acbc3c" stroke="black" stroke-width=".15">
    
    
     <path d="m139.57 201.87c1.4149-3.5361 4.3531-4.7232 4.3531-4.7232s-0.18988 3.6032-1.5596 5.7503c-1.3697 2.147-2.7935-1.027-2.7935-1.027z"/>
     <path d="m146.21 203.75c-0.63742-4.1608 0.27369-4.7919 0.27369-4.7919s3.3334 3.9589 2.1563 4.8078c-1.1771 0.84885-2.43-0.0159-2.43-0.0159z"/>
     <path d="m150.05 204.57c1.2859-4.275 2.1635-4.1188 2.1635-4.1188s0.16936 5.8812-0.85221 5.8812-1.3113-1.7623-1.3113-1.7623z"/>
     <path d="m160.94 200.89c0.93945-5.1009 3.177-5.7771 3.177-5.7771s0.95927 4.7195-0.82697 5.9838c-1.7862 1.2643-1.7603 0.012-1.7603 0.012z"/>
     <path d="m165.65 201.34c3.5241-4.8384 4.9682-4.7556 4.9682-4.7556s-0.0421 3.1605-1.494 4.9697c-1.4518 1.8092-3.4742-0.21407-3.4742-0.21407z"/>
     <path d="m175.86 200.65c-1.2325-2.9578 1.4514-4.7624 1.4514-4.7624s0.9439 3.7667-0.43285 4.9177-1.0186-0.15537-1.0186-0.15537z"/>
     <path d="m175.86 200.65c3.2684-2.0976 7.4072-1.2611 7.4072-1.2611s-7.5777 4.336-10.23 3.6198c-2.6522-0.71619 2.8227-2.3586 2.8227-2.3586z"/>
     <path d="m106.39 205.1c-3.3712-4.083-8.6867-0.72181-8.6867-0.72181s6.1701 2.8387 10.791 2.305c4.621-0.5337-2.1045-1.5832-2.1045-1.5832z"/>
     <path d="m159.48 217.45c4.6468 2.5941 0.29554 8.26 0.29554 8.26s-1.9009-14.345-3.4841-15.694c-1.5832-1.3486 3.1886 7.4335 3.1886 7.4335z"/>
     <path d="m154.56 217.56c-2.4056 5.1061-8.2883 7.1262-8.2883 7.1262s4.5087-13.086 6.3861-12.165c1.8775 0.92106 1.9022 5.0385 1.9022 5.0385z"/>
     <path d="m153.92 212.25c1.4298 10.388 3.0446 10.228 3.0446 10.228s3.3255-9.3277 0.36074-10.268c-2.9648-0.93993-3.4053 0.0392-3.4053 0.0392z"/>
     <path d="m179 206.83c2.4734 5.2498 0.84993 6.8722 0.84993 6.8722s-4.0811-4.4786-3.7773-5.8097c0.30379-1.3311 2.9274-1.0625 2.9274-1.0625z"/>
     <path d="m174.92 207.99c1.2346 5.4411 0.056 6.8286 0.056 6.8286s-3.6512-3.1731-3.1044-4.7212c0.54676-1.5481 3.0484-2.1074 3.0484-2.1074z"/>
     <path d="m166.34 215.09c-0.99118 4.4529 0.62296 4.9483 0.62296 4.9483s2.0922-3.6201 1.3011-5.6142c-0.791-1.9941-1.924 0.6659-1.924 0.6659z"/>
     <path d="m115.93 213.44c-5.2465-0.71448-6.8734 5.3605-6.8734 5.3605s6.4596-2.0981 9.4937-5.6242c3.0341-3.526-2.6203 0.26363-2.6203 0.26363z"/>
     <path d="m123.97 218.75c-4.7753 3.2976-6.6411 1.9609-6.6411 1.9609s3.7519-4.7578 5.1147-4.6755c1.3629 0.0824 1.5264 2.7146 1.5264 2.7146z"/>
     <path d="m132.83 221.19c3.9387 3.0826 7.9915 1.7591 7.9915 1.7591s-3.5896-2.6738-6.39-3.8236c-2.8004-1.1498-1.6016 2.0645-1.6016 2.0645z"/>
     <path d="m104.32 211.6c3.619 4.543-1.7931 7.2046-1.7931 7.2046s-0.86907-2.5168 0.014-7.0445c0.88307-4.5277 1.7791-0.16005 1.7791-0.16005z"/>
     <path d="m102.55 211.08c-4.9334 2.6307-7.9641 2.077-7.9641 2.077s2.6161-6.5175 5.9876-5.4141c3.3715 1.1033 1.9766 3.3371 1.9766 3.3371z"/>
     <path d="m136.31 200.42c5.802-0.26938 4.2397-6.0947 4.2397-6.0947s-2.4661 1.0039-5.2912 4.6507c-2.825 3.6468 1.0515 1.4441 1.0515 1.4441z"/>
     <path d="m134.75 199.43c-1.2702-5.4448-3.6831-7.3604-3.6831-7.3604s-3.1806 6.2613-0.1297 8.0713c3.0509 1.81 3.8128-0.71093 3.8128-0.71093z"/>
    </g>
    
    
    <path d="m102.55 211.08c-3.0796-11.172 23.662-14.128 25.265-14.096 5.6416 0.1104 7.6583 3.4363 19.688 5.5722 12.029 2.136 8.5171-5.5399 27.035-2.7108 8.569 1.3092 3.2103 11.177 3.2103 11.177s-3.6136 3.8017-9.7771 5.1353c-6.1635 1.3336-25.187 6.3366-33.01 5.4277s-27.74-4.9271-32.41-10.506" fill="#acbc3c" stroke="black" stroke-width=".15"/>
   </g>
   
   <!--<g transform="translate(15.464 -47.092)">  fill="" -->
   
  </g>
  
  <path d="m48.014 110.18c-4.9995 0.14416-7.2723 3.7512-7.2723 3.7512s4.4697-0.23571 7.3588-1.1398c2.8891-0.90409-0.0865-2.6114-0.0865-2.6114z" fill="#acbc3c" stroke="black" stroke-width=".15"/>
  
 
  
  
  <g fill="#acbc3c" stroke="black" stroke-width=".15">
   <path d="m108.31 112.43c3.8084-3.228 7.1378-3.5281 7.1378-3.5281-0.13913 0.9841-2.8922 5.6589-4.0524 5.3932-2.988-0.68443-3.0854-1.8651-3.0854-1.8651z"/>
   <path d="m111.71 114.66c4.9995 0.14416 7.2723 3.7512 7.2723 3.7512s-4.4697-0.23571-7.3588-1.1398c-2.8891-0.90409 0.0865-2.6114 0.0865-2.6114z"/>
   <path d="m109.18 123.28c5.802 0.26938 4.2397 6.0947 4.2397 6.0947s-2.4661-1.0039-5.2912-4.6507c-2.825-3.6468 1.0515-1.4441 1.0515-1.4441z"/>
   <path d="m107.62 124.27c-1.2702 5.4448-3.6831 7.3604-3.6831 7.3604s-3.1806-6.2613-0.1297-8.0713c3.0509-1.81 3.8128 0.71093 3.8128 0.71093z"/>
   <path d="m96.628 125.85c3.6647 2.7168 2.769 4.1481 2.769 4.1481s-3.9515-1.3664-4.6592-3.3916 1.8902-0.75645 1.8902-0.75645z"/>
   <path d="m85.315 128c5.802 0.26938 4.2397 6.0947 4.2397 6.0947s-2.4661-1.0039-5.2912-4.6507c-2.825-3.6468 1.0515-1.4441 1.0515-1.4441z"/>
   <path d="m83.757 128.99c-1.2702 5.4448-3.6831 7.3604-3.6831 7.3604s-3.1806-6.2613-0.1297-8.0713c3.0509-1.81 3.8128 0.71093 3.8128 0.71093z"/>
   <path d="m72.761 130.57c3.6647 2.7168 2.769 4.1481 2.769 4.1481s-3.9515-1.3664-4.6592-3.3916 1.8902-0.75645 1.8902-0.75645z"/>
   <path d="m56.389 106.4c1.5677-5.5875 3.8571-5.7509 3.8571-5.7509s0.15249 6.0573-0.94871 6.8645c-1.1012 0.80719-2.9084-1.1136-2.9084-1.1136z"/>
   <path d="m60.229 108.19c2.6294-4.921 4.4286-5.1981 4.4286-5.1981s0.68219 4.789-0.74469 5.6012-3.6839-0.40304-3.6839-0.40304z"/>
   <path d="m93.814 109.23c1.5677-5.5875 3.8571-5.7509 3.8571-5.7509s0.15249 6.0573-0.94871 6.8645c-1.1012 0.80719-2.9084-1.1136-2.9084-1.1136z"/>
   <path d="m97.654 111.01c2.6294-4.921 4.4286-5.1981 4.4286-5.1981s0.68219 4.789-0.74469 5.6012c-1.4269 0.81219-3.6839-0.40304-3.6839-0.40304z"/>
   <path d="m83.92 111.01c5.802-0.26938 4.2397-6.0947 4.2397-6.0947s-2.4661 1.0039-5.2912 4.6507c-2.825 3.6468 1.0515 1.4441 1.0515 1.4441z"/>
   <path d="m82.362 110.02c-1.2702-5.4448-3.6831-7.3604-3.6831-7.3604s-3.1806 6.2613-0.1297 8.0713c3.0509 1.81 3.8128-0.71093 3.8128-0.71093z"/>
   <path d="m71.367 108.44c3.6647-2.7168 2.769-4.1481 2.769-4.1481s-3.9515 1.3664-4.6592 3.3916c-0.70769 2.0252 1.8902 0.75645 1.8902 0.75645z"/>
   <path d="m51.415 107.95c-3.8084-3.228-7.1378-3.5281-7.1378-3.5281 0.13912 0.9841 2.8922 5.6589 4.0524 5.3932 2.988-0.68443 3.0854-1.8651 3.0854-1.8651z"/>
   <path d="m65.085 129.47c-3.3924 4.7084-5.5985 4.0751-5.5985 4.0751s1.9384-5.7407 3.25-6.1203c1.3115-0.37965 2.3485 2.0452 2.3485 2.0452z"/>
   <path d="m62.093 126.47c-4.1604 3.7177-5.9453 3.3596-5.9453 3.3596s1.0051-4.7317 2.6242-5.0041c1.6191-0.27235 3.3211 1.6445 3.3211 1.6445z"/>
   <path d="m51.72 122.41c-4.3752 1.2919-4.0258 2.9438-4.0258 2.9438s4.1804 0.0748 5.541-1.5839c1.3606-1.6586-1.5152-1.3599-1.5152-1.3599z"/>
   <path d="m51.103 116.98c-4.1604 3.7177-5.9453 3.3596-5.9453 3.3596s1.0051-4.7317 2.6242-5.0041c1.6191-0.27235 3.3211 1.6445 3.3211 1.6445z"/>
  </g>
  
  <path d="m47.908 118.62c-3.8076-5.6058 0.75152-15.152 15.343-12.823 13.894 2.218 12.454 4.0401 22.091 3.288 9.6365-0.75202 21.524-1.0879 25.244 2.424s3.5737 3.8803 2.5008 7.5426c-1.0729 3.6623-6.6215 7.9318-14.026 7.384-7.7448-0.57305-11.37 4.7079-21.855 4.6688-16.351-0.0609-25.897-7.0504-29.298-12.485" fill="#acbc3c" stroke="black" stroke-width=".15"/>
  
  <path transform="translate(-2.4e-5 5e-5)" d="m43.052 115.09c7.0251-0.58521 10.152 3.9047 10.152 3.9047-0.449-1.9787 0.1488-3.7354 0.94452-5.4502 1.7375 1.879 2.1849 4.001 2.1945 6.2055 0 0 12.31-1.0846 15.881 2.3511 3.5715 3.4357 9.1759 3.1721 9.1759 3.1721-0.78232-1.9882 0.27084-3.7032 1.3979-5.4072 0.57038 1.7814 1.2598 3.5629 0.27788 5.3444 0 0 8.6137-0.18434 11.685-3.3848 3.0714-3.2005 9.0293 4.8054 8.3093 1.739-0.93457-3.9803 2.1969-6.0913 2.2562-6.0615 0.30254 1.6745 0.83641 3.4474 0.64242 4.9104 0 0 7.9259-11.337 8.7707-8.276 0.84484 3.0612 18.68 1.931 18.68 1.931l-0.42057 41.744-101.16-12.573 0.82008-30.388z" clip-path="url(#clipPath2857)" fill="url(#linearGradient4006)" stroke="black" stroke-width=".15"/>
  <path d="m76.501 151.73c-1.3825-4.3761 1.1004-7.1728 1.1004-7.1728l3.044 0.94265s-2.3342 4.7642 0.12951 6.7957c2.4638 2.0315-4.2739-0.56559-4.2739-0.56559z" fill="#654d4d" stroke="black" stroke-width=".15"/>
  <g transform="translate(15.436 -43.811)">
   <g fill="#acbc3c">

      
    <g stroke="black" stroke-width=".15">
     <path d="m75.638 202.18c4.3415 3.8509 3.4885 5.9817 3.4885 5.9817s-5.5155-2.5085-5.7606-3.8518c-0.24466-1.3432 2.2721-2.1298 2.2721-2.1298z"/>
     <path d="m72.354 204.85c3.2783 4.5148 2.7416 6.2543 2.7416 6.2543s-4.6059-1.4782-4.7133-3.1165c-0.10735-1.6383 1.9717-3.1378 1.9717-3.1378z"/>
     <path d="m66.368 204.59c-2.4056 5.1061-8.2883 7.1262-8.2883 7.1262s4.5087-13.086 6.3861-12.165c1.8775 0.92106 1.9022 5.0385 1.9022 5.0385z"/>
     <path d="m40.593 207.76c0.86826 4.9163 3.2382 7.2739 3.2382 7.2739 0.52152-0.84607 1.3895-6.2014 0.32706-6.7381-2.7362-1.382-3.5652-0.53583-3.5652-0.53583z"/>
     <path d="m44.636 208.22c3.9387 3.0826 7.9915 1.7591 7.9915 1.7591s-3.5896-2.6738-6.39-3.8236c-2.8004-1.1498-1.6016 2.0645-1.6016 2.0645z"/>
     <path d="m56.566 197.98c-5.2323 0.97228-5.5036-6.1664-5.5036-6.1664s10.626 9.8227 12.705 9.849c2.0795 0.0263-7.2016-3.6826-7.2016-3.6826z"/>
     <path d="m43.012 202.45c-1.4108-5.4652 1.8251-10.777 1.8251-10.777s4.8897 12.948 2.8569 13.439c-2.0329 0.49059-4.682-2.6616-4.682-2.6616z"/>
     <path d="m43.012 202.45c-7.7357-7.0792-8.876-5.9249-8.876-5.9249s3.3996 9.301 6.2811 8.1303c2.8815-1.1706 2.595-2.2054 2.595-2.2054z"/>
     <path d="m31.805 201.43c-4.3752 1.2919-4.0258 2.9438-4.0258 2.9438s4.1804 0.0748 5.541-1.5839c1.3606-1.6586-1.5152-1.3599-1.5152-1.3599z"/>
     <path d="m39.954 204.31c-4.9995 0.14416-7.2723 3.7512-7.2723 3.7512s4.4697-0.23571 7.3588-1.1398c2.8891-0.90409-0.0865-2.6114-0.0865-2.6114z"/>
     <path d="m80.257 201.75c-1.2325-2.9578 1.4514-4.7624 1.4514-4.7624s0.9439 3.7667-0.43285 4.9177-1.0186-0.15537-1.0186-0.15537z"/>
     <path d="m80.257 201.75c3.2684-2.0976 7.4072-1.2611 7.4072-1.2611s-7.5777 4.336-10.23 3.6198c-2.6522-0.71619 2.8227-2.3586 2.8227-2.3586z"/>
    </g>
    
        <path d="m80.257 201.75c-11.046-12.99-20.324-7.2738-21.165-7.177-0.84075 0.0968-0.8424 2.5102-9.4947 2.6482-8.6523 0.13797-14.071 0.43511-15.96 4.2733s6.4594 6.4504 12.296 7.205c5.8368 0.75453 11.039-2.7037 19.327-1.3344 8.2887 1.3693 12.828-0.41427 13.665-1.2121 0.83729-0.79786 1.3314-4.403 1.3314-4.403z" stroke="black" stroke-width=".15"/>
    
   </g>
   <path d="m33.693 205.01c7.0431-3.2483 5.6281-4.2158 5.6281-4.2158l3.5715 3.5921s8.0508 1.7412 13.222-0.27136 8.4659-0.77427 8.4659-0.77427l2.2314 3.4377 1.4776-5.2824 1.996 2.4692s-0.01786-2.0135 0.91032-1.7987c0.92817 0.21479-0.24533 1.8954 5.4483 2.0195 5.6936 0.12414 7.1533 5.7902 7.1533 5.7902l-25.345 11.325-27.075-1.866-1.7677-12.477z" clip-path="url(#clipPath3206)" fill="url(#linearGradient3283)" stroke="black" stroke-width=".15"/>
  </g>
  <g fill="#654d4d" stroke="black" stroke-width=".5">
   <path d="m94.086 131.57c0.85332-1.4115-4.4875-5.837-4.5592-5.9126l3.7921-1.4092s7.3409 7.4869 4.4107 8.5855c-2.9302 1.0986-3.6436-1.2638-3.6436-1.2638z"/>
   <path d="m94.941 127.49s1.5394-1.314 3.2171-2.9572c1.2011-1.1765 0.07235 2.8815 0.1316-0.0894 0 0 2.5181-0.47322 0.68294 0.88657-1.8352 1.3598-3.0305 3.3832-3.0305 3.3832z"/>
  </g>
  <g fill="#654d4d" stroke="black" stroke-width=".5">
   <path d="m83.653 162.42c-0.9968 1.7672 7.2145 8.927 4.0594 14.102-3.6491 5.9851-19.003 6.5162-16.407 17.378 2.5958 10.862 25.585 7.322 25.585 7.322l0.4718 5.3346s7.6941 1.4768 9.2832-1.1348c1.5891-2.6116-4.3442-9.5684-5.425-10.114-1.0808-0.54573-10.434-1.2302-10.434-1.2302-5.6592-0.4627-9.7109-0.83941-9.7109-0.83941h-5.29e-4l-0.59945-0.30282c-0.18649 0.1115 0.70406 0.23431 0.59945 0.30282-0.9769-0.35909-4.089-3.6096-0.25632-6.3526 0 0 5.5714-3.7476 10.448-7.3189 4.8771-3.5714-3.9016-17.1-3.9016-17.1z"/>
   <path d="m78.159 183.69c-7.3068-6.7717-2.3157-8.3063-1.4769-12.562 0.83888-4.2557-1.7741-8.6943-1.7741-8.6943l1.7592-0.0632s2.3356 5.1823 1.9097 7.9817c-0.42594 2.7994-2.2834 5.2642-2.6269 6.3712-0.94694 3.0522 6.1375 5.2681 3.4156 6.3654z"/>
   <path d="m75.628 174.62s-14.083 0.99489-13.691-5.0925c0.39183-6.0874 0.31337-6.1692 0.31337-6.1692l1.2593 0.0733s-0.45341 5.577 0.01468 6.8018c0.46808 1.2247 1.7596 2.0026 3.8309 2.4966 2.0713 0.494 8.7589 0.67661 8.7589 0.67661z"/>
   <path d="m90.834 171.6c0.04788-0.14734 16.407-3.3063 17.157-7.1004 0.96864-4.9016-1.2236-6.2751-1.1668-8.7621l2.8731-6.2978 2.2089 0.61599s-3.7015 3.8811-1.6993 8.9945c2.0022 5.1134-0.94066 9.3335-3.4414 10.322s-15.041 5.3657-15.041 5.3657z"/>
   <path d="m109.88 161.74s11.482-2.337 12.676-7.161l1.1949-4.824 2.2476-0.18076s-1.5949 7.731-4.2142 9.613c-3.5118 2.5234-11.726 4.7788-11.726 4.7788z"/>
  </g>
  <g stroke-width="0">
   <rect x="81.45" y="205.65" width="42.769" height="2.9545" fill="#65708e" stroke="black" stroke-width=".5"/>
   <rect x="82.67" y="208.6" width="40.231" height="2.7138" fill="#cbad92" stroke="black" stroke-width=".5"/>
   <rect x="82.682" y="211.32" width="40.22" height="2.8464" fill="#65708e"  stroke="black" stroke-width=".5"/>
   <rect x="83.983" y="214.16" width="37.652" height="2.7138" fill="#cbad92" stroke="black" stroke-width=".5"/>
   <rect x="83.983" y="216.88" width="37.652" height="2.8464" fill="#65708e" stroke="black" stroke-width=".5"/>
   <rect x="85.568" y="219.72" width="34.332" height="2.7138" fill="#cbad92" stroke="black" stroke-width=".5"/>
   <rect x="85.568" y="222.44" width="34.332" height="2.8464" fill="#65708e" stroke="black" stroke-width=".5"/>
   <rect x="88.729" y="225.28" width="27.906" height="2.7138" fill="#cbad92" stroke="black" stroke-width=".5"/>
   <rect x="88.729" y="228" width="27.906" height="2.8464" fill="#65708e" stroke="black" stroke-width=".5"/>
  </g>
 </g>
 
 
    <g transform="translate(-38.375 -98.315)">
  <g transform="translate(-46.275 -20.711)">
   <g transform="translate(15.464 -47.092)">
   
   
   <g clip-path="url(#clipPath3067)">
      <g transform="translate(38.375 98.315)">
  <g transform="translate(46.275 20.711)">
   <g transform="translate(-15.464 47.092)">
   
    <g transform="translate(-38.375 -98.315)">
  <g transform="translate(-46.275 -20.711)">
   <path stroke="black" stroke-width=".15" d="m112.77 168.71c9.0789-10.703 13.702-6.5259 13.702-6.5259 0.50105 2.6562 1.4434 3.5304 2.3351 4.6093 1.193-1.8098 0.9629-3.3758 0.75101-4.945 0.83153 1.1692 0.95954 2.077 4.1384 4.3349 2.1866 0.87372-2.4473-5.6243 7.2853-3.5264 10.964 2.3634 20.114 5.0335 20.114 5.0335 1.1258-2.2741 3.0124-2.8408 4.8552-3.5059 0.30311 1.3063 0.62432 2.6067-0.13111 4.2631 0 0 2.7367-2.589 10.537-2.7062 7.7999-0.11713 13.335-1.658 13.335-1.658s7.7286 7.26 6.6719 4.8901c-1.0568-2.3699 0.69749 21.94 0.69749 21.94l-86.809-2.5565 2.45-19.151z"  fill="url(#linearGradient3275)"/></g></g>
   
   
   </g></g></g></g> </g></g></g>
 

</svg>
