<?xml version="1.0" encoding="UTF-8" standalone="no"?>
<svg
   xmlns:dc="http://purl.org/dc/elements/1.1/"
   xmlns:cc="http://creativecommons.org/ns#"
   xmlns:rdf="http://www.w3.org/1999/02/22-rdf-syntax-ns#"
   xmlns:svg="http://www.w3.org/2000/svg"
   xmlns="http://www.w3.org/2000/svg"
   xmlns:xlink="http://www.w3.org/1999/xlink"
   xmlns:sodipodi="http://sodipodi.sourceforge.net/DTD/sodipodi-0.dtd"
   xmlns:inkscape="http://www.inkscape.org/namespaces/inkscape"
   width="116mm"
   height="137mm"
   viewBox="0 0 116 137"
   version="1.1"
   id="svg8"
   inkscape:version="1.0.1 (1.0.1+r74)"
   sodipodi:docname="bonsai2.svg">


    
  
  
    
    <clipPath
       clipPathUnits="userSpaceOnUse"
       id="clipPath2857">
      <g
         id="g2905"
         transform="translate(2.4e-5,-5.0000001e-5)">
        <g
           id="g2861">
          <path
             style="fill:#abc837;fill-opacity:1;stroke:#abc837;stroke-width:0.264583px;stroke-linecap:butt;stroke-linejoin:miter;stroke-opacity:1"
             d="m 48.014338,110.1822 c -4.99954,0.14416 -7.27227,3.75123 -7.27227,3.75123 0,0 4.4697,-0.23571 7.35879,-1.13979 2.88911,-0.90409 -0.0865,-2.61144 -0.0865,-2.61144 z"
             id="path2859" />
        </g>
        <path
           style="fill:#abc837;fill-opacity:1;stroke:#abc837;stroke-width:0.264583px;stroke-linecap:butt;stroke-linejoin:miter;stroke-opacity:1"
           d="M 47.907585,118.62123 C 44.100016,113.0154 48.659107,103.4694 63.251,105.79869 c 13.894476,2.21796 12.454199,4.04006 22.090721,3.28804 9.636519,-0.75202 21.523699,-1.08793 25.243939,2.42401 3.72024,3.51194 3.57369,3.88032 2.50082,7.54264 -1.07287,3.66231 -6.62149,7.93184 -14.026042,7.38397 -7.744799,-0.57305 -11.370483,4.70791 -21.85476,4.66883 -16.351177,-0.0609 -25.897475,-7.05036 -29.298093,-12.48495"
           id="path2863"
           sodipodi:nodetypes="cssssssc" />
        <path
           style="fill:#abc837;fill-opacity:1;stroke:#abc837;stroke-width:0.264583px;stroke-linecap:butt;stroke-linejoin:miter;stroke-opacity:1"
           d="m 108.30541,112.43033 c 3.8084,-3.22798 7.13778,-3.5281 7.13778,-3.5281 -0.13913,0.9841 -2.89221,5.65892 -4.05242,5.39317 -2.98802,-0.68443 -3.08536,-1.86507 -3.08536,-1.86507 z"
           id="path2865"
           sodipodi:nodetypes="ccsc" />
        <path
           style="fill:#abc837;fill-opacity:1;stroke:#abc837;stroke-width:0.264583px;stroke-linecap:butt;stroke-linejoin:miter;stroke-opacity:1"
           d="m 111.70652,114.66379 c 4.99953,0.14416 7.27227,3.75123 7.27227,3.75123 0,0 -4.46971,-0.23571 -7.3588,-1.13979 -2.8891,-0.90409 0.0865,-2.61144 0.0865,-2.61144 z"
           id="path2867" />
        <path
           style="fill:#abc837;fill-opacity:1;stroke:#abc837;stroke-width:0.264583px;stroke-linecap:butt;stroke-linejoin:miter;stroke-opacity:1"
           d="m 109.18146,123.27852 c 5.80201,0.26938 4.23971,6.09473 4.23971,6.09473 0,0 -2.46614,-1.00389 -5.29118,-4.65066 -2.82505,-3.64678 1.05147,-1.44407 1.05147,-1.44407 z"
           id="path2869" />
        <path
           style="fill:#abc837;fill-opacity:1;stroke:#abc837;stroke-width:0.264583px;stroke-linecap:butt;stroke-linejoin:miter;stroke-opacity:1"
           d="m 107.62347,124.26763 c -1.27024,5.44478 -3.68311,7.36039 -3.68311,7.36039 0,0 -3.18064,-6.26134 -0.1297,-8.07132 3.05093,-1.80999 3.81281,0.71093 3.81281,0.71093 z"
           id="path2871" />
        <path
           style="fill:#abc837;fill-opacity:1;stroke:#abc837;stroke-width:0.264583px;stroke-linecap:butt;stroke-linejoin:miter;stroke-opacity:1"
           d="m 96.627692,125.84679 c 3.664708,2.71685 2.768966,4.14807 2.768966,4.14807 0,0 -3.951523,-1.36644 -4.659215,-3.39162 -0.707692,-2.02518 1.890249,-0.75645 1.890249,-0.75645 z"
           id="path2873" />
        <path
           style="fill:#abc837;fill-opacity:1;stroke:#abc837;stroke-width:0.264583px;stroke-linecap:butt;stroke-linejoin:miter;stroke-opacity:1"
           d="m 85.315231,128.00066 c 5.80201,0.26938 4.23971,6.09473 4.23971,6.09473 0,0 -2.46614,-1.00389 -5.29118,-4.65066 -2.82505,-3.64678 1.05147,-1.44407 1.05147,-1.44407 z"
           id="path2875" />
        <path
           style="fill:#abc837;fill-opacity:1;stroke:#abc837;stroke-width:0.264583px;stroke-linecap:butt;stroke-linejoin:miter;stroke-opacity:1"
           d="m 83.757241,128.98977 c -1.27024,5.44478 -3.68311,7.36039 -3.68311,7.36039 0,0 -3.180644,-6.26134 -0.1297,-8.07132 3.05093,-1.80999 3.81281,0.71093 3.81281,0.71093 z"
           id="path2877" />
        <path
           style="fill:#abc837;fill-opacity:1;stroke:#abc837;stroke-width:0.264583px;stroke-linecap:butt;stroke-linejoin:miter;stroke-opacity:1"
           d="m 72.761459,130.56893 c 3.664708,2.71685 2.768966,4.14807 2.768966,4.14807 0,0 -3.951523,-1.36644 -4.659215,-3.39162 -0.707692,-2.02518 1.890249,-0.75645 1.890249,-0.75645 z"
           id="path2879" />
        <path
           style="fill:#abc837;fill-opacity:1;stroke:#abc837;stroke-width:0.264583px;stroke-linecap:butt;stroke-linejoin:miter;stroke-opacity:1"
           d="m 56.38914,106.39986 c 1.567746,-5.58746 3.857085,-5.75089 3.857085,-5.75089 0,0 0.152492,6.05726 -0.948709,6.86446 -1.101198,0.80719 -2.908376,-1.11357 -2.908376,-1.11357 z"
           id="path2881" />
        <path
           style="fill:#abc837;fill-opacity:1;stroke:#abc837;stroke-width:0.264583px;stroke-linecap:butt;stroke-linejoin:miter;stroke-opacity:1"
           d="m 60.22873,108.18616 c 2.629363,-4.92103 4.428617,-5.19813 4.428617,-5.19813 0,0 0.682191,4.78898 -0.744691,5.60117 -1.426882,0.81219 -3.683926,-0.40304 -3.683926,-0.40304 z"
           id="path2883" />
        <path
           style="fill:#abc837;fill-opacity:1;stroke:#abc837;stroke-width:0.264583px;stroke-linecap:butt;stroke-linejoin:miter;stroke-opacity:1"
           d="m 93.814044,109.22821 c 1.567746,-5.58746 3.857085,-5.75089 3.857085,-5.75089 0,0 0.152492,6.05726 -0.948709,6.86446 -1.101198,0.80719 -2.908376,-1.11357 -2.908376,-1.11357 z"
           id="path2885" />
        <path
           style="fill:#abc837;fill-opacity:1;stroke:#abc837;stroke-width:0.264583px;stroke-linecap:butt;stroke-linejoin:miter;stroke-opacity:1"
           d="m 97.653634,111.01451 c 2.629366,-4.92103 4.428616,-5.19813 4.428616,-5.19813 0,0 0.68219,4.78898 -0.74469,5.60117 -1.426882,0.81219 -3.683926,-0.40304 -3.683926,-0.40304 z"
           id="path2887" />
        <path
           style="fill:#abc837;fill-opacity:1;stroke:#abc837;stroke-width:0.264583px;stroke-linecap:butt;stroke-linejoin:miter;stroke-opacity:1"
           d="m 83.920432,111.00617 c 5.80201,-0.26938 4.23971,-6.09473 4.23971,-6.09473 0,0 -2.46614,1.00389 -5.29118,4.65066 -2.82505,3.64678 1.05147,1.44407 1.05147,1.44407 z"
           id="path2889" />
        <path
           style="fill:#abc837;fill-opacity:1;stroke:#abc837;stroke-width:0.264583px;stroke-linecap:butt;stroke-linejoin:miter;stroke-opacity:1"
           d="m 82.362442,110.01706 c -1.27024,-5.44478 -3.68311,-7.36039 -3.68311,-7.36039 0,0 -3.18064,6.26134 -0.1297,8.07132 3.05093,1.80999 3.81281,-0.71093 3.81281,-0.71093 z"
           id="path2891" />
        <path
           style="fill:#abc837;fill-opacity:1;stroke:#abc837;stroke-width:0.264583px;stroke-linecap:butt;stroke-linejoin:miter;stroke-opacity:1"
           d="m 71.366662,108.4379 c 3.66471,-2.71685 2.76897,-4.14807 2.76897,-4.14807 0,0 -3.95152,1.36644 -4.65922,3.39162 -0.70769,2.02518 1.89025,0.75645 1.89025,0.75645 z"
           id="path2893" />
        <path
           style="fill:#abc837;fill-opacity:1;stroke:#abc837;stroke-width:0.264583px;stroke-linecap:butt;stroke-linejoin:miter;stroke-opacity:1"
           d="m 51.415448,107.94874 c -3.80841,-3.22798 -7.13778,-3.5281 -7.13778,-3.5281 0.13912,0.9841 2.8922,5.65892 4.05242,5.39317 2.98802,-0.68443 3.08536,-1.86507 3.08536,-1.86507 z"
           id="path2895"
           sodipodi:nodetypes="ccsc" />
        <path
           style="fill:#abc837;fill-opacity:1;stroke:#abc837;stroke-width:0.264583px;stroke-linecap:butt;stroke-linejoin:miter;stroke-opacity:1"
           d="m 65.084608,129.47114 c -3.392422,4.70841 -5.598511,4.07507 -5.598511,4.07507 0,0 1.938443,-5.74071 3.249996,-6.12027 1.311492,-0.37965 2.348529,2.04519 2.348528,2.04519 z"
           id="path2897" />
        <path
           style="fill:#abc837;fill-opacity:1;stroke:#abc837;stroke-width:0.264583px;stroke-linecap:butt;stroke-linejoin:miter;stroke-opacity:1"
           d="m 62.092743,126.47414 c -4.160358,3.71768 -5.945256,3.35957 -5.945256,3.35957 0,0 1.005137,-4.73173 2.624223,-5.00408 1.619072,-0.27235 3.321057,1.64446 3.321057,1.64446 z"
           id="path2899" />
        <path
           style="fill:#abc837;fill-opacity:1;stroke:#abc837;stroke-width:0.264583px;stroke-linecap:butt;stroke-linejoin:miter;stroke-opacity:1"
           d="m 51.719689,122.41008 c -4.37518,1.29193 -4.025846,2.94381 -4.025846,2.94381 0,0 4.180448,0.0748 5.541022,-1.58386 1.360601,-1.65857 -1.515191,-1.35992 -1.515191,-1.35992 z"
           id="path2901" />
        <path
           style="fill:#abc837;fill-opacity:1;stroke:#abc837;stroke-width:0.264583px;stroke-linecap:butt;stroke-linejoin:miter;stroke-opacity:1"
           d="m 51.102683,116.98402 c -4.160358,3.71768 -5.945256,3.35957 -5.945256,3.35957 0,0 1.005137,-4.73173 2.624223,-5.00408 1.619072,-0.27235 3.321057,1.64446 3.321057,1.64446 z"
           id="path2903" />
      </g>
    </clipPath>
    
    
    
    
    
    
    
    
    
    <clipPath
       clipPathUnits="userSpaceOnUse"
       id="clipPath3067">
      <g
         id="g3119"
         transform="translate(15.464223,-47.092145)">
        <path
           style="fill:#abc837;fill-opacity:1;stroke:#abc837;stroke-width:0.264583px;stroke-linecap:butt;stroke-linejoin:miter;stroke-opacity:1"
           d="m 128.78606,220.7322 c 0.86826,4.91629 3.23816,7.27388 3.23816,7.27388 0.52152,-0.84607 1.38948,-6.2014 0.32706,-6.73806 -2.73616,-1.38202 -3.56522,-0.53583 -3.56522,-0.53583 z"
           id="path3069"
           sodipodi:nodetypes="ccsc" />
        <g
           id="g3117">
          <g
             id="g3073">
            <path
               style="fill:#abc837;fill-opacity:1;stroke:#abc837;stroke-width:0.264583px;stroke-linecap:butt;stroke-linejoin:miter;stroke-opacity:1"
               d="m 102.54713,211.08417 c -3.079573,-11.17172 23.66183,-14.12759 25.26459,-14.09623 5.64159,0.1104 7.6583,3.43629 19.68757,5.57225 12.02926,2.13596 8.51712,-5.53989 27.03488,-2.71076 8.56896,1.30916 3.21026,11.17742 3.21026,11.17742 0,0 -3.61364,3.80173 -9.77714,5.13529 -6.16349,1.33355 -25.18738,6.33659 -33.00978,5.42766 -7.8224,-0.90893 -27.73979,-4.92709 -32.41038,-10.50563"
               id="path3071"
               sodipodi:nodetypes="cssscssc" />
          </g>
          <path
             style="fill:#abc837;fill-opacity:1;stroke:#abc837;stroke-width:0.264583px;stroke-linecap:butt;stroke-linejoin:miter;stroke-opacity:1"
             d="m 139.56963,201.87067 c 1.41494,-3.53611 4.35307,-4.72323 4.35307,-4.72323 0,0 -0.18988,3.60321 -1.55959,5.75027 -1.36972,2.14705 -2.79348,-1.02704 -2.79348,-1.02704 z"
             id="path3075" />
          <path
             style="fill:#abc837;fill-opacity:1;stroke:#abc837;stroke-width:0.264583px;stroke-linecap:butt;stroke-linejoin:miter;stroke-opacity:1"
             d="m 146.20821,203.75196 c -0.63742,-4.16085 0.27369,-4.79189 0.27369,-4.79189 0,0 3.33339,3.95891 2.1563,4.80775 -1.1771,0.84885 -2.42999,-0.0159 -2.42999,-0.0159 z"
             id="path3077" />
          <path
             style="fill:#abc837;fill-opacity:1;stroke:#abc837;stroke-width:0.264583px;stroke-linecap:butt;stroke-linejoin:miter;stroke-opacity:1"
             d="m 150.05408,204.56921 c 1.2859,-4.27497 2.16353,-4.11885 2.16353,-4.11885 0,0 0.16936,5.88118 -0.85221,5.88118 -1.02157,0 -1.31132,-1.76233 -1.31132,-1.76233 z"
             id="path3079" />
          <path
             style="fill:#abc837;fill-opacity:1;stroke:#abc837;stroke-width:0.264583px;stroke-linecap:butt;stroke-linejoin:miter;stroke-opacity:1"
             d="m 160.93687,200.89194 c 0.93945,-5.10089 3.17699,-5.77707 3.17699,-5.77707 0,0 0.95927,4.71952 -0.82697,5.98379 -1.78625,1.26428 -1.76031,0.012 -1.76031,0.012 z"
             id="path3081" />
          <path
             style="fill:#abc837;fill-opacity:1;stroke:#abc837;stroke-width:0.264583px;stroke-linecap:butt;stroke-linejoin:miter;stroke-opacity:1"
             d="m 165.65364,201.33724 c 3.52412,-4.83843 4.96821,-4.7556 4.96821,-4.7556 0,0 -0.0421,3.16048 -1.49398,4.96967 -1.45184,1.80918 -3.47423,-0.21407 -3.47423,-0.21407 z"
             id="path3083" />
          <path
             style="fill:#abc837;fill-opacity:1;stroke:#abc837;stroke-width:0.264583px;stroke-linecap:butt;stroke-linejoin:miter;stroke-opacity:1"
             d="m 175.85842,200.65234 c -1.23249,-2.95775 1.45143,-4.76236 1.45143,-4.76236 0,0 0.9439,3.76666 -0.43285,4.91773 -1.37675,1.15107 -1.01858,-0.15537 -1.01858,-0.15537 z"
             id="path3085" />
          <path
             style="fill:#abc837;fill-opacity:1;stroke:#abc837;stroke-width:0.264583px;stroke-linecap:butt;stroke-linejoin:miter;stroke-opacity:1"
             d="m 175.85842,200.65234 c 3.26842,-2.09758 7.40724,-1.26114 7.40724,-1.26114 0,0 -7.57774,4.33598 -10.2299,3.61978 -2.65216,-0.71619 2.82266,-2.35864 2.82266,-2.35864 z"
             id="path3087" />
          <path
             style="fill:#abc837;fill-opacity:1;stroke:#abc837;stroke-width:0.264583px;stroke-linecap:butt;stroke-linejoin:miter;stroke-opacity:1"
             d="m 106.38726,205.10194 c -3.37118,-4.08305 -8.686661,-0.72181 -8.686661,-0.72181 0,0 6.170131,2.83874 10.791151,2.30503 4.62101,-0.5337 -2.10449,-1.58322 -2.10449,-1.58322 z"
             id="path3089" />
          <path
             style="fill:#abc837;fill-opacity:1;stroke:#abc837;stroke-width:0.264583px;stroke-linecap:butt;stroke-linejoin:miter;stroke-opacity:1"
             d="m 159.48002,217.45316 c 4.64677,2.59414 0.29554,8.25996 0.29554,8.25996 0,0 -1.90094,-14.34493 -3.48414,-15.6935 -1.58321,-1.34857 3.1886,7.43354 3.1886,7.43354 z"
             id="path3091" />
          <path
             style="fill:#abc837;fill-opacity:1;stroke:#abc837;stroke-width:0.264583px;stroke-linecap:butt;stroke-linejoin:miter;stroke-opacity:1"
             d="m 154.56115,217.55725 c -2.40557,5.1061 -8.28832,7.1262 -8.28832,7.1262 0,0 4.50868,-13.08571 6.38613,-12.16466 1.87746,0.92106 1.90219,5.03846 1.90219,5.03846 z"
             id="path3093" />
          <path
             style="fill:#abc837;fill-opacity:1;stroke:#abc837;stroke-width:0.264583px;stroke-linecap:butt;stroke-linejoin:miter;stroke-opacity:1"
             d="m 153.92144,212.25203 c 1.42984,10.38807 3.04458,10.22838 3.04458,10.22838 0,0 3.32552,-9.32768 0.36074,-10.26761 -2.9648,-0.93993 -3.40532,0.0392 -3.40532,0.0392 z"
             id="path3095" />
          <path
             style="fill:#abc837;fill-opacity:1;stroke:#abc837;stroke-width:0.264583px;stroke-linecap:butt;stroke-linejoin:miter;stroke-opacity:1"
             d="m 178.9956,206.82618 c 2.47343,5.24976 0.84993,6.8722 0.84993,6.8722 0,0 -4.08114,-4.47857 -3.77728,-5.80968 0.30379,-1.3311 2.92736,-1.0625 2.92736,-1.0625 z"
             id="path3097" />
          <path
             style="fill:#abc837;fill-opacity:1;stroke:#abc837;stroke-width:0.264583px;stroke-linecap:butt;stroke-linejoin:miter;stroke-opacity:1"
             d="m 174.92389,207.98997 c 1.23462,5.44108 0.056,6.82858 0.056,6.82858 0,0 -3.65117,-3.17312 -3.10443,-4.72121 0.54676,-1.54814 3.04838,-2.10742 3.04838,-2.10742 z"
             id="path3099" />
          <path
             style="fill:#abc837;fill-opacity:1;stroke:#abc837;stroke-width:0.264583px;stroke-linecap:butt;stroke-linejoin:miter;stroke-opacity:1"
             d="m 166.34041,215.09216 c -0.99118,4.45294 0.62296,4.94826 0.62296,4.94826 0,0 2.09215,-3.62006 1.30107,-5.61416 -0.791,-1.9941 -1.924,0.6659 -1.924,0.6659 z"
             id="path3101" />
          <path
             style="fill:#abc837;fill-opacity:1;stroke:#abc837;stroke-width:0.264583px;stroke-linecap:butt;stroke-linejoin:miter;stroke-opacity:1"
             d="m 115.92559,213.43784 c -5.24648,-0.71448 -6.87345,5.36047 -6.87345,5.36047 0,0 6.45965,-2.09808 9.49373,-5.62415 3.03411,-3.52601 -2.6203,0.26363 -2.6203,0.26363 z"
             id="path3103" />
          <path
             style="fill:#abc837;fill-opacity:1;stroke:#abc837;stroke-width:0.264583px;stroke-linecap:butt;stroke-linejoin:miter;stroke-opacity:1"
             d="m 123.96992,218.74687 c -4.77531,3.29755 -6.64112,1.96092 -6.64112,1.96092 0,0 3.75186,-4.75784 5.11472,-4.67551 1.36287,0.0824 1.52639,2.71457 1.52639,2.71457 z"
             id="path3105" />
          <path
             style="fill:#abc837;fill-opacity:1;stroke:#abc837;stroke-width:0.264583px;stroke-linecap:butt;stroke-linejoin:miter;stroke-opacity:1"
             d="m 132.82953,221.18626 c 3.93873,3.08265 7.99147,1.75911 7.99147,1.75911 0,0 -3.58957,-2.67376 -6.38995,-3.82361 -2.80037,-1.14984 -1.60155,2.06451 -1.60155,2.06451 z"
             id="path3107" />
          <path
             style="fill:#abc837;fill-opacity:1;stroke:#abc837;stroke-width:0.264583px;stroke-linecap:butt;stroke-linejoin:miter;stroke-opacity:1"
             d="m 104.31756,211.60491 c 3.61905,4.54297 -1.79313,7.20457 -1.79313,7.20457 0,0 -0.86907,-2.51682 0.014,-7.04452 0.88307,-4.52771 1.77913,-0.16005 1.77913,-0.16005 z"
             id="path3109" />
          <path
             style="fill:#abc837;fill-opacity:1;stroke:#abc837;stroke-width:0.264583px;stroke-linecap:butt;stroke-linejoin:miter;stroke-opacity:1"
             d="m 102.54713,211.08417 c -4.933446,2.63068 -7.964131,2.07702 -7.964131,2.07702 0,0 2.616091,-6.51747 5.987571,-5.4141 3.37148,1.10331 1.97656,3.33708 1.97656,3.33708 z"
             id="path3111" />
          <path
             style="fill:#abc837;fill-opacity:1;stroke:#abc837;stroke-width:0.264583px;stroke-linecap:butt;stroke-linejoin:miter;stroke-opacity:1"
             d="m 136.30903,200.4203 c 5.80201,-0.26938 4.23971,-6.09473 4.23971,-6.09473 0,0 -2.46614,1.00389 -5.29118,4.65066 -2.82505,3.64678 1.05147,1.44407 1.05147,1.44407 z"
             id="path3113" />
          <path
             style="fill:#abc837;fill-opacity:1;stroke:#abc837;stroke-width:0.264583px;stroke-linecap:butt;stroke-linejoin:miter;stroke-opacity:1"
             d="m 134.75104,199.43119 c -1.27024,-5.44478 -3.68311,-7.36039 -3.68311,-7.36039 0,0 -3.18064,6.26134 -0.1297,8.07132 3.05093,1.80999 3.81281,-0.71093 3.81281,-0.71093 z"
             id="path3115" />
        </g>
      </g>
    </clipPath>
    
    
    
    
    
    
    
    
    
    <clipPath
       clipPathUnits="userSpaceOnUse"
       id="clipPath3206">
      <g
         id="g3234"
         transform="translate(-1.1e-5)">
        <path
           style="fill:#abc837;fill-opacity:1;stroke:#abc837;stroke-width:0.24086px;stroke-linecap:butt;stroke-linejoin:miter;stroke-opacity:1"
           d="m 80.256749,201.75223 c -11.046121,-12.98971 -20.324488,-7.27383 -21.165236,-7.17697 -0.84075,0.0968 -0.842398,2.51019 -9.49469,2.64816 -8.652288,0.13797 -14.070719,0.43511 -15.960345,4.27334 -1.889626,3.83823 6.459379,6.45043 12.296211,7.20498 5.836828,0.75453 11.038548,-2.7037 19.327234,-1.33444 8.288688,1.36926 12.828148,-0.41427 13.665439,-1.21212 0.837289,-0.79786 1.331387,-4.40295 1.331387,-4.40295 z"
           id="path3208"
           sodipodi:nodetypes="cssssssc" />
        <path
           style="fill:#abc837;fill-opacity:1;stroke:#abc837;stroke-width:0.264583px;stroke-linecap:butt;stroke-linejoin:miter;stroke-opacity:1"
           d="m 75.638039,202.17869 c 4.34146,3.85089 3.4885,5.98166 3.4885,5.98166 0,0 -5.515523,-2.50853 -5.760579,-3.85182 -0.244659,-1.34325 2.272079,-2.12984 2.272079,-2.12984 z"
           id="path3210" />
        <path
           style="fill:#abc837;fill-opacity:1;stroke:#abc837;stroke-width:0.264583px;stroke-linecap:butt;stroke-linejoin:miter;stroke-opacity:1"
           d="m 72.354026,204.85237 c 3.278265,4.51475 2.741598,6.25432 2.741598,6.25432 0,0 -4.605926,-1.47818 -4.713277,-3.11648 -0.107352,-1.63832 1.97169,-3.13785 1.97169,-3.13785 z"
           id="path3212" />
        <path
           style="fill:#abc837;fill-opacity:1;stroke:#abc837;stroke-width:0.264583px;stroke-linecap:butt;stroke-linejoin:miter;stroke-opacity:1"
           d="m 66.367883,204.58644 c -2.40557,5.1061 -8.28832,7.1262 -8.28832,7.1262 0,0 4.50868,-13.08571 6.38613,-12.16466 1.87746,0.92106 1.90219,5.03846 1.90219,5.03846 z"
           id="path3214" />
        <path
           style="fill:#abc837;fill-opacity:1;stroke:#abc837;stroke-width:0.264583px;stroke-linecap:butt;stroke-linejoin:miter;stroke-opacity:1"
           d="m 40.592797,207.76139 c 0.868262,4.91629 3.238156,7.27388 3.238156,7.27388 0.52152,-0.84607 1.38948,-6.2014 0.32706,-6.73806 -2.736154,-1.38202 -3.565214,-0.53583 -3.565214,-0.53583 z"
           id="path3216"
           sodipodi:nodetypes="ccsc" />
        <path
           style="fill:#abc837;fill-opacity:1;stroke:#abc837;stroke-width:0.264583px;stroke-linecap:butt;stroke-linejoin:miter;stroke-opacity:1"
           d="m 44.636263,208.21545 c 3.93873,3.08265 7.99147,1.75911 7.99147,1.75911 0,0 -3.58957,-2.67376 -6.38995,-3.82361 -2.80036,-1.14984 -1.60155,2.06451 -1.60155,2.06451 z"
           id="path3218" />
        <path
           style="fill:#abc837;fill-opacity:1;stroke:#abc837;stroke-width:0.264583px;stroke-linecap:butt;stroke-linejoin:miter;stroke-opacity:1"
           d="m 56.565645,197.97908 c -5.232263,0.97228 -5.503567,-6.16643 -5.503567,-6.16643 0,0 10.625708,9.82267 12.705204,9.84902 2.079526,0.0263 -7.201626,-3.68259 -7.201626,-3.68259 z"
           id="path3220" />
        <path
           style="fill:#abc837;fill-opacity:1;stroke:#abc837;stroke-width:0.264583px;stroke-linecap:butt;stroke-linejoin:miter;stroke-opacity:1"
           d="m 43.011888,202.45352 c -1.410773,-5.46522 1.825062,-10.77719 1.825062,-10.77719 0,0 4.889737,12.94813 2.856895,13.43873 -2.032852,0.49059 -4.681952,-2.66155 -4.681952,-2.66155 z"
           id="path3222" />
        <path
           style="fill:#abc837;fill-opacity:1;stroke:#abc837;stroke-width:0.264583px;stroke-linecap:butt;stroke-linejoin:miter;stroke-opacity:1"
           d="m 43.011893,202.45351 c -7.735685,-7.07923 -8.87604,-5.92494 -8.87604,-5.92494 0,0 3.399563,9.30096 6.281073,8.13032 2.881514,-1.17063 2.595013,-2.20536 2.595013,-2.20536 z"
           id="path3224" />
        <path
           style="fill:#abc837;fill-opacity:1;stroke:#abc837;stroke-width:0.264583px;stroke-linecap:butt;stroke-linejoin:miter;stroke-opacity:1"
           d="m 31.80504,201.43423 c -4.37518,1.29193 -4.025846,2.94381 -4.025846,2.94381 0,0 4.180448,0.0748 5.541022,-1.58386 1.360601,-1.65857 -1.515191,-1.35992 -1.515191,-1.35992 z"
           id="path3226" />
        <path
           style="fill:#abc837;fill-opacity:1;stroke:#abc837;stroke-width:0.264583px;stroke-linecap:butt;stroke-linejoin:miter;stroke-opacity:1"
           d="m 39.953652,204.31397 c -4.99954,0.14416 -7.27227,3.75123 -7.27227,3.75123 0,0 4.4697,-0.23571 7.35879,-1.13979 2.88911,-0.90409 -0.0865,-2.61144 -0.0865,-2.61144 z"
           id="path3228" />
        <path
           style="fill:#abc837;fill-opacity:1;stroke:#abc837;stroke-width:0.264583px;stroke-linecap:butt;stroke-linejoin:miter;stroke-opacity:1"
           d="m 80.256749,201.75223 c -1.23249,-2.95775 1.45143,-4.76236 1.45143,-4.76236 0,0 0.9439,3.76666 -0.43285,4.91773 -1.37675,1.15107 -1.01858,-0.15537 -1.01858,-0.15537 z"
           id="path3230" />
        <path
           style="fill:#abc837;fill-opacity:1;stroke:#abc837;stroke-width:0.264583px;stroke-linecap:butt;stroke-linejoin:miter;stroke-opacity:1"
           d="m 80.256749,201.75223 c 3.26842,-2.09758 7.407235,-1.26114 7.407235,-1.26114 0,0 -7.577735,4.33598 -10.229895,3.61978 -2.65216,-0.71619 2.82266,-2.35864 2.82266,-2.35864 z"
           id="path3232" />
      </g>
    </clipPath>
</svg>
