<?xml version="1.0" encoding="UTF-8" standalone="no"?>
<svg
   xmlns:dc="http://purl.org/dc/elements/1.1/"
   xmlns:cc="http://creativecommons.org/ns#"
   xmlns:rdf="http://www.w3.org/1999/02/22-rdf-syntax-ns#"
   xmlns:svg="http://www.w3.org/2000/svg"
   xmlns="http://www.w3.org/2000/svg"
   xmlns:sodipodi="http://sodipodi.sourceforge.net/DTD/sodipodi-0.dtd"
   xmlns:inkscape="http://www.inkscape.org/namespaces/inkscape"
   width="51mm"
   height="250mm"
   viewBox="0 0 51 250"
   version="1.1"
   id="svg8"
   inkscape:version="1.0.1 (1.0.1+r74)"
   sodipodi:docname="book2.svg">
  <defs
     id="defs2">
    <inkscape:path-effect
       effect="dashed_stroke"
       id="path-effect1440"
       is_visible="true"
       lpeversion="1"
       numberdashes="7"
       holefactor="0"
       splitsegments="true"
       halfextreme="true"
       unifysegment="true"
       message="Add &lt;b&gt;&quot;Fill Between Many LPE&quot;&lt;/b&gt; to add fill." />
    <inkscape:path-effect
       effect="dashed_stroke"
       id="path-effect1438"
       is_visible="true"
       lpeversion="1"
       numberdashes="8"
       holefactor="0"
       splitsegments="true"
       halfextreme="true"
       unifysegment="true"
       message="Add &lt;b&gt;&quot;Fill Between Many LPE&quot;&lt;/b&gt; to add fill." />
    <inkscape:path-effect
       effect="dashed_stroke"
       id="path-effect1420"
       is_visible="true"
       lpeversion="1"
       numberdashes="7"
       holefactor="0"
       splitsegments="true"
       halfextreme="true"
       unifysegment="true"
       message="Add &lt;b&gt;&quot;Fill Between Many LPE&quot;&lt;/b&gt; to add fill." />
    <inkscape:path-effect
       effect="dashed_stroke"
       id="path-effect1418"
       is_visible="true"
       lpeversion="1"
       numberdashes="8"
       holefactor="0"
       splitsegments="true"
       halfextreme="true"
       unifysegment="true"
       message="Add &lt;b&gt;&quot;Fill Between Many LPE&quot;&lt;/b&gt; to add fill." />
    <inkscape:path-effect
       effect="dashed_stroke"
       id="path-effect1400"
       is_visible="true"
       lpeversion="1"
       numberdashes="7"
       holefactor="0"
       splitsegments="true"
       halfextreme="true"
       unifysegment="true"
       message="Add &lt;b&gt;&quot;Fill Between Many LPE&quot;&lt;/b&gt; to add fill." />
    <inkscape:path-effect
       effect="dashed_stroke"
       id="path-effect1398"
       is_visible="true"
       lpeversion="1"
       numberdashes="8"
       holefactor="0"
       splitsegments="true"
       halfextreme="true"
       unifysegment="true"
       message="Add &lt;b&gt;&quot;Fill Between Many LPE&quot;&lt;/b&gt; to add fill." />
    <inkscape:path-effect
       effect="dashed_stroke"
       id="path-effect1344"
       is_visible="true"
       lpeversion="1"
       numberdashes="8"
       holefactor="0"
       splitsegments="true"
       halfextreme="true"
       unifysegment="true"
       message="Add &lt;b&gt;&quot;Fill Between Many LPE&quot;&lt;/b&gt; to add fill." />
    <inkscape:path-effect
       effect="dashed_stroke"
       id="path-effect1340"
       is_visible="true"
       lpeversion="1"
       numberdashes="7"
       holefactor="0"
       splitsegments="true"
       halfextreme="true"
       unifysegment="true"
       message="Add &lt;b&gt;&quot;Fill Between Many LPE&quot;&lt;/b&gt; to add fill." />
    <rect
       x="114.21791"
       y="42.796665"
       width="38.826015"
       height="219.68582"
       id="rect2944" />
  </defs>
  <sodipodi:namedview
     id="base"
     pagecolor="#ffffff"
     bordercolor="#666666"
     borderopacity="1.0"
     inkscape:pageopacity="0.0"
     inkscape:pageshadow="2"
     inkscape:zoom="0.22392792"
     inkscape:cx="69.070369"
     inkscape:cy="320.93257"
     inkscape:document-units="mm"
     inkscape:current-layer="layer1"
     inkscape:document-rotation="0"
     showgrid="false"
     inkscape:window-width="1294"
     inkscape:window-height="704"
     inkscape:window-x="72"
     inkscape:window-y="27"
     inkscape:window-maximized="1" />
  <metadata
     id="metadata5">
    <rdf:RDF>
      <cc:Work
         rdf:about="">
        <dc:format>image/svg+xml</dc:format>
        <dc:type
           rdf:resource="http://purl.org/dc/dcmitype/StillImage" />
        <dc:title />
      </cc:Work>
    </rdf:RDF>
  </metadata>
  <g
     inkscape:label="Layer 1"
     inkscape:groupmode="layer"
     id="layer1">
    <rect
       style="fill:#402115;fill-opacity:1;stroke:#000000;stroke-width:1;stroke-miterlimit:4;stroke-dasharray:none;stroke-opacity:0.931284"
       id="rect833"
       width="49.266842"
       height="249.17326"
       x="1.4431231"
       y="1.3273466"
       ry="6.7916794" />
    <rect
       style="fill:#6a3d2a;fill-opacity:1;stroke:#dac68c;stroke-width:0;stroke-miterlimit:4;stroke-dasharray:none;stroke-opacity:1"
       id="rect2948"
       width="39.590946"
       height="247.72743"
       x="6.3046308"
       y="1.7617357" />
    <text
       xml:space="preserve"
       id="text2942"
       style="font-style:normal;font-weight:normal;font-size:10.5833px;line-height:1.25;font-family:sans-serif;white-space:pre;shape-inside:url(#rect2944);fill:#7a4027;fill-opacity:1;stroke:none;" />
    <rect
       style="fill:#d03b36;fill-opacity:1;stroke:#edb975;stroke-width:0.776179;stroke-miterlimit:4;stroke-dasharray:none;stroke-opacity:0.929412"
       id="rect1336"
       width="40.086739"
       height="30.680721"
       x="5.8104572"
       y="46.60326" />
    <path
       style="fill:none;fill-opacity:1;stroke:#edb975;stroke-width:1.754;stroke-miterlimit:4;stroke-dasharray:none;stroke-opacity:0.929412"
       id="path1338"
       sodipodi:type="arc"
       sodipodi:cx="26.349102"
       sodipodi:cy="101.78424"
       sodipodi:rx="8.2230206"
       sodipodi:ry="8.223031"
       sodipodi:start="4.6886874"
       sodipodi:end="4.6777616"
       sodipodi:open="true"
       sodipodi:arc-type="arc"
       d="m 26.154222,93.563519 c 0.18035,-0.0043 0.359485,-0.0027 0.537222,0.0045 m 1.0679,0.113419 c 0.356137,0.06159 0.704635,0.146168 1.043866,0.252176 m 1.001735,0.387012 c 0.326189,0.151332 0.640941,0.323461 0.94251,0.514727 m 0.867535,0.632983 c 0.275119,0.229566 0.535102,0.476831 0.778165,0.740101 m 0.675661,0.834726 c 0.206138,0.291605 0.393824,0.597337 0.561311,0.915532 m 0.436724,0.981083 c 0.122875,0.333492 0.224808,0.677315 0.304169,1.029917 m 0.166791,1.060872 c 0.01613,0.17715 0.02667,0.35598 0.03144,0.53632 0.0048,0.18033 0.0037,0.35947 -0.0031,0.53723 m -0.1105,1.0682 c -0.06062,0.35631 -0.144242,0.70504 -0.249323,1.04456 m -0.384273,1.00279 c -0.15044,0.3266 -0.321709,0.64182 -0.51215,0.94391 m -0.630609,0.86926 c -0.228813,0.27575 -0.475367,0.5364 -0.737971,0.78019 m -0.832876,0.67794 c -0.291042,0.20693 -0.596259,0.39545 -0.913995,0.56381 m -0.979886,0.4394 c -0.333155,0.12379 -0.676698,0.22666 -1.029082,0.30698 m -1.060415,0.16969 c -0.177104,0.0166 -0.355904,0.0276 -0.536226,0.0329 -0.180324,0.005 -0.359465,0.005 -0.537239,-0.002 m -1.068503,-0.10759 c -0.356468,-0.0596 -0.705424,-0.14231 -1.045228,-0.24647 m -1.003835,-0.38153 c -0.32701,-0.14955 -0.642698,-0.31996 -0.945308,-0.50957 m -0.870979,-0.62824 c -0.27637,-0.22805 -0.537699,-0.4739 -0.782197,-0.73583 m -0.680211,-0.83103 c -0.207728,-0.29047 -0.397081,-0.59517 -0.566304,-0.91245 m -0.442077,-0.97868 c -0.124695,-0.33282 -0.228504,-0.67608 -0.309791,-1.02824 m -0.172584,-1.05995 c -0.0171,-0.17706 -0.02862,-0.35583 -0.03437,-0.53613 -0.0058,-0.18031 -0.0057,-0.35945 1.21e-4,-0.53724 m 0.104663,-1.0688 c 0.05867,-0.35663 0.140389,-0.705807 0.243613,-1.045895 m 0.37879,-1.004874 c 0.148653,-0.327417 0.318197,-0.64357 0.506985,-0.946696 m 0.625851,-0.872694 c 0.227304,-0.276992 0.472429,-0.538992 0.733698,-0.784205 m 0.82916,-0.68248 c 0.289907,-0.208521 0.594089,-0.398706 0.910901,-0.568796 m 0.977471,-0.44475 c 0.332474,-0.125603 0.67545,-0.230351 1.02739,-0.312599 m 1.059472,-0.175479 c 0.177011,-0.01758 0.355748,-0.02959 0.536038,-0.03583"
       inkscape:path-effect="#path-effect1340" />
    <path
       style="fill:none;fill-opacity:1;stroke:#edb975;stroke-width:1.066;stroke-miterlimit:4;stroke-dasharray:none;stroke-opacity:0.929412"
       id="rect1342"
       width="8.807456"
       height="8.6320686"
       x="86.120705"
       y="49.151482"
       transform="matrix(0.70787638,0.70633634,-0.70787638,0.70633634,0,0)"
       inkscape:path-effect="#path-effect1344"
       d="m 86.120705,49.45977 v -0.308288 h 0.314552 m 0.629104,0 0.629104,0 m 0.629104,0 h 0.629104 m 0.629104,0 h 0.629104 m 0.629104,0 h 0.629104 m 0.629104,0 h 0.629104 m 0.629104,0 h 0.629104 m 0.629104,0 h 0.314552 v 0.308288 m 0,0.616576 v 0.616576 m 0,0.616577 v 0.616576 m 0,0.616576 v 0.616577 m 0,0.616576 v 0.616576 m 0,0.616577 v 0.616576 m 0,0.616576 v 0.616577 m 0,0.616576 v 0.308288 h -0.314552 m -0.629104,0 h -0.629104 m -0.629104,0 h -0.629104 m -0.629104,0 h -0.629104 m -0.629104,0 h -0.629104 m -0.629104,0 h -0.629104 m -0.629104,0 h -0.629104 m -0.629104,0 h -0.314552 v -0.308288 m 0,-0.616576 0,-0.616577 m 0,-0.616576 v -0.616576 m 0,-0.616577 v -0.616576 m 0,-0.616576 v -0.616577 m 0,-0.616576 v -0.616576 m 0,-0.616577 v -0.616576 m 0,-0.616576 v -0.308288"
       sodipodi:type="rect" />
    <rect
       style="fill:#edb975;fill-opacity:0.929412;fill-rule:nonzero;stroke:#edb975;stroke-width:1.27636;stroke-miterlimit:4;stroke-dasharray:none;stroke-opacity:0.929412"
       id="rect1346"
       width="5.0513115"
       height="4.7507472"
       x="-93.171013"
       y="-56.304108"
       transform="matrix(-0.71145488,-0.70273178,0.71145488,-0.70273178,0,0)" />
    <path
       id="path1350"
       style="fill:#6a3d2a;fill-opacity:1;fill-rule:nonzero;stroke:#6a3d2a;stroke-width:1.06922;stroke-miterlimit:4;stroke-dasharray:none;stroke-opacity:1"
       inkscape:transform-center-x="0.18628791"
       inkscape:transform-center-y="-0.007749194"
       d="m 26.559656,102.34677 -0.354953,-0.46206 -0.373695,0.46205 0.09394,-0.56615 -0.539128,0.0947 0.418027,-0.35083 -0.430623,-0.27583 0.539152,0.0177 -0.114705,-0.5023 0.389295,0.39337 0.367578,-0.42482 -0.08778,0.52892 0.550483,-0.072 -0.429381,0.32818 0.457996,0.30174 -0.566533,-0.0435 z"
       sodipodi:nodetypes="ccccccccccccccccc" />
    <path
       style="fill:#6a3d2a;fill-opacity:1;fill-rule:nonzero;stroke:#edb975;stroke-width:0.236597;stroke-miterlimit:4;stroke-dasharray:none;stroke-opacity:0.929412"
       id="path1363"
       sodipodi:type="arc"
       sodipodi:cx="26.161522"
       sodipodi:cy="101.47338"
       sodipodi:rx="0.58169222"
       sodipodi:ry="0.58169842"
       sodipodi:start="4.6886874"
       sodipodi:end="4.6777616"
       sodipodi:open="true"
       sodipodi:arc-type="arc"
       d="m 26.147736,100.89185 a 0.58169222,0.58169842 0 0 1 0.595275,0.56616 0.58169222,0.58169842 0 0 1 -0.564527,0.59682 0.58169222,0.58169842 0 0 1 -0.598358,-0.5629 0.58169222,0.58169842 0 0 1 0.561257,-0.5999" />
    <path
       style="fill:none;fill-opacity:1;stroke:#edb975;stroke-width:1.754;stroke-miterlimit:4;stroke-dasharray:none;stroke-opacity:0.929412"
       id="path1338-3"
       sodipodi:type="arc"
       sodipodi:cx="26.348816"
       sodipodi:cy="25.85718"
       sodipodi:rx="8.2230206"
       sodipodi:ry="8.223031"
       sodipodi:start="4.6886874"
       sodipodi:end="4.6777616"
       sodipodi:open="true"
       sodipodi:arc-type="arc"
       d="m 26.153936,17.636458 c 0.18035,-0.0043 0.359485,-0.0027 0.537222,0.0045 m 1.0679,0.113419 c 0.356136,0.06159 0.704635,0.146167 1.043865,0.252176 m 1.001736,0.387012 c 0.326188,0.151332 0.640941,0.323461 0.94251,0.514727 m 0.867535,0.632983 c 0.275119,0.229566 0.535101,0.476831 0.778165,0.740101 m 0.675661,0.834725 c 0.206138,0.291606 0.393823,0.597338 0.561311,0.915533 m 0.436724,0.981083 c 0.122875,0.333492 0.224808,0.677315 0.304169,1.029917 m 0.166791,1.060874 c 0.01613,0.17715 0.02667,0.355979 0.03144,0.536314 0.0048,0.180339 0.0037,0.359477 -0.0031,0.537233 m -0.110501,1.068206 c -0.06062,0.356303 -0.144241,0.705032 -0.249322,1.044551 m -0.384274,1.002789 c -0.150439,0.326601 -0.321708,0.641822 -0.512149,0.943913 m -0.63061,0.869262 c -0.228812,0.275746 -0.475366,0.536403 -0.737971,0.780186 m -0.832875,0.67794 c -0.291042,0.206933 -0.596259,0.395454 -0.913995,0.56381 m -0.979886,0.439404 c -0.333155,0.123786 -0.676698,0.226658 -1.029082,0.306982 m -1.060415,0.169689 c -0.177105,0.01662 -0.355904,0.02764 -0.536226,0.0329 -0.180324,0.0053 -0.359465,0.0047 -0.537239,-0.0016 M 24.98286,33.967543 c -0.356468,-0.05965 -0.705424,-0.142317 -1.045228,-0.24647 m -1.003835,-0.381534 c -0.32701,-0.149548 -0.642698,-0.319955 -0.945308,-0.509571 m -0.87098,-0.628234 c -0.276369,-0.22806 -0.537698,-0.473901 -0.782196,-0.735839 m -0.680211,-0.831022 c -0.207728,-0.290475 -0.397081,-0.595177 -0.566304,-0.912452 m -0.442077,-0.978683 c -0.124695,-0.332816 -0.228505,-0.676076 -0.309791,-1.02824 m -0.172584,-1.059947 c -0.0171,-0.177059 -0.02861,-0.355828 -0.03437,-0.536135 -0.0058,-0.180309 -0.0057,-0.359451 1.21e-4,-0.537241 m 0.104663,-1.068793 c 0.05867,-0.35663 0.140389,-0.70581 0.243613,-1.045898 m 0.37879,-1.004874 c 0.148653,-0.327417 0.318197,-0.64357 0.506985,-0.946697 m 0.625851,-0.872693 c 0.227303,-0.276992 0.472429,-0.538992 0.733698,-0.784205 m 0.82916,-0.68248 c 0.289907,-0.208521 0.594089,-0.398706 0.910901,-0.568796 m 0.977471,-0.44475 c 0.332474,-0.125604 0.67545,-0.230351 1.02739,-0.312599 m 1.059472,-0.175479 c 0.177011,-0.01758 0.355747,-0.02959 0.536038,-0.03583"
       inkscape:path-effect="#path-effect1400" />
    <path
       style="fill:none;fill-opacity:1;stroke:#edb975;stroke-width:1.066;stroke-miterlimit:4;stroke-dasharray:none;stroke-opacity:0.929412"
       id="rect1342-6"
       width="8.807456"
       height="8.6320686"
       x="32.373405"
       y="-4.5954137"
       transform="matrix(0.70787638,0.70633635,-0.70787638,0.70633635,0,0)"
       inkscape:path-effect="#path-effect1398"
       d="m 32.373405,-4.2871255 v -0.3082882 h 0.314552 m 0.629104,0 h 0.629104 m 0.629104,0 h 0.629104 m 0.629104,0 h 0.629104 m 0.629104,0 h 0.629104 m 0.629104,0 h 0.629104 m 0.629104,0 h 0.629104 m 0.629104,0 h 0.314552 v 0.3082882 m 0,0.6165763 0,0.6165763 m 0,0.6165764 v 0.6165763 m 0,0.6165763 v 0.61657637 m 0,0.61657633 v 0.61657633 m 0,0.61657637 v 0.6165763 m 0,0.6165763 v 0.6165764 m 0,0.6165763 v 0.3082881 h -0.314552 m -0.629104,0 h -0.629104 m -0.629104,0 h -0.629104 m -0.629104,0 h -0.629104 m -0.629104,0 h -0.629104 m -0.629104,0 h -0.629104 m -0.629104,0 h -0.629104 m -0.629104,0 H 32.373405 V 3.7283668 m 0,-0.6165763 V 2.4952141 m 0,-0.6165763 V 1.2620615 m 0,-0.61657637 V 0.0289088 m 0,-0.61657633 V -1.2042439 m 0,-0.6165763 v -0.6165763 m 0,-0.6165764 v -0.6165763 m 0,-0.6165763 v -0.3082882"
       sodipodi:type="rect" />
    <rect
       style="fill:#edb975;fill-opacity:0.929412;fill-rule:nonzero;stroke:#edb975;stroke-width:1.27636;stroke-miterlimit:4;stroke-dasharray:none;stroke-opacity:0.929412"
       id="rect1346-7"
       width="5.051311"
       height="4.7507472"
       x="-39.148022"
       y="-2.2815228"
       transform="matrix(-0.71145488,-0.70273178,0.71145488,-0.70273178,0,0)" />
    <path
       id="path1350-5"
       style="fill:#6a3d2a;fill-opacity:1;fill-rule:nonzero;stroke:#6a3d2a;stroke-width:1.06922;stroke-miterlimit:4;stroke-dasharray:none;stroke-opacity:1"
       inkscape:transform-center-x="0.18628791"
       inkscape:transform-center-y="-0.007749194"
       d="m 26.55937,26.419713 -0.354953,-0.46206 -0.373695,0.46205 0.09394,-0.56615 -0.539128,0.0947 0.418027,-0.35083 -0.430623,-0.27583 0.539151,0.0177 -0.114704,-0.502301 0.389295,0.393371 0.367578,-0.424821 -0.08778,0.528921 0.550483,-0.072 -0.429381,0.328179 0.457996,0.301741 -0.566533,-0.0435 z"
       sodipodi:nodetypes="ccccccccccccccccc" />
    <path
       style="fill:#6a3d2a;fill-opacity:1;fill-rule:nonzero;stroke:#edb975;stroke-width:0.236597;stroke-miterlimit:4;stroke-dasharray:none;stroke-opacity:0.929412"
       id="path1363-3"
       sodipodi:type="arc"
       sodipodi:cx="26.161236"
       sodipodi:cy="25.54632"
       sodipodi:rx="0.58169222"
       sodipodi:ry="0.58169842"
       sodipodi:start="4.6886874"
       sodipodi:end="4.6777616"
       sodipodi:open="true"
       sodipodi:arc-type="arc"
       d="m 26.14745,24.964785 a 0.58169222,0.58169842 0 0 1 0.595275,0.566161 0.58169222,0.58169842 0 0 1 -0.564527,0.596825 0.58169222,0.58169842 0 0 1 -0.598359,-0.5629 0.58169222,0.58169842 0 0 1 0.561258,-0.599901" />
    <path
       style="fill:none;fill-opacity:1;stroke:#edb975;stroke-width:1.754;stroke-miterlimit:4;stroke-dasharray:none;stroke-opacity:0.929412"
       id="path1338-5"
       sodipodi:type="arc"
       sodipodi:cx="26.349102"
       sodipodi:cy="154.84474"
       sodipodi:rx="8.2230206"
       sodipodi:ry="8.223031"
       sodipodi:start="4.6886874"
       sodipodi:end="4.6777616"
       sodipodi:open="true"
       sodipodi:arc-type="arc"
       d="m 26.154222,146.62402 c 0.18035,-0.004 0.359485,-0.003 0.537222,0.005 m 1.0679,0.11342 c 0.356137,0.0616 0.704635,0.14617 1.043866,0.25218 m 1.001735,0.38701 c 0.326189,0.15133 0.640941,0.32346 0.94251,0.51473 m 0.867535,0.63298 c 0.275119,0.22957 0.535102,0.47683 0.778165,0.7401 m 0.675661,0.83473 c 0.206138,0.2916 0.393824,0.59733 0.561311,0.91553 m 0.436724,0.98108 c 0.122875,0.33349 0.224808,0.67732 0.304169,1.02992 m 0.166791,1.06087 c 0.01613,0.17715 0.02667,0.35598 0.03144,0.53632 0.0048,0.18034 0.0037,0.35947 -0.0031,0.53723 m -0.1105,1.06821 c -0.06062,0.3563 -0.144242,0.70503 -0.249323,1.04455 m -0.384273,1.00279 c -0.15044,0.3266 -0.321709,0.64182 -0.51215,0.94391 m -0.630609,0.86926 c -0.228813,0.27575 -0.475367,0.5364 -0.737971,0.78019 m -0.832876,0.67794 c -0.291042,0.20693 -0.596259,0.39545 -0.913995,0.56381 m -0.979886,0.4394 c -0.333155,0.12379 -0.676698,0.22666 -1.029082,0.30698 m -1.060415,0.16969 c -0.177104,0.0166 -0.355904,0.0276 -0.536226,0.0329 -0.180324,0.005 -0.359465,0.005 -0.537239,-0.002 m -1.068503,-0.10759 c -0.356468,-0.0596 -0.705424,-0.14231 -1.045228,-0.24647 m -1.003835,-0.38153 c -0.32701,-0.14955 -0.642698,-0.31995 -0.945308,-0.50957 m -0.870979,-0.62823 c -0.27637,-0.22806 -0.537699,-0.4739 -0.782197,-0.73584 m -0.680211,-0.83102 c -0.207728,-0.29048 -0.397081,-0.59518 -0.566304,-0.91246 m -0.442077,-0.97868 c -0.124695,-0.33282 -0.228504,-0.67608 -0.309791,-1.02824 m -0.172584,-1.05995 c -0.0171,-0.17706 -0.02862,-0.35582 -0.03437,-0.53613 -0.0058,-0.18031 -0.0057,-0.35945 1.21e-4,-0.53724 m 0.104663,-1.0688 c 0.05867,-0.35663 0.140389,-0.70581 0.243613,-1.04589 m 0.37879,-1.00488 c 0.148653,-0.32742 0.318197,-0.64357 0.506985,-0.94669 m 0.625851,-0.8727 c 0.227304,-0.27699 0.472429,-0.53899 0.733698,-0.7842 m 0.82916,-0.68248 c 0.289907,-0.20852 0.594089,-0.39871 0.910901,-0.5688 m 0.977471,-0.44475 c 0.332474,-0.1256 0.67545,-0.23035 1.02739,-0.3126 m 1.059472,-0.17548 c 0.177011,-0.0176 0.355748,-0.0296 0.536038,-0.0358"
       inkscape:path-effect="#path-effect1420" />
    <path
       style="fill:none;fill-opacity:1;stroke:#edb975;stroke-width:1.066;stroke-miterlimit:4;stroke-dasharray:none;stroke-opacity:0.929412"
       id="rect1342-62"
       width="8.807456"
       height="8.6320686"
       x="123.68109"
       y="86.711845"
       transform="matrix(0.70787638,0.70633635,-0.70787638,0.70633635,0,0)"
       inkscape:path-effect="#path-effect1418"
       d="m 123.68109,87.020134 v -0.308289 h 0.31455 m 0.62911,0 h 0.6291 m 0.62911,0 h 0.6291 m 0.6291,0 h 0.62911 m 0.6291,0 h 0.62911 m 0.6291,0 h 0.6291 m 0.62911,0 h 0.6291 m 0.62911,0 h 0.31455 v 0.308289 m 0,0.616576 v 0.616576 m 0,0.616577 v 0.616576 m 0,0.616576 v 0.616577 m 0,0.616576 v 0.616576 m 0,0.616577 v 0.616576 m 0,0.616576 v 0.616577 m 0,0.616576 v 0.308288 H 132.174 m -0.62911,0 h -0.6291 m -0.62911,0 h -0.6291 m -0.6291,0 h -0.62911 m -0.6291,0 h -0.62911 m -0.6291,0 h -0.6291 m -0.62911,0 h -0.6291 m -0.62911,0 h -0.31455 v -0.308288 m 0,-0.616576 v -0.616577 m 0,-0.616576 v -0.616576 m 0,-0.616577 v -0.616576 m 0,-0.616576 v -0.616577 m 0,-0.616576 v -0.616576 m 0,-0.616577 V 87.63671 m 0,-0.616576 v -0.308289"
       sodipodi:type="rect" />
    <rect
       style="fill:#edb975;fill-opacity:0.929412;fill-rule:nonzero;stroke:#edb975;stroke-width:1.27636;stroke-miterlimit:4;stroke-dasharray:none;stroke-opacity:0.929412"
       id="rect1346-9"
       width="5.051311"
       height="4.7507472"
       x="-130.92404"
       y="-94.057137"
       transform="matrix(-0.71145488,-0.70273178,0.71145488,-0.70273178,0,0)" />
    <path
       id="path1350-1"
       style="fill:#6a3d2a;fill-opacity:1;fill-rule:nonzero;stroke:#6a3d2a;stroke-width:1.06922;stroke-miterlimit:4;stroke-dasharray:none;stroke-opacity:1"
       inkscape:transform-center-x="0.18628791"
       inkscape:transform-center-y="-0.007749194"
       d="m 26.559658,155.40728 -0.35496,-0.46206 -0.373693,0.46205 0.09394,-0.56615 -0.539128,0.0947 0.418027,-0.35083 -0.430623,-0.27583 0.539152,0.0177 -0.114705,-0.5023 0.3893,0.39337 0.36757,-0.42482 -0.0878,0.52892 0.55049,-0.072 -0.42938,0.32818 0.45799,0.30174 -0.56653,-0.0435 z"
       sodipodi:nodetypes="ccccccccccccccccc" />
    <path
       style="fill:#6a3d2a;fill-opacity:1;fill-rule:nonzero;stroke:#edb975;stroke-width:0.236597;stroke-miterlimit:4;stroke-dasharray:none;stroke-opacity:0.929412"
       id="path1363-2"
       sodipodi:type="arc"
       sodipodi:cx="26.161518"
       sodipodi:cy="154.53389"
       sodipodi:rx="0.58169222"
       sodipodi:ry="0.58169842"
       sodipodi:start="4.6886874"
       sodipodi:end="4.6777616"
       sodipodi:open="true"
       sodipodi:arc-type="arc"
       d="m 26.147732,153.95235 a 0.58169222,0.58169842 0 0 1 0.595275,0.56617 0.58169222,0.58169842 0 0 1 -0.564527,0.59682 0.58169222,0.58169842 0 0 1 -0.598358,-0.5629 0.58169222,0.58169842 0 0 1 0.561258,-0.5999" />
    <path
       style="fill:none;fill-opacity:1;stroke:#edb975;stroke-width:1.754;stroke-miterlimit:4;stroke-dasharray:none;stroke-opacity:0.929412"
       id="path1338-7"
       sodipodi:type="arc"
       sodipodi:cx="26.349102"
       sodipodi:cy="207.62698"
       sodipodi:rx="8.2230206"
       sodipodi:ry="8.223031"
       sodipodi:start="4.6886874"
       sodipodi:end="4.6777616"
       sodipodi:open="true"
       sodipodi:arc-type="arc"
       d="m 26.154222,199.40626 c 0.18035,-0.004 0.359485,-0.003 0.537222,0.005 m 1.0679,0.11341 c 0.356137,0.0616 0.704635,0.14617 1.043866,0.25218 m 1.001735,0.38701 c 0.326189,0.15133 0.640941,0.32346 0.94251,0.51473 m 0.867535,0.63298 c 0.275119,0.22957 0.535102,0.47683 0.778165,0.7401 m 0.675661,0.83473 c 0.206138,0.2916 0.393824,0.59734 0.561311,0.91553 m 0.436724,0.98108 c 0.122875,0.3335 0.224808,0.67732 0.304169,1.02992 m 0.166791,1.06088 c 0.01613,0.17714 0.02667,0.35597 0.03144,0.53631 0.0048,0.18034 0.0037,0.35948 -0.0031,0.53723 m -0.1105,1.06821 c -0.06062,0.3563 -0.144242,0.70503 -0.249323,1.04455 m -0.384273,1.00279 c -0.15044,0.3266 -0.321709,0.64182 -0.51215,0.94391 m -0.630609,0.86926 c -0.228813,0.27575 -0.475367,0.53641 -0.737971,0.78019 m -0.832876,0.67794 c -0.291042,0.20693 -0.596259,0.39545 -0.913995,0.56381 m -0.979886,0.4394 c -0.333155,0.12379 -0.676698,0.22666 -1.029082,0.30699 m -1.060415,0.16968 c -0.177104,0.0166 -0.355904,0.0276 -0.536226,0.0329 -0.180324,0.005 -0.359465,0.005 -0.537239,-0.002 m -1.068503,-0.10758 c -0.356468,-0.0597 -0.705424,-0.14232 -1.045228,-0.24647 m -1.003835,-0.38154 c -0.32701,-0.14954 -0.642698,-0.31995 -0.945308,-0.50957 m -0.870979,-0.62823 c -0.27637,-0.22806 -0.537699,-0.4739 -0.782197,-0.73584 m -0.680211,-0.83102 c -0.207728,-0.29048 -0.397081,-0.59518 -0.566304,-0.91246 m -0.442077,-0.97868 c -0.124695,-0.33281 -0.228504,-0.67607 -0.309791,-1.02824 m -0.172584,-1.05995 c -0.0171,-0.17705 -0.02862,-0.35582 -0.03437,-0.53613 -0.0058,-0.18031 -0.0057,-0.35945 1.21e-4,-0.53724 m 0.104663,-1.06879 c 0.05867,-0.35663 0.140389,-0.70581 0.243613,-1.0459 m 0.37879,-1.00488 c 0.148653,-0.32741 0.318197,-0.64357 0.506985,-0.94669 m 0.625851,-0.8727 c 0.227304,-0.27699 0.472429,-0.53899 0.733698,-0.7842 m 0.82916,-0.68248 c 0.289907,-0.20852 0.594089,-0.39871 0.910901,-0.5688 m 0.977471,-0.44475 c 0.332474,-0.1256 0.67545,-0.23035 1.02739,-0.3126 m 1.059472,-0.17548 c 0.177011,-0.0176 0.355748,-0.0296 0.536038,-0.0358"
       inkscape:path-effect="#path-effect1440" />
    <path
       style="fill:none;fill-opacity:1;stroke:#edb975;stroke-width:1.066;stroke-miterlimit:4;stroke-dasharray:none;stroke-opacity:0.929412"
       id="rect1342-0"
       width="8.807456"
       height="8.6320686"
       x="161.04448"
       y="124.07524"
       transform="matrix(0.70787638,0.70633635,-0.70787638,0.70633635,0,0)"
       inkscape:path-effect="#path-effect1438"
       d="m 161.04448,124.38353 v -0.30829 h 0.31455 m 0.62911,0 0.6291,0 m 0.6291,0 h 0.62911 m 0.6291,0 0.62911,0 m 0.6291,0 h 0.6291 m 0.62911,0 h 0.6291 m 0.62911,0 h 0.6291 m 0.6291,0 h 0.31456 v 0.30829 m 0,0.61658 0,0.61657 m 0,0.61658 v 0.61657 m 0,0.61658 v 0.61658 m 0,0.61657 v 0.61658 m 0,0.61658 v 0.61657 m 0,0.61658 v 0.61658 m 0,0.61657 v 0.30829 h -0.31456 m -0.6291,0 h -0.6291 m -0.62911,0 h -0.6291 m -0.62911,0 h -0.6291 m -0.6291,0 h -0.62911 m -0.6291,0 h -0.62911 m -0.6291,0 h -0.6291 m -0.62911,0 h -0.31455 v -0.30829 m 0,-0.61657 v -0.61658 m 0,-0.61658 v -0.61657 m 0,-0.61658 v -0.61658 m 0,-0.61657 v -0.61658 m 0,-0.61658 v -0.61657 m 0,-0.61658 v -0.61657 m 0,-0.61658 v -0.30829"
       sodipodi:type="rect" />
    <rect
       style="fill:#edb975;fill-opacity:0.929412;fill-rule:nonzero;stroke:#edb975;stroke-width:1.27636;stroke-miterlimit:4;stroke-dasharray:none;stroke-opacity:0.929412"
       id="rect1346-93"
       width="5.051311"
       height="4.7507472"
       x="-168.4791"
       y="-131.61218"
       transform="matrix(-0.71145488,-0.70273178,0.71145488,-0.70273178,0,0)" />
    <path
       id="path1350-6"
       style="fill:#6a3d2a;fill-opacity:1;fill-rule:nonzero;stroke:#6a3d2a;stroke-width:1.06922;stroke-miterlimit:4;stroke-dasharray:none;stroke-opacity:1"
       inkscape:transform-center-x="0.18628791"
       inkscape:transform-center-y="-0.007749194"
       d="m 26.559664,208.18952 -0.35495,-0.46206 -0.3737,0.46205 0.0939,-0.56615 -0.53913,0.0947 0.41803,-0.35083 -0.43062,-0.27583 0.53915,0.0177 -0.1147,-0.5023 0.38929,0.39337 0.36758,-0.42482 -0.0878,0.52892 0.55048,-0.072 -0.42938,0.32818 0.458,0.30174 -0.56654,-0.0435 z"
       sodipodi:nodetypes="ccccccccccccccccc" />
    <path
       style="fill:#6a3d2a;fill-opacity:1;fill-rule:nonzero;stroke:#edb975;stroke-width:0.236597;stroke-miterlimit:4;stroke-dasharray:none;stroke-opacity:0.929412"
       id="path1363-0"
       sodipodi:type="arc"
       sodipodi:cx="26.161533"
       sodipodi:cy="207.31612"
       sodipodi:rx="0.58169222"
       sodipodi:ry="0.58169842"
       sodipodi:start="4.6886874"
       sodipodi:end="4.6777616"
       sodipodi:open="true"
       sodipodi:arc-type="arc"
       d="m 26.147748,206.73458 a 0.58169222,0.58169842 0 0 1 0.595274,0.56616 0.58169222,0.58169842 0 0 1 -0.564526,0.59683 0.58169222,0.58169842 0 0 1 -0.598359,-0.5629 0.58169222,0.58169842 0 0 1 0.561258,-0.5999" />
  </g>
</svg>
