<?xml version="1.0" encoding="UTF-8" standalone="no"?>
<svg
   xmlns:dc="http://purl.org/dc/elements/1.1/"
   xmlns:cc="http://creativecommons.org/ns#"
   xmlns:rdf="http://www.w3.org/1999/02/22-rdf-syntax-ns#"
   xmlns:svg="http://www.w3.org/2000/svg"
   xmlns="http://www.w3.org/2000/svg"
   xmlns:sodipodi="http://sodipodi.sourceforge.net/DTD/sodipodi-0.dtd"
   xmlns:inkscape="http://www.inkscape.org/namespaces/inkscape"
   height="652.36218"
   id="svg4829"
   inkscape:version="1.0.1 (1.0.1+r74)"
   sodipodi:docname="brain.svg"
   sodipodi:version="0.32"
   width="744.09448"
   version="1.1">
  <metadata
     id="metadata2">
    <rdf:RDF>
      <cc:Work
         rdf:about="">
        <dc:title>Brain</dc:title>
        <dc:description>This is a vectorization of a brain image.</dc:description>
        <dc:subject>
          <rdf:Bag>
            <rdf:li>human</rdf:li>
            <rdf:li>intelligence</rdf:li>
            <rdf:li>thinking</rdf:li>
            <rdf:li>smart</rdf:li>
            <rdf:li>brain</rdf:li>
            <rdf:li>anatomy</rdf:li>
          </rdf:Bag>
        </dc:subject>
        <dc:publisher>
          <cc:Agent
             rdf:about="http://www.openclipart.org/">
            <dc:title>Open Clip Art Library</dc:title>
          </cc:Agent>
        </dc:publisher>
        <dc:creator>
          <cc:Agent>
            <dc:title>Jon Phillips</dc:title>
          </cc:Agent>
        </dc:creator>
        <dc:rights>
          <cc:Agent>
            <dc:title>Jon Phillips</dc:title>
          </cc:Agent>
        </dc:rights>
        <dc:date>2005-08-8</dc:date>
        <dc:format>image/svg+xml</dc:format>
        <dc:type
           rdf:resource="http://purl.org/dc/dcmitype/StillImage" />
        <cc:license
           rdf:resource="http://web.resource.org/cc/PublicDomain" />
        <dc:language>EN</dc:language>
      </cc:Work>
      <cc:License
         rdf:about="http://web.resource.org/cc/PublicDomain">
        <cc:permits
           rdf:resource="http://web.resource.org/cc/Reproduction" />
        <cc:permits
           rdf:resource="http://web.resource.org/cc/Distribution" />
        <cc:permits
           rdf:resource="http://web.resource.org/cc/DerivativeWorks" />
      </cc:License>
    </rdf:RDF>
  </metadata>
  <defs
     id="defs4831" />
  <sodipodi:namedview
     bordercolor="#666666"
     borderopacity="1.0"
     id="base"
     inkscape:current-layer="layer1"
     inkscape:cx="375"
     inkscape:cy="520"
     inkscape:document-units="px"
     inkscape:pageopacity="0.0"
     inkscape:pageshadow="2"
     inkscape:window-height="704"
     inkscape:window-width="1294"
     inkscape:window-x="72"
     inkscape:window-y="27"
     inkscape:zoom="0.35"
     pagecolor="#ffffff"
     inkscape:document-rotation="0"
     showgrid="false"
     inkscape:window-maximized="1" />
  <g
     id="layer1"
     inkscape:groupmode="layer"
     inkscape:label="Layer 1">
    <path
       d="m 471.14843,608.42349 c -3.4215,-1.861 -9.4351,-9.4141 -13.3635,-16.7845 -3.9285,-7.3705 -14.1529,-22.1862 -22.7213,-32.9238 -22.559,-28.2702 -44.2894,-60.7178 -46.8333,-69.9307 -1.5384,-5.5721 -4.253,-8.8325 -8.9861,-10.793 -8.2617,-3.4221 -28.0449,-23.9341 -33.5903,-34.8278 -2.2269,-4.3744 -4.2474,-8.1977 -4.4902,-8.4962 -0.7217,-0.8873 -15.5964,7.1915 -25.7568,13.9891 -16.85814,11.2782 -46.28754,10.4378 -55.75014,-1.592 -2.6298,-3.3433 -8.9321,-6.4949 -16.7263,-8.3648 -10.0803,-2.4182 -15.0904,-5.5132 -25.8248,-15.9538 -10.8855,-10.5874 -13.6124,-14.7938 -14.9281,-23.0276 l -1.6099,-10.0739 -12.9506,1.2824 c -7.123,0.7053 -19.8192,1.9895 -28.2138,2.8537 -9.6766,0.9961 -18.2636,0.5809 -23.4611,-1.1344 -8.4653,-2.7938 -20.1991,-12.126 -20.1991,-16.0649 0,-1.2304 6.7588,-2.9609 15.0196,-3.8456 8.2608,-0.8846 15.0196,-2.377 15.0196,-3.3164 0,-0.9394 -7.8351,-2.3006 -17.4114,-3.0248 -37.158303,-2.8103 -56.607403,-27.2228 -56.491103,-70.9082 0.0656,-24.7014 5.6023,-45.1868 20.3169,-75.1723 7.4839,-15.2507 15.431903,-32.0374 17.661703,-37.3039 4.6039,-10.872 16.8751,-23.3884 37.0793,-37.8194 7.6253,-5.4465 16.306,-12.9024 19.2905,-16.5687 6.4335,-7.9032 29.6303,-23.7391 44.2541,-30.211199 5.719,-2.5311 22.3561,-9.5089 36.9714,-15.5061 14.6152,-5.9973 31.7159,-14.1873 38.0015,-18.2 6.2856,-4.0128 13.5643,-7.329 16.17504,-7.3694 2.6106,-0.0404 6.765,-1.6001 9.232,-3.4661 5.4491,-4.1214 30.7886,-4.5933 39.265,-0.7312 3.2125,1.4638 6.4083,4.4483 7.1015,6.6322 0.9836,3.0996 5.1757,4.3256 19.1077,5.5884 9.8162,0.8897 24.0864,1.5005 31.7118,1.3574 8.5029,-0.1595 19.0382,1.5291 27.2437,4.3667 9.9756,3.4497 14.8637,4.0624 19.2138,2.4086 12.1537,-4.6208 20.8685,-2.7019 32.1762,7.0849 13.3127,11.522 26.5432,18.4254 35.3128,18.4254 9.5356,0 21.9636,9.073399 24.5964,17.957699 1.2159,4.1031 3.1384,7.4601 4.2723,7.4601 6.9476,0 19.0827,8.981 24.8916,18.422 3.6272,5.8946 10.7959,14.0936 15.9308,18.2201 9.1636,7.3641 18.5497,22.0994 18.5497,29.1212 0,1.9569 1.5017,3.5581 3.3371,3.5581 7.2607,0 15.58,11.675 27.9911,39.2821 10.5259,23.4142 12.7687,30.5264 11.8435,37.5572 -0.6278,4.7704 -0.0767,12.1424 1.2247,16.3824 3.1,10.1009 -5.4729,49.8097 -13.4093,62.1093 -7.12,11.0347 -17.1108,16.3069 -27.2847,14.3983 -6.7604,-1.2683 -7.8795,-0.7763 -8.9868,3.9511 -0.6955,2.9699 -0.4781,10.3248 0.4834,16.3442 1.8093,11.3285 -1.9789,43.9402 -6.4325,55.3762 -1.337,3.4332 -5.2962,10.7119 -8.7981,16.175 -7.5877,11.8371 -13.4566,21.981 -16.6189,28.7247 -2.5879,5.5185 -11.3236,12.2559 -23.428,18.0686 -19.075,9.1601 -28.5396,15.2906 -30.9409,20.0408 -2.1867,4.3261 -17.3579,16.272 -28.791,22.6703 -2.8062,1.5704 -2.1381,4.4992 4.0349,17.6905 4.0687,8.6947 8.021,20.3568 8.783,25.9158 1.2416,9.0587 0.7131,10.6848 -5.0937,15.6745 -3.5633,3.062 -8.3119,5.5672 -10.5521,5.5672 -2.24,0 -5.4577,0.4811 -7.1503,1.0691 -1.6926,0.588 -5.8768,-0.4535 -9.2985,-2.3146 z m -4.6274,-22.4393 c -5.189,-11.7557 -11.4831,-24.2935 -13.987,-27.8616 -2.5039,-3.5681 -3.9723,-7.0676 -3.2634,-7.7766 2.0808,-2.0807 13.6006,17.7106 22.1856,38.1149 4.373,10.3936 9.3122,18.8974 10.9759,18.8974 1.6637,0 3.0249,-0.2915 3.0249,-0.6478 0,-1.3844 -16.068,-38.657 -19.6554,-45.5943 -2.0858,-4.0336 -3.2641,-7.8623 -2.618,-8.5082 1.3809,-1.3809 12.327,20.2141 19.846,39.153 2.9011,7.3076 6.7138,13.2866 8.4725,13.2866 4.4592,0 3.9885,-3.9529 -1.3661,-11.4728 -2.5101,-3.5251 -5.6955,-9.4046 -7.0786,-13.0656 -10.3347,-27.3553 -14.0517,-32.8223 -26.4351,-38.8809 -20.9697,-10.2595 -39.0822,-28.8595 -41.1225,-42.2293 -0.3545,-2.3228 -3.5576,-8.0423 -7.118,-12.7101 -3.7484,-4.9147 -6.1941,-10.7264 -5.8102,-13.8078 0.6839,-5.4912 -7.0988,-20.3612 -20.5494,-39.2628 -7.6099,-10.6939 -22.1055,-18.7545 -25.6346,-14.2548 -0.8552,1.0904 -3.9444,4.7187 -6.8649,8.063 -5.03,5.7598 -5.1289,6.5143 -1.8747,14.3024 5.4006,12.9257 20.9822,28.1683 34.9953,34.2341 6.9395,3.0038 12.6347,6.3027 12.6564,7.3309 0.0218,1.0282 -1.0003,1.2267 -2.2712,0.4413 -1.2709,-0.7855 -2.3107,0.5991 -2.3107,3.0768 0,5.6838 23.4766,41.5845 42.3822,64.8111 7.919,9.7293 18.4249,24.4301 23.346,32.6686 18.113,30.3234 23.0806,31.1579 10.075,1.6925 z m 23.0394,-11.1379 c -6.1828,-12.9303 -10.6871,-24.0639 -10.0098,-24.7412 0.6775,-0.6773 5.927,8.5482 11.6656,20.5011 11.4734,23.8966 11.9115,19.8594 0.7136,-6.5738 -5.9619,-14.0734 -7.9708,-16.7526 -12.5615,-16.7526 -3.0058,0 -5.4648,1.0892 -5.4648,2.4204 0,4.9594 23.0341,51.0439 24.9277,49.8734 1.0837,-0.6696 -3.0883,-11.7969 -9.2708,-24.7273 z m -4.1034,-32.188 c 3.1773,-1.0175 4.1769,-1.9537 2.2215,-2.0803 -1.9553,-0.1267 -7.525,-2.2544 -12.3775,-4.7283 -8.7417,-4.4568 -8.7851,-4.4568 -4.7518,0 5.3865,5.952 0.9613,5.7606 -6.7322,-0.2912 -5.897,-4.6385 -6.0885,-4.649 -6.0885,-0.3343 0,6.9984 15.8339,11.2435 27.7285,7.4341 z m 9.8206,-6.1517 c -1.5887,-0.641 -4.1882,-0.641 -5.7768,0 -1.5886,0.641 -0.2889,1.1655 2.8884,1.1655 3.1772,0 4.477,-0.5245 2.8884,-1.1655 z m -45.9372,-20.761 c -3.8947,-8.6089 -4.0563,-8.701 -4.8826,-2.787 -0.47,3.364 0.9578,10.1229 3.1731,15.0197 3.8947,8.6088 4.0562,8.701 4.8825,2.7869 0.47,-3.364 -0.9578,-10.1228 -3.173,-15.0196 z m 60.5152,11.9666 c 2.4669,-1.8659 3.247,-3.4256 1.7333,-3.4661 -1.5135,-0.0404 -3.3947,0.9664 -4.1801,2.2373 -2.0942,3.3885 -17.6261,2.8166 -28.5935,-1.0529 -10.9731,-3.8716 -12.3953,-2.9581 -3.1788,2.0419 8.2848,4.4946 28.4072,4.6356 34.2191,0.2398 z m -76.2114,-12.2047 c -1.7876,-4.7659 -3.8545,-11.4285 -4.593,-14.8058 -1.0401,-4.7569 -2.3863,-5.8678 -5.9737,-4.9296 -5.6333,1.4731 -5.8482,4.7588 -0.8044,12.2891 4.142,6.1837 12.6995,16.1115 13.8877,16.1115 0.4036,0 -0.7288,-3.8994 -2.5166,-8.6652 z m 76.9418,4.9102 c 3.9714,-0.7943 7.221,-2.354 7.221,-3.466 0,-3.0702 -13.7434,-2.3539 -25.4178,1.3247 l -10.3982,3.2764 10.687,0.1546 c 5.878,0.085 13.9364,-0.4953 17.908,-1.2897 z m -73.6988,-19.4358 c -4.1609,-7.7746 -5.194,-3.6559 -1.8483,7.3685 2.71,8.9303 3.1285,9.3527 3.7685,3.8053 0.3963,-3.4321 -0.4679,-8.4603 -1.9202,-11.1738 z m 30.0841,13.9479 c -1.9063,-1.232 -6.0656,-2.1522 -9.2428,-2.045 l -5.7768,0.195 5.7768,1.85 c 3.1772,1.0175 7.3365,1.9378 9.2428,2.045 3.0809,0.1733 3.0809,-0.0539 0,-2.045 z m 54.8355,-3.912 c -2.2483,-0.5859 -5.3677,-0.5473 -6.9321,0.0856 -1.5646,0.633 0.275,1.1123 4.0877,1.0652 3.8126,-0.0471 5.0925,-0.565 2.8444,-1.1508 z m -30.4293,-4.3618 c -2.0087,-2.0088 -2.9702,-4.8683 -2.1367,-6.3544 0.9883,-1.7621 0.433,-1.6973 -1.5962,0.1863 -1.7116,1.5886 -7.2873,2.8883 -12.3908,2.8883 -7.9162,0 -10.8564,-1.5535 -20.0183,-10.5776 -8.3198,-8.1946 -11.0471,-9.775 -12.1063,-7.0146 -3.1361,8.1724 24.8069,23.9646 43.0705,24.3419 8.0494,0.1663 8.5073,-0.1405 5.1778,-3.4699 z m 29.3144,-0.969 c 22.2827,0 18.9932,-1.3953 -7.0959,-3.0099 -18.8843,-1.1687 -21.1902,-0.9098 -18.6932,2.0989 1.5664,1.8876 4.3263,2.8648 6.133,2.1715 1.8068,-0.6933 10.652,-1.2605 19.6561,-1.2605 z m -73.3616,-6.9322 c -6.7087,-7.0023 -8.0875,-7.9684 -8.0875,-5.6664 0,1.5859 11.7821,12.5986 13.4786,12.5986 0.6877,0 -1.7383,-3.1195 -5.3911,-6.9322 z m 33.3128,1.4873 c -0.5296,-0.4529 -4.6022,-1.4913 -9.0503,-2.3075 -5.6899,-1.0441 -7.06,-0.8105 -4.6215,0.7881 3.1324,2.0534 15.9634,3.4794 13.6718,1.5194 z m 47.5621,-3.9415 c -13.9798,-0.9375 -27.7574,-2.4498 -30.6169,-3.3607 -3.1426,-1.0011 -5.1991,-0.6964 -5.1991,0.7705 0,3.3461 8.6434,4.3568 36.9714,4.3233 l 24.2624,-0.0287 z m -40.4375,-4.4521 c 0,-2.671 -35.2055,-20.8222 -40.3861,-20.8222 -8.8242,0 -0.3725,11.7892 13.813,19.2675 7.6704,4.0438 26.5731,5.1497 26.5731,1.5547 z m 80.1335,-5.2249 c 2.8474,-2.8483 3.1407,-4.0438 0.9922,-4.0438 -1.6776,0 0.1793,-3.0167 4.1262,-6.7038 3.9472,-3.6872 7.1766,-7.8811 7.1766,-9.3199 0,-1.4388 -3.6197,1.0037 -8.0438,5.4278 -4.4241,4.4242 -11.9628,9.2143 -16.7527,10.6447 -13.1749,3.9346 -48.9487,5.5008 -59.4146,2.6012 -13.169,-3.6484 -12.964,-1.3645 0.2523,2.8117 16.4431,5.1957 66.033,4.2146 71.6638,-1.4179 z m -152.9209,0.5777 c -0.7854,-1.2709 -1.8867,-2.3108 -2.447,-2.3108 -0.5606,0 -1.0191,1.0399 -1.0191,2.3108 0,1.2708 1.1013,2.3107 2.4471,2.3107 1.346,0 1.8044,-1.0399 1.019,-2.3107 z m 8.0875,-4.6215 c 0,-2.5418 1.1121,-4.6214 2.4713,-4.6214 4.3194,0 1.1993,-10.312 -3.3847,-11.1863 -3.7658,-0.7184 -4.1785,0.1685 -2.9462,6.3308 1.7402,8.701 -3.2042,9.903 -8.6652,2.1065 -1.949,-2.7828 -4.3411,-4.2625 -5.3153,-3.2883 -1.6903,1.6903 12.4906,15.0883 16.1071,15.218 0.9531,0.0342 1.733,-2.0175 1.733,-4.5593 z m 17.3139,0.0265 c 0.8097,-1.3099 -0.1178,-1.6972 -2.1743,-0.9081 -4.0031,1.5361 -4.7356,3.1923 -1.4117,3.1923 1.1958,0 2.8096,-1.0279 3.586,-2.2842 z m 42.5721,-0.8879 c -2.3592,-2.1109 -15.9825,-8.3838 -15.9825,-7.3592 0,1.4364 11.9801,8.0038 14.8272,8.1281 1.1648,0.0509 1.6847,-0.2951 1.1553,-0.7689 z m 39.4746,-1.537 c -12.3489,-0.9494 -27.9222,-3.8263 -35.6,-6.5767 -17.27,-6.1865 -24.3676,-6.0843 -10.6142,0.1529 17.0242,7.7205 20.9025,8.4321 45.0589,8.2681 l 23.1071,-0.1568 z m 19.2369,-4.3314 c 6.3547,-1.0448 13.2829,-3.9666 16.1108,-6.7944 l 4.9613,-4.9615 h -12.4644 c -10.951,0 -50.7851,6.13 -52.8927,8.1396 -1.2434,1.1854 18.5481,5.2183 26.2035,5.3395 3.8127,0.0603 11.9494,-0.7151 18.0815,-1.7232 z m 25.2078,-4.756 c 5.069,-4.6108 6.3607,-6.8866 3.9349,-6.9321 -1.9863,-0.0373 -6.6001,3.0517 -10.2528,6.8644 -8.5966,8.9728 -3.5315,9.0271 6.3179,0.0677 z m -134.5625,-4.6892 c -1.4767,-2.7594 -3.2049,-4.4973 -3.8404,-3.8618 -0.6354,0.6354 0.053,3.4131 1.5297,6.1726 1.4768,2.7594 3.205,4.4973 3.8404,3.8618 0.6355,-0.6354 -0.0529,-3.4131 -1.5297,-6.1726 z m -17.6501,1.1554 c 0.7316,-1.9063 0.3228,-3.4661 -0.9081,-3.4661 -1.2309,0 -2.2382,1.5598 -2.2382,3.4661 0,1.9063 0.4088,3.4661 0.9081,3.4661 0.4996,0 1.5066,-1.5598 2.2382,-3.4661 z m 44.0699,-3.2299 c 4.9835,-1.9515 3.314,-3.4621 -6.3947,-5.7861 -4.6433,-1.1115 -6.0714,-0.7963 -4.9098,1.0834 1.1318,1.8313 0.12,2.169 -3.2724,1.0923 -4.6928,-1.4895 -6.6264,0.8883 -3.3702,4.1445 2.0027,2.0028 12.2473,1.698 17.9471,-0.5341 z m 24.4159,-3.3906 c 0,-3.0059 2.1471,-8.1949 4.7716,-11.5313 2.6243,-3.3363 4.1143,-7.1297 3.3108,-8.4298 -2.0771,-3.3606 9.4857,-27.6306 16.8883,-35.4483 3.4231,-3.615 11.9429,-9.4795 18.9328,-13.0321 6.99,-3.5527 17.3882,-10.8045 23.1072,-16.1151 l 10.3982,-9.6558 -7.6339,1.2808 c -4.1986,0.7045 -12.5172,5.256 -18.4857,10.1145 -5.9684,4.8585 -15.6706,12.643 -21.5601,17.2988 -5.8898,4.6559 -14.3484,13.9533 -18.7972,20.661 -8.7294,13.162 -18.5465,41.234 -16.3876,46.8602 2.051,5.3449 5.4556,4.095 5.4556,-2.0029 z m 11.362,-1.0045 c 5.1053,-12.3251 20.2878,-25.2088 37.4234,-31.7566 17.1697,-6.5609 47.4902,-27.4816 58.095,-40.0848 10.3896,-12.3472 7.2016,-13.6326 -4.7106,-1.8993 -15.3182,15.0876 -17.198,13.6553 -2.994,-2.2812 6.4561,-7.2436 11.7384,-15.2156 11.7384,-17.7154 0,-2.5 -0.3723,-4.1121 -0.8272,-3.5825 -0.455,0.5295 -7.0734,8.2817 -14.7075,17.2271 -9.9751,11.6885 -18.0314,18.4526 -28.6343,24.0418 -8.1148,4.2775 -20.2879,11.4068 -27.0515,15.8428 -14.3625,9.4199 -35.0723,33.893 -35.0723,41.4452 0,7.2066 3.51,6.5625 6.7406,-1.2371 z m 16.9096,-0.9715 c 6.6911,-4.0926 15.4799,-9.6688 19.5303,-12.3915 4.0505,-2.7227 14.4487,-6.7187 23.1072,-8.88 8.6584,-2.1612 17.8985,-5.3271 20.5334,-7.0353 2.6352,-1.7082 7.3144,-3.6517 10.3982,-4.3189 3.0841,-0.6672 1.9681,-0.8699 -2.4801,-0.4504 -11.3192,1.0674 -42.4138,9.5889 -50.7841,13.9174 -4.2919,2.2194 -6.9837,2.6524 -6.9837,1.1234 0,-3.2674 13.1822,-8.6652 32.1268,-13.1549 10.4292,-2.4716 17.432,-5.7286 22.175,-10.3133 l 6.9321,-6.7009 -8.6652,3.5913 c -11.651,4.8289 -11.1237,0.7184 0.5853,-4.5616 5.0878,-2.2942 10.6231,-6.9231 12.3009,-10.2863 2.454,-4.9189 -1.0431,-3.0409 -17.8791,9.6021 -12.5061,9.3912 -27.3288,18.1621 -36.8286,21.7921 -17.0637,6.5204 -29.7451,16.0849 -35.1277,26.4934 -5.8711,11.3534 -5.1081,11.4619 11.0593,1.5734 z m -102.2144,4.032 c 0,-0.6042 -5.3361,-11.0852 -11.8579,-23.2911 -11.4632,-21.4541 -11.8149,-22.6671 -10.5726,-36.4506 1.1759,-13.0451 0.9901,-13.8649 -2.1836,-9.6366 -2.5296,3.37 -3.2112,8.6887 -2.5169,19.6411 0.8243,13.0028 2.4256,17.4243 11.9249,32.9276 6.0351,9.8494 11.9254,17.908 13.0895,17.908 1.1642,0 2.1166,-0.4943 2.1166,-1.0984 z m 65.5612,-9.8774 c 2.093,-15.7738 12.8852,-36.5951 27.1823,-52.4432 l 12.3939,-13.7387 -12.5307,6.8066 c -14.2289,7.729 -25.596,21.6805 -25.596,31.4157 0,7.8069 -3.906,8.8471 -5.2056,1.3864 -0.7697,-4.418 -1.6542,-3.6368 -5.8868,5.1991 -5.6707,11.8375 -6.2343,18.0512 -2.401,26.4644 4.5426,9.9701 10.3723,7.5062 12.0439,-5.0903 z m 114.5288,-4.865 c 3.097,-2.2448 6.1197,-5.5477 6.717,-7.3399 0.5976,-1.7921 -2.2765,-0.4288 -6.3868,3.0297 -8.2821,6.9689 -16.395,9.7315 -23.2864,7.9294 -2.4979,-0.6533 -8.2793,0.7178 -12.8476,3.0467 l -8.3056,4.2345 7.6856,0.7967 c 8.4244,0.8733 27.5583,-5.2713 36.4238,-11.6971 z m -176.4256,-5.4263 c -7.3345,-14.718 -7.8153,-31.0664 -1.3343,-45.3479 2.6846,-5.916 3.4435,-9.6374 1.8572,-9.1086 -4.8091,1.603 -11.5051,25.239 -9.9964,35.2862 1.5156,10.0935 13.4153,37.2598 14.6709,33.4929 0.4278,-1.2828 -1.9112,-7.7279 -5.1974,-14.3226 z m 170.0723,15.0672 c -1.6681,-0.6675 -3.6611,-0.5854 -4.4289,0.1824 -0.7679,0.7679 0.597,1.314 3.0328,1.2137 2.6919,-0.1109 3.2394,-0.6584 1.3961,-1.3961 z m -32.9313,-10.1825 6.7232,-6.7231 -6.1761,1.4279 c -6.6927,1.5474 -25.8169,11.8371 -25.8169,13.8907 0,3.881 19.3883,-2.7139 25.2698,-8.5955 z m -249.016,4.7584 c 4.6641,-1.2954 10.9031,-4.3745 13.8642,-6.8423 l 5.384,-4.487 -9.5883,-0.0769 c -6.9349,-0.0556 -12.72794,-2.1896 -20.93254,-7.711 l -11.3444,-7.6341 -4.1194,5.4611 c -2.2654,3.0036 -6.7364,6.4562 -9.9353,7.6724 -5.0702,1.9277 -5.4138,2.6964 -2.6777,5.9931 7.3999,8.9161 23.481,12.0322 39.34944,7.6247 z m 155.0083,-3.3019 c -2.8932,-15.1345 24.8912,-49.5659 50.4618,-62.5341 14.0071,-7.1039 25.2113,-18.0463 21.8845,-21.3733 -0.7604,-0.7603 -5.2628,2.3083 -10.0053,6.819 -4.7425,4.5108 -14.176,11.1586 -20.9633,14.773 -14.4131,7.6753 -28.6276,21.1511 -32.7123,31.0126 -1.5826,3.8207 -3.8085,6.9466 -4.9467,6.9466 -1.1381,0 0.5485,-5.1659 3.7482,-11.4799 6.0083,-11.8573 21.2832,-25.1625 39.3193,-34.2493 10.6805,-5.3811 22.3191,-16.6707 17.1554,-16.6412 -3.937,0.0225 -41.2971,27.1267 -53.5639,38.86 -9.7552,9.3306 -17.8933,28.2954 -17.8933,41.6977 0,9.2266 1.294,11.852 5.8415,11.852 1.6864,0 2.3378,-2.2113 1.6741,-5.6831 z m 115.6343,-9.235 c 6.094,-3.5419 10.5442,-6.9757 9.8894,-7.6307 -1.2409,-1.2406 -31.3679,17.6032 -31.3679,19.6199 0,0.6323 2.3396,-0.3576 5.1991,-2.1998 2.8595,-1.8423 10.1851,-6.2475 16.2794,-9.7894 z m -143.1488,6.7309 c -0.7526,-1.9611 -1.8639,-3.0701 -2.4697,-2.4644 -0.6057,0.6057 -0.4157,2.2103 0.4219,3.5657 2.2784,3.6867 3.6103,2.9705 2.0478,-1.1013 z m 24.1132,-33.1641 c 6.3094,-12.7464 21.6767,-26.7212 51.1612,-46.5255 13.4054,-9.0041 9.7064,-8.8541 -5.0135,0.2032 -11.2484,6.9211 -18.4432,7.7195 -9.6558,1.0715 6.9504,-5.2583 1.3621,-4.0977 -6.2013,1.2879 -3.7103,2.642 -8.1841,7.5811 -9.9414,10.9759 -1.7575,3.3948 -6.4304,9.8116 -10.3843,14.2598 -11.7719,13.2429 -21.0513,33.8256 -20.7412,46.0056 l 0.2701,10.6068 2.0792,-12.5306 c 1.1434,-6.8918 4.9355,-18.3014 8.427,-25.3546 z m 129.4442,31.1726 c 8.0535,-4.1903 15.6528,-12.5921 17.8144,-19.6963 l 1.7079,-5.6124 -6.9187,5.6124 c -3.8053,3.0869 -6.5086,6.3338 -6.0077,7.2154 0.501,0.8815 -3.7935,4.3598 -9.5432,7.7294 -5.7498,3.3695 -10.4541,6.5476 -10.4541,7.0623 0,2.0497 7.5091,0.755 13.4014,-2.3108 z m -179.708,-9.2923 c -3.4557,-9.0891 -2.9078,-27.9284 1.0906,-37.4979 4.4223,-10.5838 4.5949,-10.0418 -3.1966,-10.0418 -7.624,0 -9.43,3.9849 -9.4806,20.9204 -0.0203,6.7672 2.1249,14.8497 6.0111,22.6485 6.2299,12.5015 9.7801,15.0301 5.5755,3.9708 z m 35.7139,-24.4325 c 2.2844,-4.4482 7.2267,-12.5798 10.9833,-18.0705 7.8735,-11.5082 6.8274,-15.3354 -1.9581,-7.1639 -15.2461,14.1804 -22.5147,35.9525 -17.6816,52.9629 1.3201,4.6456 1.9216,3.2882 3.0721,-6.9321 0.787,-6.9899 3.2999,-16.3483 5.5843,-20.7964 z m -13.5861,23.7329 c -0.7678,-0.7678 -1.3141,0.5969 -1.2136,3.0328 0.1107,2.6919 0.6584,3.2394 1.3959,1.3961 0.6676,-1.6681 0.5856,-3.6611 -0.1823,-4.4289 z m -161.13124,1.4418 c 8.9674,-3.126 11.7784,-8.0053 12.0861,-20.9791 0.2355,-9.9287 0.2445,-9.9388 2.0496,-2.3117 3.6089,15.2468 19.4435,25.8446 38.61574,25.8446 14.4937,0 24.9225,-6.7231 43.2607,-27.8889 7.5274,-8.6879 18.1005,-18.1381 23.4963,-21.0004 l 9.8099,-5.2042 -9.1197,-6.7068 -9.1197,-6.7068 -17.8424,11.6266 c -9.8134,6.3946 -22.7815,13.9922 -28.8183,16.8836 -12.1287,5.8093 -14.0246,10.4151 -5.1991,12.6302 3.1772,0.7974 5.7768,2.3512 5.7768,3.4529 0,2.6289 -12.1345,-2.0159 -14.2629,-5.4595 -2.3832,-3.8565 2.0053,-8.1634 15.0578,-14.7777 18.4321,-9.3402 43.1269,-26.5822 41.6032,-29.0475 -2.9981,-4.8512 -23.5184,-11.9041 -38.932,-13.381 l -16.175,-1.5498 14.4172,-0.3389 c 9.3117,-0.2189 18.5174,1.2191 25.9955,4.0606 9.0044,3.4213 11.5783,3.7132 11.5783,1.3127 0,-8.4721 27.1296,-18.2075 36.1428,-12.9698 3.4587,2.0098 1.8206,2.5116 -8.4142,2.5774 -9.8446,0.0633 -14.2604,1.323 -19.5921,5.5889 -6.257,5.0063 -6.6142,6.0096 -3.9264,11.0319 1.6263,3.0386 8.1531,9.0706 14.5041,13.4045 10.896,7.4354 12.681,7.8876 31.6549,8.02 19.6124,0.1368 20.7572,-0.1647 46.4809,-12.2444 31.3428,-14.718 46.3102,-17.1828 64.5392,-10.6277 10.5125,3.7802 13.3993,3.885 31.1153,1.129 11.4651,-1.7835 28.6746,-2.5593 41.6809,-1.879 33.3664,1.7453 38.2677,-2.7037 47.7423,-43.3371 5.3759,-23.056 4.7529,-29.0611 -4.785,-46.1254 -3.5518,-6.3545 -7.1748,-15.489 -8.0512,-20.2989 -0.8763,-4.81 -3.5821,-11.0489 -6.0128,-13.8643 -4.4155,-5.1145 -4.4183,-5.1069 -3.262,8.7453 1.0745,12.8725 0.9876,13.2031 -1.2163,4.6215 -1.3054,-5.0836 -2.8766,-11.672 -3.4918,-14.641 -2.5688,-12.4009 -21.7267,-22.8161 -21.7267,-11.8117 0,2.6729 -6.8112,11.9992 -15.61,21.3741 -8.5857,9.1477 -17.3104,19.2317 -19.3885,22.4089 -2.0782,3.1772 -4.3998,5.1824 -5.1593,4.4559 -0.7596,-0.7265 6.9672,-10.5902 17.1706,-21.9193 10.2032,-11.3292 19.1535,-22.9976 19.8895,-25.9299 2.7849,-11.0954 -4.151,-21.5842 -23.5367,-35.5939 -19.8515,-14.3463 -23.2873,-15.642 -24.9192,-9.3975 -0.6551,2.507 -1.1586,1.6467 -1.3247,-2.2638 -0.2082,-4.9006 -2.3091,-7.3488 -9.4189,-10.9759 -5.0328,-2.5676 -11.246,-4.6684 -13.807,-4.6684 -4.0119,0 -4.3525,0.7995 -2.46,5.7768 1.2081,3.1772 1.3911,5.7768 0.4069,5.7768 -0.9841,0 -3.1044,-3.6372 -4.712,-8.0826 -5.9004,-16.3177 -22.6422,-23.5586 -57.2823,-24.775 -17.0695,-0.5995 -18.6433,-0.2954 -16.7527,3.2372 1.1478,2.1443 2.033,5.2669 1.9676,6.9391 -0.0656,1.6721 -1.6554,-0.5991 -3.5331,-5.0472 -4.4282,-10.4903 -19.7526,-21.3968 -30.506,-21.7114 -7.065,-0.2067 -9.2183,1.0988 -15.3366,9.2972 -3.9148,5.2457 -9.9428,14.6041 -13.3957,20.7964 -3.4529,6.1923 -10.1521,17.3109 -14.8872,24.7079 -8.1367,12.711 -8.4408,13.8522 -5.5416,20.7964 1.6873,4.041 3.3838,11.5066 3.7704,16.5902 l 0.7025,9.2428 -1.679,-9.3072 c -0.9236,-5.119 -3.4078,-11.7753 -5.5207,-14.7918 -3.4171,-4.8785 -3.4781,-6.354 -0.5525,-13.3562 1.809,-4.3295 5.5244,-11.011 8.2566,-14.8479 3.7796,-5.308 4.3238,-7.6196 2.2763,-9.6671 -2.0475,-2.0476 -3.2121,-1.8669 -4.8701,0.7557 -1.8802,2.9738 -2.1841,2.9258 -2.2146,-0.3498 -0.0404,-4.3513 6.0661,-7.5045 8.1146,-4.1901 2.712,4.3884 5.7368,2.0118 11.2261,-8.8206 6.3048,-12.4422 5.1741,-16.1222 -6.8859,-22.4115 -4.1246,-2.151 -5.2225,-3.5065 -2.8468,-3.5152 2.1265,-0.008 6.903,2.5408 10.6142,5.6637 l 6.748,5.678 4.7897,-6.4783 c 2.6342,-3.5631 8.7758,-8.3188 13.6479,-10.5683 7.9718,-3.6806 16.7606,-11.6725 16.8948,-15.363 0.0282,-0.7769 -2.4251,-0.9392 -5.4519,-0.3606 -3.0268,0.5786 -8.3541,-0.4416 -11.8382,-2.2672 -6.1114,-3.202099 -5.897,-3.287599 6.0808,-2.425499 6.8289,0.4915 13.4618,0.0678 14.7399,-0.9416 3.5933,-2.838 15.5744,-19.3735 14.6621,-20.2359 -2.1358,-2.019 -26.6956,-8.1726 -32.6175,-8.1726 -9.3834,0 -6.9516,5.2378 3.6756,7.9173 4.6695,1.1773 8.4898,2.997 8.4898,4.0437 0,2.8801 -1.3617,2.4942 -19.2538,-5.4571 -10.6554,-4.7353 -21.5069,-7.6959 -30.4265,-8.3012 l -13.8643,-0.9408 -3.8402,10.0342 c -2.1122,5.5188 -7.7829,19.3926 -12.6019,30.830599 -8.2305,19.5361 -8.7992,22.4331 -9.3856,47.8026 -0.5454,23.5909 -1.6547,30.1935 -8.7724,52.2107 -4.4814,13.8625 -8.1481,29.6173 -8.1481,35.0108 v 9.8062 l 6.9054,-5.8105 c 3.9702,-3.3407 12.5642,-6.975 20.2187,-8.5503 7.3224,-1.5069 19.5523,-4.2739 27.1777,-6.1488 7.6253,-1.8749 20.5833,-4.2851 28.7954,-5.356 20.4184,-2.6626 23.9256,-8.0581 15.906,-24.4703 -1.3079,-2.6765 -6.1816,-7.0718 -10.8308,-9.7675 -4.6489,-2.6956 -7.2981,-4.9251 -5.887,-4.9542 1.4114,-0.0292 6.3859,2.5391 11.0547,5.7075 6.977,4.7346 8.7222,5.1517 9.8004,2.3421 1.5496,-4.0381 0.0564,-21.1547 -2.42,-27.7438 -1.7328,-4.6102 -1.7279,-4.6102 1.9999,-0.0235 3.0724,3.7803 3.5897,9.225 2.9097,30.6169 -0.7863,24.7279 -0.5989,26.0191 3.7794,26.0191 2.5337,0 6.363,1.5893 8.5094,3.5317 3.0726,2.7806 5.268,3.0126 10.3229,1.0907 3.5312,-1.3426 6.9404,-1.9211 7.5759,-1.2857 0.6354,0.6355 -1.8437,2.2957 -5.5094,3.6893 -3.6655,1.3936 -10.0486,5.115 -14.1848,8.2697 -6.3854,4.8705 -7.5186,7.1997 -7.5114,15.4388 0.005,5.4154 1.928,12.8505 4.3524,16.8262 3.9603,6.4946 5.1321,7.0029 13.2781,5.7595 4.9137,-0.7501 13.1643,-3.6203 18.3345,-6.3782 16.1501,-8.6149 37.8571,-36.2951 42.7695,-54.5382 2.8824,-10.7047 9.5642,-17.8532 16.5738,-17.7312 4.498,0.0782 4.2422,0.5071 -1.8971,3.1806 -5.6109,2.4433 -8.1492,5.9785 -12.1282,16.8914 -6.6891,18.3452 -25.8417,43.2964 -39.9816,52.0862 -7.5972,4.7228 -11.2936,8.5883 -11.341,11.8601 -0.0638,4.4067 -0.2872,4.4813 -2.4255,0.8099 -3.6738,-6.3074 -9.5049,-4.883 -26.405,6.4497 -8.6067,5.7714 -20.1822,11.706 -25.7238,13.1881 -10.7323,2.8705 -11.4953,4.0084 -7.5856,11.3139 2.5284,4.7241 29.271,18.7879 32.2384,16.9539 0.8908,-0.5506 2.8722,-7.3665 4.4026,-15.1463 1.5306,-7.7799 3.3029,-13.6253 3.9384,-12.9899 0.6354,0.6355 -0.1091,7.5829 -1.6547,15.4387 l -2.8101,14.2833 7.3155,7.3154 c 6.8644,6.8645 8.3454,7.3155 24.0235,7.3155 18.6738,0 33.4596,-5.7662 37.4749,-14.6147 1.2548,-2.7645 3.101,-5.0264 4.1032,-5.0264 1.0021,0 0.2865,2.9696 -1.5903,6.599 -5.9078,11.4241 -37.1595,21.8397 -50.3485,16.7802 -4.0475,-1.5526 -6.7672,-1.6061 -7.6665,-0.1507 -3.5058,5.6721 -19.8483,11.4201 -31.6055,11.116 l -12.2232,-0.3161 13.8643,-1.5962 c 7.6253,-0.8779 15.9439,-2.7805 18.4857,-4.2279 11.4036,-6.4938 11.4177,-6.556 3.2019,-14.0247 -4.3027,-3.9116 -8.8632,-7.1526 -10.134,-7.2023 -4.7102,-0.1841 -26.338,-11.3635 -30.9966,-16.0221 -2.6506,-2.6507 -4.8195,-7.419 -4.8195,-10.5962 0,-8.07 -3.9361,-7.2249 -5.7964,1.2445 -2.2599,10.289 -23.2007,36.5212 -29.3812,36.8053 -0.9196,0.0423 2.7743,-4.3695 8.2086,-9.8039 10.5526,-10.5525 20.0369,-27.5843 20.0369,-35.9818 0,-7.1206 -6.1923,-21.218 -12.0666,-27.471 -2.7028,-2.8768 -3.854,-5.2306 -2.5586,-5.2306 4.0631,0 10.092,8.2973 14.5043,19.9621 3.8913,10.2871 4.9498,11.2928 12.5763,11.9493 5.9473,0.5119 12.3628,-1.4341 22.4451,-6.8078 7.7645,-4.1385 14.6102,-8.8089 15.2126,-10.3787 0.6024,-1.5699 -1.0121,-5.7851 -3.5879,-9.3673 -2.5757,-3.5821 -5.3543,-10.3037 -6.1751,-14.9369 -1.3183,-7.4435 -0.525,-9.4941 6.8152,-17.6188 6.3944,-7.0778 7.6402,-9.7441 5.411,-11.5804 -7.285,-6.001 -90.9545,8.2091 -107.2096,18.2082 -7.1304,4.386 -14.6881,16.5961 -14.6881,23.7295 0,13.9526 17.3532,29.1908 33.2424,29.1908 4.6741,0 8.3504,1.1512 8.3504,2.6149 0,1.8004 -3.0591,2.0898 -9.8205,0.929 -5.4013,-0.9272 -12.9287,-1.844 -16.7272,-2.0373 -6.352,-0.323 -6.9091,0.2671 -6.9322,7.3448 -0.0319,9.6311 -5.2765,13.7203 -20.1237,15.6898 -8.50534,1.1283 -12.57474,3.1217 -16.92394,8.2905 -6.4159,7.6249 -7.0653,11.1307 -2.8376,15.3215 1.5886,1.5748 5.488,8.2817 8.6652,14.9041 4.9731,10.3658 6.9019,12.2396 13.86434,13.4697 7.0412,1.244 7.2653,1.4682 1.733,1.733 -4.3804,0.2097 -6.36554,1.5604 -6.38984,4.3479 -0.0194,2.2241 -1.1223,5.6035 -2.451,7.5098 -1.8063,2.5918 -2.0547,1.6272 -0.9846,-3.8237 0.8564,-4.3638 0.3995,-7.9272 -1.1382,-8.8776 -1.413,-0.8733 -5.1555,-7.4358 -8.3165,-14.5835 -8.6104,-19.4695 -13.6524,-21.0095 -29.823,-9.1089 -14.5221,10.6874 -18.2255,19.4973 -16.684,39.6882 0.744,9.7431 0.4644,14.4797 -0.6919,11.7252 -3.176,-7.5662 -2.5251,-30.9203 1.0547,-37.8429 4.3115,-8.3379 22.7256,-23.391 28.6135,-23.391 4.0939,0 15.754,-14.7458 14.8228,-18.7453 -0.1812,-0.7782 6.0154,-2.0781 13.77,-2.8886 16.70944,-1.7465 20.33724,-4.2181 20.38464,-13.8874 0.0194,-3.9748 0.9405,-8.6556 2.0466,-10.4019 1.3266,-2.0943 0.1347,-5.9401 -3.5014,-11.2983 -3.0319,-4.4679 -5.5127,-11.0977 -5.5127,-14.733 0,-11.4469 -8.9891,-8.7662 -22.38994,6.6769 -13.1031,15.1001 -16.8922,21.385 -16.8922,28.0179 0,2.5504 -1.1914,5.3734 -2.6476,6.2734 -2.6162,1.6168 -1.8149,-4.6213 1.8053,-14.0556 1.4523,-3.7843 -40.3154,28.5915 -48.1723,37.3403 -4.0893,4.5537 -10.2429,17.829 -13.5736,29.2827 -1.572,5.4066 -0.8845,7.5848 3.907,12.3763 3.1982,3.1982 5.3989,6.2309 4.8904,6.7393 -0.5084,0.5085 -2.8122,-1.1616 -5.1197,-3.7111 -2.3072,-2.5496 -5.0736,-4.6356 -6.1476,-4.6356 -2.7058,0 -2.4253,17.846 0.443,28.1731 2.8976,10.4332 19.3353,25.5852 33.0143,30.4322 12.0335,4.2639 15.21,4.4242 24.3727,1.2301 z m 32.6459,-20.8878 c -4.4481,-3.8933 -13.055,-10.1967 -19.1267,-14.0075 -10.3422,-6.4914 -17.8493,-16.2079 -17.841,-23.0923 0.002,-1.6518 1.8216,0.6253 4.0438,5.0601 2.3604,4.7112 9.3235,11.5715 16.7489,16.502 10.8105,7.1781 28.42094,23.0031 25.27254,22.7104 -0.5555,-0.0516 -4.6493,-3.2794 -9.09754,-7.1727 z m 311.23384,-69.0091 c 7.5544,-3.0429 12.6987,-12.2335 11.1679,-19.9518 -1.2356,-6.2297 -1.157,-6.3081 1.403,-1.4001 3.3695,6.4596 8.8388,6.6325 15.4342,0.4877 4.3844,-4.0846 5.0572,-7.1588 5.0572,-23.1071 0,-15.6008 -0.7364,-19.1322 -4.8476,-23.2433 -4.7226,-4.7227 -8.4734,-4.9232 -19.4148,-1.0377 -4.5558,1.6179 -4.5579,1.5893 -0.1361,-2.0136 6.1767,-5.0328 16.5419,-4.5792 22.0878,0.9667 3.8575,3.8575 4.6215,7.7024 4.6215,23.2591 0,21.3154 -1.822,26.0103 -12.171,31.3619 -4.0768,2.1082 -10.1822,6.7982 -13.5674,10.4221 -3.3854,3.624 -8.0775,6.5231 -10.4271,6.4426 -3.6229,-0.1243 -3.5028,-0.4564 0.7924,-2.1865 z m -36.1349,-11.2316 c -1.511,-3.6478 -5.4108,-7.846 -8.6664,-9.3294 -3.2555,-1.4833 -5.2973,-3.3188 -4.5373,-4.0788 0.76,-0.76 3.8527,0.2372 6.8728,2.216 5.0029,3.2781 6.0212,3.2501 11.4563,-0.3151 6.3216,-4.147 13.9823,-13.0662 16.1747,-18.8317 0.9164,-2.4101 1.3737,-1.9718 1.5004,1.4387 0.1118,3.0027 -3.8601,8.6311 -10.2418,14.5136 -8.5691,7.8987 -10.1695,10.6241 -8.9924,15.3139 1.9489,7.7642 -0.1973,7.2063 -3.5663,-0.9272 z m -117.6243,-5.7152 c -0.2761,-7.0883 0.5825,-9.1243 4.2531,-10.0842 3.5539,-0.9294 4.3307,-2.587 3.418,-7.2935 -1.15,-5.9306 -1.1098,-5.954 1.5306,-0.8916 2.405,4.6105 4.4377,5.1876 17.9561,5.0976 8.3844,-0.0557 19.3638,-1.5686 24.3986,-3.3619 10.2598,-3.6543 13.5685,-2.97 5.7842,1.1961 -2.8041,1.5007 -15.5509,3.6364 -28.3261,4.7461 -12.7753,1.1097 -24.0079,2.8256 -24.961,3.8131 -0.9534,0.9876 -2.1774,4.915 -2.7202,8.7277 -0.8691,6.1034 -1.0285,5.8704 -1.3333,-1.9494 z m 84.6067,-24.4014 c 0.7101,-7.3905 0.1091,-11.7717 -1.7744,-12.9358 -1.5664,-0.9681 -13.5574,-1.8831 -26.6466,-2.0332 -21.9146,-0.2514 -29.3123,-1.6897 -25.9556,-5.0463 0.7189,-0.719 5.7867,-0.101 11.262,1.3733 5.9997,1.6155 15.6329,2.0724 24.2472,1.1499 l 14.2924,-1.5306 5.006,-21.6627 c 4.2438,-18.3657 6.7433,-24.0168 16.4234,-37.1299 6.2798,-8.507 11.3846,-14.5453 11.3442,-13.4184 -0.0405,1.1269 -1.6002,4.0673 -3.4661,6.5343 -1.8659,2.4669 -3.5132,7.666 -3.6606,11.5535 -0.1474,3.8876 -0.7436,5.2486 -1.3248,3.0245 -2.9138,-11.15 -10.7489,3.034 -16.8797,30.5575 -2.631,11.8123 -4.2302,22.0303 -3.5539,22.7068 0.6766,0.6765 1.23,-0.0479 1.23,-1.6097 0,-2.1054 6.2588,-2.6752 24.2077,-2.2037 21.4506,0.5634 24.9377,0.0917 30.617,-4.1416 4.6096,-3.4361 6.7803,-7.4906 7.7311,-14.4404 0.727,-5.3145 3.1881,-11.4447 5.469,-13.6226 3.9622,-3.7831 4.0119,-3.702 1.1154,1.817 -1.6674,3.1773 -3.6086,9.8273 -4.3136,14.778 -0.8959,6.2903 -3.2524,10.4658 -7.8246,13.8643 -5.844,4.3438 -9.1129,4.7874 -30.6169,4.1546 -18.5589,-0.5461 -24.1215,-0.0167 -24.2798,2.3107 -0.1128,1.6606 -0.0414,7.8528 0.159,13.7605 0.2003,5.9077 -0.5911,11.3317 -1.7587,12.0533 -1.2314,0.7611 -1.672,-3.3813 -1.0491,-9.8633 z m 89.2467,-3.1921 c 0.359,-7.3524 2.0172,-14.6311 3.6846,-16.175 2.4526,-2.271 2.6999,-1.9245 1.2949,1.8144 -0.9552,2.5417 -2.6134,9.8205 -3.6846,16.1749 l -1.9479,11.5536 z m -158.92,-92.9974 c 4.832,-7.3742 3.2048,-24.469 -3.5984,-37.8041 -5.6354,-11.0464 -6.006,-17.1267 -1.2829,-21.0465 3.9222,-3.2551 4.4686,-1.5695 1.3688,4.2224 -1.4527,2.7147 -0.4164,7.8152 3.3732,16.6008 3.0088,6.9752 5.5124,17.0524 5.5633,22.3939 0.0961,10.0428 -3.772,21.4828 -7.2635,21.4828 -1.0962,0 -0.2683,-2.6322 1.8395,-5.8493 z m 97.9454,-3.3935 c 0,-2.5418 0.9425,-4.6215 2.0944,-4.6215 1.1519,0 1.5505,2.0797 0.8857,4.6215 -0.6646,2.5418 -1.6071,4.6214 -2.0942,4.6214 -0.4873,0 -0.8859,-2.0796 -0.8859,-4.6214 z m -24.492,198.6006 c 18.3582,-10.1014 25.0957,-15.3259 34.1043,-26.4455 6.1747,-7.6214 10.2429,-14.185 9.0406,-14.5858 -1.2022,-0.4007 -7.2829,4.2752 -13.5125,10.3911 -16.9385,16.629 -35.2054,31.5053 -36.7676,29.9431 -2.1538,-2.1537 3.8531,-8.308 18.5945,-19.0506 14.3814,-10.4805 22.3957,-19.4138 17.4163,-19.4138 -1.5456,0 -8.6236,5.5296 -15.7283,12.2881 -7.1048,6.7584 -19.5419,15.8085 -27.6382,20.1114 -15.1694,8.0619 -22.0826,15.9428 -29.3481,33.4558 l -3.8344,9.2429 12.3979,-11.6742 c 6.8189,-6.4209 22.6928,-17.339 35.2755,-24.2625 z m -99.9949,16.3255 c 1.6683,-4.4317 7.9801,-14.5929 14.026,-22.5805 13.776,-18.2009 17.3888,-24.6045 13.0687,-23.1645 -3.7195,1.2399 -24.3151,30.1506 -28.4515,39.9383 -1.6113,3.8127 -3.5327,10.5715 -4.2695,15.0197 -1.3955,8.424 -0.4007,6.7949 5.6263,-9.213 z m -27.1802,-20.4819 c -2.0577,-3.1117 -5.3331,19.7558 -3.8443,26.8407 1.6429,7.8182 1.9345,6.9991 3.0972,-8.6994 0.7057,-9.5317 1.0422,-17.6953 0.7471,-18.1413 z m 12.128,-6.9539 3.9224,-6.0994 -5.371,4.6214 c -4.6776,4.0248 -5.1804,4.0994 -3.8961,0.5777 2.0487,-5.6184 0.019,-5.0666 -3.1511,0.8565 -2.0697,3.8675 -2.0041,4.5181 0.3115,3.087 2.1644,-1.3378 2.4718,-0.6536 1.1715,2.6096 -0.9693,2.4325 -2.1727,10.6617 -2.6744,18.287 l -0.912,13.8643 3.3382,-15.8523 c 1.8364,-8.7187 5.1037,-18.597 7.261,-21.9518 z m 171.1623,22.3817 c 2.9415,-2.7633 5.3322,-6.1428 5.3128,-7.5098 -0.0194,-1.3671 -1.0029,-0.956 -2.185,0.9135 -1.1824,1.8696 -2.8933,2.6558 -3.8018,1.7472 -0.9086,-0.9085 0.0748,-3.5599 2.1852,-5.8918 5.9092,-6.5297 4.5466,-8.2355 -2.286,-2.8612 -5.1069,4.0172 -12.3627,14.426 -12.3627,17.7351 0,2.8415 8.59,0.1392 13.1375,-4.133 z m -229.6878,-1.9566 c -0.9996,-3.8234 -1.8391,-4.1573 -4.629,-1.8419 -2.9603,2.4567 -2.8473,3.0489 0.86,4.5077 2.3472,0.9237 4.4303,1.7526 4.6291,1.8419 0.1987,0.0893 -0.1884,-1.9392 -0.8601,-4.5077 z m 71.8172,-25.1698 c 2.2196,-2.763 1.8264,-2.8415 -2.5508,-0.5092 -2.8466,1.5166 -6.7459,5.7945 -8.6652,9.5064 -5.6418,10.9099 -4.001,13.005 2.5508,3.2571 3.3223,-4.9432 7.2217,-10.4576 8.6652,-12.2543 z m -254.44254,0.7049 c 10.8759,-1.0717 15.5973,-2.4904 15.5973,-4.6867 0,-2.017 -2.7174,-3.1497 -7.5562,-3.1497 -4.1561,0 -15.0506,-2.0768 -24.2105,-4.6151 -14.7229,-4.08 -18.6805,-4.3138 -34.1281,-2.0162 -17.2689,2.5684 -17.4255,2.6534 -13.3386,7.2415 9.9176,11.1342 16.45,11.876 63.6361,7.2262 z m 417.26824,-8.9997 c -0.7103,-0.7104 -3.1176,1.6003 -5.3493,5.1349 l -4.0576,6.4266 5.3493,-5.1349 c 2.942,-2.8242 4.7679,-5.7162 4.0576,-6.4266 z m -64.3069,-10.6645 c 0,-4.3509 -4.3557,-1.6657 -10.6196,6.5466 l -6.5467,8.5832 8.5832,-6.5467 c 4.7208,-3.6007 8.5831,-7.4631 8.5831,-8.5831 z m -337.82614,6.7442 c 4.2166,-4.2165 3.3147,-8.7807 -1.7349,-8.7807 -12.3993,0 -29.1921,-5.6158 -35.4221,-11.8458 -5.3111,-5.3111 -8.6852,-6.6399 -16.8603,-6.6399 -10.8906,0 -11.7211,1.1108 -7.5969,10.1624 3.0307,6.6514 3.8972,7.0783 28.571,14.0742 21.6505,6.1387 29.2386,6.8344 33.0432,3.0298 z m 400.05294,-9.4947 c -0.1567,-4.8811 -0.2336,-4.8969 -2.1483,-0.4413 -2.7331,6.3602 -2.7331,8.6212 0,6.9321 1.2709,-0.7855 2.2377,-3.7063 2.1483,-6.4908 z m -465.33724,-9.1065 c -2.9633,-7.0999 -4.0396,-7.6359 -19.719,-9.8205 -17.076803,-2.3793 -23.138003,-6.4085 -23.138003,-15.3811 0,-2.2547 -3.1195,-9.0184 -6.9322,-15.0303 -3.8127,-6.012 -6.8864,-13.0669 -6.8307,-15.6776 0.0638,-2.9804 1.255,-1.5142 3.2013,3.9404 1.7051,4.7779 4.4846,10.4969 6.177,12.7089 1.6921,2.212 3.2304,4.3143 3.4178,4.6717 0.1874,0.3574 3.4697,-1.146 7.294,-3.3408 6.294303,-3.6124 7.085103,-5.401 8.342803,-18.8718 0.7644,-8.1846 0.8344,-15.7797 0.1555,-16.8779 -1.7196,-2.7826 -12.514803,-2.5118 -12.514803,0.3139 0,1.2709 -1.1672,2.3107 -2.5936,2.3107 -1.7922,0 -1.7046,-1.0713 0.2829,-3.4661 1.5821,-1.9063 5.2573,-3.466 8.167203,-3.466 4.44,0 5.5411,-1.5794 6.8466,-9.8206 3.5666,-22.5109 13.4123,-34.083 28.9985,-34.083 5.9984,0 6.8233,-0.8151 6.8233,-6.7431 0,-8.2009 2.0614,-14.0533 4.95,-14.0533 1.234,0 1.129,1.8979 -0.2472,4.4695 -4.9627,9.2727 -2.6691,23.3217 7.0802,43.3721 5.2098,10.7142 9.0479,19.9049 8.5289,20.4238 -1.4481,1.4483 -20.3119,-36.8991 -20.3119,-41.2914 0,-4.9078 -9.2897,-5.1561 -18.314,-0.4896 -12.2419,6.3306 -18.6562,37.9344 -10.5699,52.0798 4.291,7.5065 4.2843,11.6734 -0.01,5.9998 -3.0592,-4.0419 -3.4513,-4.0798 -4.8375,-0.4676 -2.8771,7.4977 0.8432,22.7095 7.0687,28.9034 l 6.0326,6.0019 50.1723,-0.6092 50.1724,-0.6092 8.8921,-8.8921 c 8.8618,-8.862 8.8794,-8.9164 5.1624,-16.1043 -5.4172,-10.4757 -15.8129,-15.0609 -34.2864,-15.1222 -10.7464,-0.0357 -14.4301,-0.7152 -11.8142,-2.1791 5.5578,-3.1103 30.0931,-0.2894 37.0331,4.2578 5.6541,3.7047 6.1969,3.6852 10.1877,-0.366 3.9354,-3.9948 3.9946,-5.323 0.8906,-19.9832 -1.829,-8.6372 -3.7334,-20.0752 -4.2326,-25.4178 -0.4991,-5.3427 -1.7106,-11.7935 -2.6919,-14.3353 -0.9816,-2.5418 -0.935,-3.8506 0.1039,-2.9085 1.0387,0.9422 3.2161,0.6112 4.8389,-0.7355 2.3542,-1.9539 2.6936,0.0386 1.6799,9.8611 -1.2499,12.1086 4.3002,47.0265 8.8364,55.5944 1.2323,2.3276 4.803,4.0479 8.414,4.0534 4.8377,0.007 10.3709,-4.2693 24.1811,-18.6898 20.39394,-21.2951 21.41184,-24.9153 12.3101,-43.7819 -4.4629,-9.2515 -5.1797,-13.0611 -3.5358,-18.7928 2.5318,-8.8282 8.6074,-15.8478 13.53564,-15.6387 2.622,0.1113 2.2329,0.8588 -1.3489,2.5905 -8.75164,4.231 -11.15504,14.0208 -6.55694,26.7061 2.1901,6.0415 4.4943,14.7888 5.12074,19.4384 0.8257,6.1277 2.4857,8.806 6.0329,9.7336 6.6095,1.7285 8.2908,-1.8176 8.2166,-17.3304 -0.0425,-8.8982 2.6047,-21.3841 8.2104,-38.7244 7.2169,-22.3239 8.2733,-28.5216 8.2733,-48.5358 0,-25.2336 2.8579,-36.6825 17.0776,-68.414599 4.5562,-10.1671 8.2966,-20.7663 8.3121,-23.5538 0.0443,-7.9742 -8.4415,-12.2668 -24.1708,-12.2269 -19.3785,0.0493 -22.0964,2.2318 -14.3072,11.4887 3.3859,4.0239 6.1562,8.0317 6.1562,8.9062 0,2.536 -9.3568,19.2959 -12.562,22.501 -1.605,1.6052 -3.5257,10.949299 -4.2681,20.764699 -1.8139,23.9845 -10.20574,40.2806 -34.55124,67.095 -28.8836,31.8132 -27.61,29.8562 -22.4631,34.5142 2.3921,2.1646 5.5541,7.7093 7.0269,12.3214 1.4728,4.6122 4.6921,12.0252 7.154,16.4733 l 4.4758,8.0875 -5.0623,-6.1601 c -2.7842,-3.3881 -7.2704,-11.7067 -9.9698,-18.4857 -4.3432,-10.9081 -6.0423,-12.7185 -14.7745,-15.7414 -13.6794,-4.7357 -16.9781,-2.05 -20.4257,16.6305 -4.5907,24.8734 -10.1759,32.6947 -29.1573,40.8305 -15.7932,6.7692 -24.8817,24.0166 -18.2059,34.5494 1.1323,1.7864 9.1888,3.9269 19.0278,5.0554 l 17.0644,1.9573 -17.3303,-0.7035 c -20.451,-0.8302 -41.9829,-7.858 -51.2359,-16.7231 -3.5661,-3.4164 -5.9637,-6.7316 -5.3283,-7.3671 0.6355,-0.6354 4.0186,1.588 7.5184,4.9409 3.4998,3.3529 10.7677,7.6503 16.1509,9.5496 l 9.7877,3.4533 0.009,-8.5627 c 0.0116,-11.4407 7.4883,-23.0886 17.5078,-27.275 l 8.1723,-3.4146 -10.3809,-11.5459 c -9.7817,-10.8797 -17.3835,-26.2556 -14.4371,-29.2019 0.7323,-0.7322 1.9602,0.6372 2.729,3.0432 3.5548,11.1255 5.8116,14.7727 9.1409,14.7727 6.1823,0 14.5538,-6.942 20.4413,-16.9506 3.1132,-5.2924 8.5616,-12.2222 12.1074,-15.3994 l 6.4469,-5.7768 -6.9666,9.2429 c -3.8314,5.0835 -9.2756,13.0738 -12.0984,17.7562 -2.8225,4.6824 -8.2088,9.8754 -11.9695,11.54 -3.7604,1.6646 -6.8374,3.7961 -6.8374,4.7367 0,0.9406 3.0601,5.106 6.8004,9.2565 5.6264,6.2435 7.5212,7.1099 10.9759,5.0187 6.5821,-3.9843 14.344,-16.8444 15.715,-26.0369 0.6895,-4.6238 2.5343,-12.5662 4.0998,-17.6498 2.3482,-7.6253 4.0036,-9.3752 9.4587,-9.9989 l 6.6124,-0.756 -1.374,-15.419 c -4.0742,-45.7257 -4.2168,-57.0804 -0.8379,-66.7403 2.4138,-6.9008 2.6511,-9.9993 0.8164,-10.6596 -1.4225,-0.512 -1.7892,-1.7838 -0.8147,-2.8262 0.9742,-1.0425 2.8775,-0.7894 4.2293,0.5624 1.7365,1.7365 1.3861,5.6139 -1.194,13.2133 -4.6459,13.6839 -4.6233,21.45 0.1629,56.2306 4.1092,29.8607 6.0277,33.011 13.9008,22.8254 2.3301,-3.0144 12.2872,-14.5688 22.1269,-25.6763 22.8525,-25.7967 31.00104,-42.4251 32.57324,-66.4705 1.3723,-20.985599 5.9864,-19.266399 -39.36994,-14.669699 -34.9077,3.537599 -40.8807,6.168599 -51.2983,22.595399 -6.1904,9.7612 -15.0296,17.3616 -59.9812,51.5752 -17.5362,13.3472 -24.5308,22.6545 -26.5596,35.3419 -1.6977,10.6163 -8.4514,19.9673 -17.9803,24.8949 -3.7568,1.9427 -8.860203,6.861 -11.341003,10.9297 -2.8572,4.686 -4.5137,5.9686 -4.5193,3.4992 -0.0046,-2.1442 3.2188,-6.8234 7.1637,-10.3983 21.030203,-19.0585 22.544003,-20.9287 24.095203,-29.7711 2.4636,-14.0454 9.714,-23.1224 32.2771,-40.4095 11.4381,-8.7634 25.9942,-19.9675 32.3468,-24.898 6.3528,-4.9304 16.303,-15.0923 22.1116,-22.582 14.6969,-18.9498 21.016,-21.428699 61.8308,-24.254999 33.29134,-2.3052 34.02244,-2.4719 40.26164,-9.1782 18.0513,-19.4033 -5.1751,-33.9491 -29.53814,-18.4985 -5.8493,3.7095 -23.8223,12.0511 -39.9399,18.5368 -16.1177,6.4857 -33.1613,14.108799 -37.8745,16.940199 -4.7133,2.8313 -14.3028,8.52 -21.3103,12.6414 -7.0072,4.1214 -14.5498,10.2551 -16.7614,13.6304 -2.2116,3.3753 -13.532,13.1614 -25.1565,21.7467 -21.1969,15.655 -29.2252,25.0894 -32.3412,38.0043 -0.9199,3.8127 -3.5973,9.688 -5.9501,13.0562 -5.215703,7.4668 -17.034803,33.236 -23.156603,50.4884 -6.595,18.5858 -8.0558,48.4243 -3.2805,67.0107 7.5373,29.3384 23.854003,42.8707 52.651203,43.667 l 8.5538,0.2365 z m 141.9999,-137.1022 c -3.5994,-1.9973 -4.4192,-3.2183 -2.1746,-3.2395 1.981,-0.0187 5.6206,1.4926 8.0875,3.3585 5.6083,4.2421 1.8088,4.1656 -5.9129,-0.119 z m -93.4135,-30.6726 c -1.9999,-3.8677 -3.5299,-9.9433 -3.3998,-13.5014 l 0.2364,-6.4692 1.673,6.9322 c 0.9201,3.8126 2.9776,9.3608 4.5722,12.3291 1.5944,2.9684 2.3717,5.9245 1.727,6.5692 -0.6449,0.6447 -2.8087,-1.9923 -4.8088,-5.8599 z m 78.737,-17.9773 c -2.4352,-12.8149 1.4801,-26.8627 11.6816,-41.9145 4.545,-6.7059 8.7431,-11.7134 9.3288,-11.1276 0.5858,0.5857 -1.5091,4.5127 -4.6551,8.7266 -9.7748,13.0922 -11.7817,18.6556 -13.182,36.5455 -1.2944,16.5349 -1.44,16.8915 -3.1733,7.77 z m -55.9518,186.6227 c 1.8883,-3.6515 2.7817,-7.2909 1.9852,-8.0875 -0.7968,-0.7965 -11.8006,-1.4483 -24.4534,-1.4483 -20.5459,0 -22.6863,0.384 -20.0237,3.5923 4.3996,5.3011 11.447,8.6669 21.8471,10.4339 15.7262,2.6719 17.0951,2.3742 20.6448,-4.4904 z m 8.5665,-17.0799 c 3.2829,-6.1339 -2.3617,-7.2247 -25.3194,-4.8926 -11.0369,1.1212 -29.6184,1.8398 -41.2929,1.5968 -23.5288,-0.4896 -33.9006,-4.1673 -38.1683,-13.5337 -3.1435,-6.8992 -5.0683,-7.0583 -11.200703,-0.926 -3.3013,3.3014 -4.2672,6.2814 -3.1832,9.8205 3.717,12.1345 5.872903,12.4927 73.428403,12.2011 39.1395,-0.169 43.7748,-0.6014 45.7361,-4.2661 z m 38.7791,-38.2599 c -1.8098,-0.5573 -5.0907,-2.5808 -7.2908,-4.4967 -3.1421,-2.7361 -4.7143,-2.8911 -7.327,-0.7226 -2.8826,2.3924 -2.8211,3.6416 0.4608,9.3601 l 3.7874,6.5992 6.83,-4.8634 c 4.7848,-3.4071 5.8448,-5.1668 3.5396,-5.8766 z m 396.59614,-38.6391 c -1.2286,-6.5488 -7.5249,-21.4117 -23.5587,-55.6125 -1.8538,-3.9543 -5.9937,-8.3848 -9.1996,-9.8455 -5.3851,-2.4536 -5.7098,-2.2799 -4.2626,2.2799 0.9553,3.0098 0.6792,4.3874 -0.7075,3.5304 -1.2508,-0.773 -3.5201,-6.3623 -5.0431,-12.4206 -5.6028,-22.2862 -19.5979,-35.3011 -41.7028,-38.782 -5.7191,-0.9006 -11.958,-2.6055 -13.8643,-3.7885 -3.4291,-2.1281 0.6923,-1.7442 18.6597,1.7379 l 7.1063,1.3771 -3.6054,-6.9717 c -6.1441,-11.8817 -16.5814,-17.5292 -34.2401,-18.527 -17.3879,-0.9825 -21.6035,-4.9842 -5.2509,-4.9842 5.7191,0 10.3982,-0.96 10.3982,-2.1334 0,-5.5858 -12.357,-16.2831 -20.358,-17.6236 -16.4939,-2.763599 -23.1702,-5.961599 -36.1405,-17.311599 -9.4067,-8.2317 -15.0261,-11.4563 -19.9636,-11.4563 -10.0525,0 -21.3466,5.4087 -27.1331,12.994 -2.7888,3.6559 -9.6636,12.5227 -15.2773,19.704099 l -10.2066,13.0572 14.2816,8.8357 c 13.5592,8.389 15.5086,8.9029 38.544,10.162 25.8518,1.413 38.3324,5.4712 45.7235,14.8675 2.3283,2.96 7.791,5.7059 13.0486,6.5591 18.7798,3.0475 68.9096,39.0355 72.1039,51.7631 0.8929,3.5578 3.0377,5.3214 6.4709,5.3214 8.3618,0 28.5953,19.8162 31.5738,30.9227 4.111,15.3295 9.4795,26.8242 11.845,25.3622 1.2075,-0.7464 1.5491,-4.8042 0.7586,-9.0174 z m -193.0778,-158.0453 c 0,-1.3459 1.0398,-2.4471 2.3107,-2.4471 1.2709,0 2.3107,0.4586 2.3107,1.019 0,0.5605 -1.0398,1.6616 -2.3107,2.4471 -1.2709,0.7855 -2.3107,0.3269 -2.3107,-1.019 z m 15.3893,-2.592 c -11.2344,-0.9963 -21.1127,-2.5329 -21.9517,-3.4149 -2.7209,-2.860799 41.1438,0.2455 44.0153,3.1171 1.5145,1.5144 1.7656,2.6085 0.5583,2.4313 -1.2073,-0.1772 -11.3872,-1.1373 -22.6219,-2.1335 z"
       id="path4755"
       sodipodi:nodetypes="csssssssssscccssssssssssssssssssssssssssssssssssssssssssssssssccsssssssssssssssssssssssssccssssssccsssssccssccsssccssssccssssccscccccsscccccsccssccssssssccsssccssccssccssccccssccsssssssccsssccssssssccssccssccsscccccccssccssccsssccsssccssssccsssscccssssccssssssssssccsssssssscccsssssccsssssscccccssssccssscccccssssccssccccsccccccccssccssssssssssssccsssccssccssssssccccccccsssccssssccssssccssccsssscccccsssssscccsssssssscssssssssssssssssssssssssssssssssscccsssssssssscccssssssssssscccssscccsssssssssssssssssssssssssssssssssscccsssssscccssssssssssssssssssssssssssssssssssssssssssssssssssssssssssssccsssssccssssssssssssccssssssssccsssssssssccsssscccsssssssssssssssssssccssccccssssssccsssccsssssssscccccssssccssccccsssscccccssssssccsssccsssccsssssccccccccccccsssssccssccsssssssssssssssssssssssssscccccssssssssssssssssssssssssssssssscsscccssssscccsssccccccsssscccssssssscccsssssssssssssssssssssssssssssssssccccsscccccssccssssccssssccssssssccsscccccssssssscccssssssscccsssssssccsssccsssc"
       style="fill:#000000" />
  </g>
</svg>
