<?xml version="1.0" encoding="UTF-8" standalone="no"?>
<svg
   xmlns:dc="http://purl.org/dc/elements/1.1/"
   xmlns:cc="http://creativecommons.org/ns#"
   xmlns:rdf="http://www.w3.org/1999/02/22-rdf-syntax-ns#"
   xmlns:svg="http://www.w3.org/2000/svg"
   xmlns="http://www.w3.org/2000/svg"
   xmlns:sodipodi="http://sodipodi.sourceforge.net/DTD/sodipodi-0.dtd"
   xmlns:inkscape="http://www.inkscape.org/namespaces/inkscape"
   width="210mm"
   height="297mm"
   viewBox="0 0 210 297"
   version="1.1"
   id="svg8"
   inkscape:version="1.0.1 (1.0.1+r74)"
   sodipodi:docname="coffee.svg">
  <defs
     id="defs2" />
  <sodipodi:namedview
     id="base"
     pagecolor="#ffffff"
     bordercolor="#666666"
     borderopacity="1.0"
     inkscape:pageopacity="0.0"
     inkscape:pageshadow="2"
     inkscape:zoom="0.58781078"
     inkscape:cx="464.19352"
     inkscape:cy="663.95965"
     inkscape:document-units="mm"
     inkscape:current-layer="layer1"
     inkscape:document-rotation="0"
     showgrid="false"
     inkscape:snap-center="false"
     inkscape:window-width="1294"
     inkscape:window-height="704"
     inkscape:window-x="72"
     inkscape:window-y="27"
     inkscape:window-maximized="1" />
  <metadata
     id="metadata5">
    <rdf:RDF>
      <cc:Work
         rdf:about="">
        <dc:format>image/svg+xml</dc:format>
        <dc:type
           rdf:resource="http://purl.org/dc/dcmitype/StillImage" />
        <dc:title></dc:title>
      </cc:Work>
    </rdf:RDF>
  </metadata>
  <g
     inkscape:label="Layer 1"
     inkscape:groupmode="layer"
     id="layer1">
    <path
       style="fill:#b8b4b0;stroke:#000000;stroke-width:0.665;stroke-linecap:butt;stroke-linejoin:miter;stroke-opacity:1;stroke-miterlimit:4;stroke-dasharray:none;fill-opacity:1"
       d="m 55.845889,169.82497 91.308101,-0.005 -0.7108,10.97843 c 28.50164,-7.86007 13.58923,41.1248 -6.6356,28.48115 -7.92391,10.70262 -17.24955,21.27608 -22.46476,22.74376 L 85.985292,231.5985 C 56.857241,217.64651 59.320341,192.70279 55.845889,169.82497 Z"
       id="path10"
       sodipodi:nodetypes="ccccccc" />
    <path
       style="fill:#ffffff;stroke:#000000;stroke-width:0.665;stroke-linecap:butt;stroke-linejoin:miter;stroke-opacity:1;stroke-miterlimit:4;stroke-dasharray:none;fill-opacity:1;opacity:1;fill-rule:evenodd"
       d="m 141.52819,203.51732 c 14.62707,11.90076 25.58902,-27.99147 4.17845,-17.30028 z"
       id="path12"
       sodipodi:nodetypes="ccc" />
    <path
       style="fill:#c7b99e;stroke:#000000;stroke-width:0.765;stroke-linecap:butt;stroke-linejoin:miter;stroke-miterlimit:4;stroke-dasharray:none;stroke-opacity:1;fill-opacity:1"
       d="m 120.86362,110.04164 c -0.68124,24.51724 -23.895157,20.29583 -23.001689,45.5226 -4.781395,-10.51695 33.843289,-26.16044 23.001689,-45.5226 z"
       id="path16"
       sodipodi:nodetypes="ccc" />
    <path
       style="fill:#c7b99e;stroke:#000000;stroke-width:0.765;stroke-linecap:butt;stroke-linejoin:miter;stroke-opacity:1;stroke-miterlimit:4;stroke-dasharray:none;fill-opacity:1"
       d="M 105.9682,124.70843 C 92.255605,99.765467 102.77248,93.544684 114.36208,84.98519 105.82307,95.095529 100.5255,106.9735 105.9682,124.70843 Z"
       id="path18"
       sodipodi:nodetypes="ccc" />
    <path
       style="fill:#3b2f2f;stroke:#000000;stroke-width:0.264583px;stroke-linecap:butt;stroke-linejoin:miter;stroke-opacity:1;fill-opacity:1"
       d="m 62.238347,174.96511 c 1.20264,40.99564 13.261025,43.13544 23.791285,50.74484 l 30.602798,0.31892 c 24.98605,-14.82436 23.78954,-41.9294 24.57065,-50.67465 z"
       id="path873"
       sodipodi:nodetypes="ccccc" />
    <path
       style="fill:#f4bb42;fill-opacity:1;stroke:#000000;stroke-width:0.264583px;stroke-linecap:butt;stroke-linejoin:miter;stroke-opacity:1"
       d="m 62.238347,174.96511 0.09837,6.56972 78.472083,0.0517 0.39428,-6.23236 z"
       id="path875"
       sodipodi:nodetypes="ccccc" />
    <path
       style="fill:#580c07;stroke:#000000;stroke-width:0.264583px;stroke-linecap:butt;stroke-linejoin:miter;stroke-opacity:1;fill-opacity:1"
       d="m 62.336716,181.53483 1.840058,15.15538 74.250046,-0.0856 2.38198,-15.01806 z"
       id="path877" />
    <path
       style="fill:#1f0704;stroke:#000000;stroke-width:0.264583px;stroke-linecap:butt;stroke-linejoin:miter;stroke-opacity:1;fill-opacity:1"
       d="m 64.176774,196.69021 c 2.754153,14.65668 9.212088,22.75768 21.852858,29.01974 l 30.602798,0.31892 c 7.53313,-5.27557 15.16806,-8.83156 21.79439,-29.42426 z"
       id="path879"
       sodipodi:nodetypes="ccccc" />
    <path
       style="fill:#ffffff;fill-opacity:1;stroke:#000000;stroke-width:0.264583px;stroke-linecap:butt;stroke-linejoin:miter;stroke-opacity:1"
       d="m 117.27185,221.14887 c 5.92955,-2.87279 8.03137,-6.61046 10.76157,-10.20614 l -9.20111,-0.21197 c -0.88321,2.97056 -5.14139,6.54183 -9.74472,10.17453 z"
       id="path881"
       sodipodi:nodetypes="ccccc" />
  </g>
</svg>
