<?xml version="1.0" encoding="UTF-8" standalone="no"?>
<svg
   xmlns:dc="http://purl.org/dc/elements/1.1/"
   xmlns:cc="http://creativecommons.org/ns#"
   xmlns:rdf="http://www.w3.org/1999/02/22-rdf-syntax-ns#"
   xmlns:svg="http://www.w3.org/2000/svg"
   xmlns="http://www.w3.org/2000/svg"
   xmlns:sodipodi="http://sodipodi.sourceforge.net/DTD/sodipodi-0.dtd"
   xmlns:inkscape="http://www.inkscape.org/namespaces/inkscape"
   width="210mm"
   height="297mm"
   viewBox="0 0 210 297"
   version="1.1"
   id="svg8"
   inkscape:version="1.0.1 (1.0.1+r74)"
   sodipodi:docname="coffee2.svg">
  <defs
     id="defs2" />
  <sodipodi:namedview
     id="base"
     pagecolor="#ffffff"
     bordercolor="#666666"
     borderopacity="1.0"
     inkscape:pageopacity="0.0"
     inkscape:pageshadow="2"
     inkscape:zoom="0.5894754"
     inkscape:cx="213.9224"
     inkscape:cy="664.18148"
     inkscape:document-units="mm"
     inkscape:current-layer="layer1"
     inkscape:document-rotation="0"
     showgrid="false"
     inkscape:snap-center="false"
     inkscape:window-width="1294"
     inkscape:window-height="704"
     inkscape:window-x="72"
     inkscape:window-y="27"
     inkscape:window-maximized="1" />
  <metadata
     id="metadata5">
    <rdf:RDF>
      <cc:Work
         rdf:about="">
        <dc:format>image/svg+xml</dc:format>
        <dc:type
           rdf:resource="http://purl.org/dc/dcmitype/StillImage" />
        <dc:title></dc:title>
      </cc:Work>
    </rdf:RDF>
  </metadata>
  <g
     inkscape:label="Layer 1"
     inkscape:groupmode="layer"
     id="layer1">
    <path
       id="path10"
       style="fill:#fffffd;fill-opacity:1;stroke:#000000;stroke-width:2.51339;stroke-linecap:butt;stroke-linejoin:miter;stroke-miterlimit:4;stroke-dasharray:none;stroke-opacity:1"
       d="M 556.17188 641.83984 L 211.07031 641.85742 C 224.2021 728.32477 214.8941 822.6001 324.98438 875.33203 L 443.5 876.93945 C 463.21103 871.39232 498.45761 831.42936 528.40625 790.97852 C 604.84655 838.76554 661.20906 653.62468 553.48633 683.33203 L 556.17188 641.83984 z M 574.28516 696.85938 C 621.72346 696.05316 583.71505 808.90746 534.91016 769.19922 L 550.70312 703.8125 C 560.18615 699.07723 567.98804 696.96639 574.28516 696.85938 z "
       transform="scale(0.26458333)" />
    <path
       style="fill:#c7b99e;fill-opacity:1;stroke:#000000;stroke-width:0.765;stroke-linecap:butt;stroke-linejoin:miter;stroke-miterlimit:4;stroke-dasharray:none;stroke-opacity:1; animation: move_coffee_smoke_1 24s infinite;"
       d="m 120.86362,110.04164 c -0.68124,24.51724 -28.626279,27.13057 -27.732811,52.35734 -5.867579,-8.30941 40.378171,-24.82716 27.732811,-52.35734 z"
       id="path16"
       sodipodi:nodetypes="ccc" />
    <path
       style="fill:#c7b99e;fill-opacity:1;stroke:#000000;stroke-width:0.765;stroke-linecap:butt;stroke-linejoin:miter;stroke-miterlimit:4;stroke-dasharray:none;stroke-opacity:1;animation: move_coffee_smoke_2 24s infinite;"
       d="M 98.930475,132.41458 C 85.533244,108.27261 93.432229,102.53448 110.01085,88.971914 101.53375,103.61618 95.92855,117.73856 98.930475,132.41458 Z"
       id="path18"
       sodipodi:nodetypes="ccc" />
    <path
       style="fill:#dbded4;fill-opacity:1;stroke:#000000;stroke-width:0.665001;stroke-linecap:butt;stroke-linejoin:miter;stroke-miterlimit:4;stroke-dasharray:none;stroke-opacity:1"
       d="m 51.6748,169.67477 10.74825,0.16506 c 0.0915,21.96972 2.90372,42.97931 22.97813,61.74995 L 81.81421,231.4483 C 67.18324,224.14863 52.99468,216.62386 51.6748,169.67477"
       id="path1010"
       sodipodi:nodetypes="ccccc" />
  </g>
</svg>
