<?xml version="1.0" encoding="UTF-8" standalone="no"?>
<!-- Created with Inkscape (http://www.inkscape.org/) -->

<svg
   id="svg2"
   sodipodi:version="0.32"
   inkscape:version="1.1.2 (08b2f3d93c, 2022-04-05)"
   width="80"
   height="63"
   version="1.0"
   sodipodi:docname="Quotation_Marks.svg"
   xmlns:inkscape="http://www.inkscape.org/namespaces/inkscape"
   xmlns:sodipodi="http://sodipodi.sourceforge.net/DTD/sodipodi-0.dtd"
   xmlns="http://www.w3.org/2000/svg"
   xmlns:svg="http://www.w3.org/2000/svg"
   xmlns:rdf="http://www.w3.org/1999/02/22-rdf-syntax-ns#"
   xmlns:cc="http://creativecommons.org/ns#"
   xmlns:dc="http://purl.org/dc/elements/1.1/">
  <metadata
     id="metadata7">
    <rdf:RDF>
      <cc:Work
         rdf:about="">
        <dc:format>image/svg+xml</dc:format>
        <dc:type
           rdf:resource="http://purl.org/dc/dcmitype/StillImage" />
      </cc:Work>
    </rdf:RDF>
  </metadata>
  <defs
     id="defs5" />
  <sodipodi:namedview
     inkscape:window-height="704"
     inkscape:window-width="1294"
     inkscape:pageshadow="2"
     inkscape:pageopacity="0.0"
     guidetolerance="10.0"
     gridtolerance="10.0"
     objecttolerance="10.0"
     borderopacity="1.0"
     bordercolor="#666666"
     pagecolor="#ffffff"
     id="base"
     inkscape:zoom="1.9328967"
     inkscape:cx="61.824307"
     inkscape:cy="27.678664"
     inkscape:window-x="72"
     inkscape:window-y="27"
     inkscape:current-layer="svg2"
     inkscape:pagecheckerboard="0"
     showgrid="false"
     inkscape:window-maximized="1" />
  <path
     style="opacity:1;fill:#9acd32;fill-opacity:1"
     d="M 24.295394,26.863758 C 19.200505,21.145204 22.710131,11.190578 26.951762,7.3424212 30.566689,4.0628338 36.556731,1.3813774 37.121428,2.3183024 38.019154,3.8077781 34.48577,4.865211 31.829231,7.2558366 c -3.316285,3.5862374 -4.429869,5.1983654 0.158833,7.2214584 4.918582,2.219791 5.013045,4.39101 5.171088,7.153172 0.397878,6.953855 -7.89003,10.207018 -12.863758,5.233291 z"
     id="path1873"
     sodipodi:nodetypes="cssccsc" />
  <path
     style="opacity:1;fill:#9acd32;fill-opacity:1"
     d="M 5.1231491,26.764559 C 0.02826059,21.046005 3.5378861,11.091379 7.7795171,7.2432227 11.394445,3.9636353 17.384487,1.2821789 17.949184,2.2191039 18.84691,3.7085796 15.313526,4.7660125 12.656987,7.1566381 9.3407014,10.742875 8.2271171,12.355003 12.81582,14.378096 c 4.918582,2.219791 5.013045,4.39101 5.171088,7.153172 0.397878,6.953855 -7.89003,10.207018 -12.8637589,5.233291 z"
     id="path1875"
     sodipodi:nodetypes="cssccsc" />
  <path
     style="fill:#9acd32;fill-opacity:1"
     d="m 54.759662,33.989908 c 5.094889,5.718554 1.585263,15.67318 -2.656368,19.521337 -3.614927,3.279587 -9.604969,5.961044 -10.169666,5.024119 -0.897726,-1.489476 2.635658,-2.546909 5.292197,-4.937535 3.316285,-3.586237 4.429869,-5.198365 -0.158833,-7.221458 -4.918582,-2.219791 -5.013045,-4.39101 -5.171088,-7.153172 -0.397878,-6.953855 7.89003,-10.207018 12.863758,-5.233291 z"
     id="path1873-3"
     sodipodi:nodetypes="cssccsc" />
  <path
     style="fill:#9acd32;fill-opacity:1"
     d="m 73.931907,34.089107 c 5.094888,5.718554 1.585263,15.67318 -2.656368,19.521336 -3.614928,3.279588 -9.60497,5.961044 -10.169667,5.024119 -0.897726,-1.489476 2.635658,-2.546909 5.292197,-4.937534 3.316286,-3.586237 4.42987,-5.198365 -0.158833,-7.221458 -4.918582,-2.219791 -5.013045,-4.39101 -5.171088,-7.153172 -0.397878,-6.953855 7.89003,-10.207018 12.863759,-5.233291 z"
     id="path1875-6"
     sodipodi:nodetypes="cssccsc" />
</svg>
