<?xml version="1.0" standalone="no"?>

<svg width="220" height="180" xmlns="http://www.w3.org/2000/svg">
<g transform="translate(10 50)">
    
     <g transform="rotate(-80 160 -10)">
    <rect x="157.5" y="-70" width="5" height="60" stroke="black" 
          stroke-width="2px" rx="0.5" ry="0.5" fill="#ebebeb"> </rect> 
         
         <rect x="158" y="-120" width="4" height="50" stroke="black" 
          stroke-width="2px" rx="0.5" ry="0.5" fill="#ebebeb"> </rect> 
      
    
    <rect x="157" y="-125" width="6" height="5" stroke="black" 
          stroke-width="2px" rx="0.5" ry="0.5" fill="#ebebeb"> </rect> 
        </g>
    
    <rect x="155" y="-12" width="10" height="20" stroke="black" 
          stroke-width="2px" rx="2" ry="2" fill="#ebebeb"> </rect> 
    
    <rect x="30" y="-4" width="20" height="15" stroke="black" 
          stroke-width="2px" rx="2" ry="2" fill="#ebebeb"> </rect> 
    
     <rect x="55" y="-8" width="20" height="15" stroke="black" 
          stroke-width="2px" rx="2" ry="2" fill="#ebebeb"> </rect> 
   
     <rect x="80" y="-8" width="20" height="15" stroke="black" 
          stroke-width="2px" rx="2" ry="2" fill="#ebebeb"> </rect> 
    
    <rect x="105" y="-8" width="20" height="15" stroke="black" 
          stroke-width="2px" rx="2" ry="2" fill="#ebebeb"> </rect> 
    
    <circle cx="160" cy="-8" r="2" fill="black"/>
    
    <rect x="0" y="20" width="200" height="100" stroke="black" stroke-width="2px" fill="#d4a98a" rx="10" ry="10"> </rect>
    <rect x="0" y="0" width="200" height="40" stroke="black" stroke-width="2px" fill="#a29297" rx="10" ry="10"> </rect>
    
     <rect x="0" y="30" width="200" height="10" fill="#a29297"> </rect>
    <rect x="0" y="30" width="200" height="20" fill="#d4a98a"> </rect>
    
    <line x1="0" y1="50" x2="0" y2="30" stroke="black" stroke-width="2px"/> 
    
    <line x1="200" y1="50" x2="200" y2="30" stroke="black" stroke-width="2px"/> 
    
    <line x1="0" y1="30" x2="200" y2="30" stroke="black" stroke-width="2px"/> 
    
    <rect x="12" y="5" width="176" height="20" stroke="black" stroke-width="2px" fill="white" rx="8.25" ry="8.25"> </rect>
    
    <line x1="12" y1="10" x2="188" y2="10" stroke="black" stroke-width="2px"/> 
    
    <line x1="20.8" y1="10" x2="20.8" y2="13.75" stroke="black" stroke-width="2px"/> 
    
    <line x1="29.6" y1="10" x2="29.6" y2="17.5" stroke="black" stroke-width="2px"/> 
    
    <line x1="38.4" y1="10" x2="38.4" y2="13.75" stroke="black" stroke-width="2px"/> 
    
     <line x1="46.6" y1="10" x2="46.6" y2="17.5" stroke="black" stroke-width="2px"/> 
    
    <line x1="55.4" y1="10" x2="55.4" y2="13.75" stroke="black" stroke-width="2px"/> 
  
      
    <line x1="59.8" y1="13" x2="59.8" y2="25" stroke="red" stroke-width="3px"/> 
    
      
    <line x1="54.8" y1="25" x2="63.8" y2="25" stroke="black" stroke-width="2px"/> 
    
    
     <line x1="63.6" y1="10" x2="63.6" y2="17.5" stroke="black" stroke-width="2px"/>
    
    <line x1="72.4" y1="10" x2="72.4" y2="13.75" stroke="black" stroke-width="2px"/> 
    
    <line x1="81.2" y1="10" x2="81.2" y2="17.5" stroke="black" stroke-width="2px"/> 
    
    <line x1="90" y1="10" x2="90" y2="13.75" stroke="black" stroke-width="2px"/> 
    
    <line x1="98.8" y1="10" x2="98.8" y2="17.5" stroke="black" stroke-width="2px"/>
    
    <line x1="108.6" y1="10" x2="108.6" y2="13.75" stroke="black" stroke-width="2px"/>
    
    <line x1="117.4" y1="10" x2="117.4" y2="17.5" stroke="black" stroke-width="2px"/>
    
    <line x1="126.2" y1="10" x2="126.2" y2="13.75" stroke="black" stroke-width="2px"/>
    
    <line x1="135" y1="10" x2="135" y2="17.5" stroke="black" stroke-width="2px"/>
    
     <line x1="147.8" y1="10" x2="147.8" y2="13.75" stroke="black" stroke-width="2px"/>
    
    <line x1="156.6" y1="10" x2="156.6" y2="17.5" stroke="black" stroke-width="2px"/>
    
    <line x1="165.4" y1="10" x2="165.4" y2="13.75" stroke="black" stroke-width="2px"/>
    
    <line x1="178.2" y1="10" x2="178.2" y2="17.5" stroke="black" stroke-width="2px"/>
    
    <line x1="187" y1="10" x2="187" y2="13.75" stroke="black" stroke-width="2px"/>
   
    <circle cx="169" cy="61" r="20" stroke="black" stroke-width="2px" fill="#a29297"/>
    
        <circle cx="186" cy="61" r="2" fill="red"/>
    
    <circle cx="169" cy="100" r="11" stroke="black" stroke-width="2px" fill="#a29297"/>
    
    <circle cx="169" cy="108" r="2" fill="black"/>
    
    <rect x="12" y="37" width="126" height="76" stroke="black" stroke-width="2px" fill="#a29297" rx="7.5" ry="7.5"> </rect>
     
    <line x1="24" y1="43" x2="126" y2="43" stroke="black" stroke-width="2px"/> 
     <line x1="24" y1="51" x2="126" y2="51" stroke="black" stroke-width="2px"/>
     <line x1="24" y1="59" x2="126" y2="59" stroke="black" stroke-width="2px"/>
     <line x1="24" y1="67" x2="126" y2="67" stroke="black" stroke-width="2px"/>
     <line x1="24" y1="75" x2="126" y2="75" stroke="black" stroke-width="2px"/>
     <line x1="24" y1="83" x2="126" y2="83" stroke="black" stroke-width="2px"/>
     <line x1="24" y1="91" x2="126" y2="91" stroke="black" stroke-width="2px"/>
     <line x1="24" y1="99" x2="126" y2="99" stroke="black" stroke-width="2px"/>
     <line x1="24" y1="107" x2="126" y2="107" stroke="black" stroke-width="2px"/>
    
    </g> 
</svg>