<?xml version="1.0" encoding="UTF-8" standalone="no"?>
<svg
   version="1.1"
   id="svg8346"
   xml:space="preserve"
   width="300"
   height="300"
   viewBox="0 0 300 300.00001"
   sodipodi:docname="Standalone(8).svg"
   inkscape:version="1.1.1 (eb90963e84, 2021-10-02)"
   xmlns:inkscape="http://www.inkscape.org/namespaces/inkscape"
   xmlns:sodipodi="http://sodipodi.sourceforge.net/DTD/sodipodi-0.dtd"
   xmlns="http://www.w3.org/2000/svg"
   xmlns:svg="http://www.w3.org/2000/svg"
   xmlns:rdf="http://www.w3.org/1999/02/22-rdf-syntax-ns#"
   xmlns:cc="http://creativecommons.org/ns#"
   xmlns:dc="http://purl.org/dc/elements/1.1/"><metadata
     id="metadata8352"><rdf:RDF><cc:Work
         rdf:about=""><dc:format>image/svg+xml</dc:format><dc:type
           rdf:resource="http://purl.org/dc/dcmitype/StillImage" /></cc:Work></rdf:RDF></metadata><defs
     id="defs8350"><clipPath
       clipPathUnits="userSpaceOnUse"
       id="clipPath8384"><path
         d="m 35.86609,0 0.83781,3.08565 -2.18698,3.63186 0.34768,1.69535 0.34026,2.71231 -2.21717,4.38926 -2.26502,1.67548 -0.22275,3.80156 -1.41,1.1311 -2.51318,2.57398 -2.61899,1.49829 -2.56557,2.30676 -2.0115,2.72003 -2.47957,1.46381 -3.30399,0.85197 -2.45999,1.00501 -3.11273,1.60288 -1.83295,-0.78794 -3.642,-0.2214 -2.55405,0.81909 -3.5062,-1.08322 -3.35408,1.45872 -2.77115,-0.69597 -1.29872,-1.20836 -4.20908,-1.13899 -2.19669,-2.65353 -1.95074,-0.27494 -2.67789,-1.10228 -1.6488,-3.137 -2.15314,-1.44208 -2.11906,-2.50159 -3.41595,-2.88095 -1.22297,-2.18347 0.19107,-2.72331 -1.36142,-2.53134 -0.74464,-4.10503 -0.76807,-2.50861 0.18057,-2.02972 -0.92349,-3.21798 -0.57625,-3.94807 0.55387,-1.82252 0.13511,-2.33493 2.3687,-3.15605 0.9368,-3.71724 0.89667,-1.9567 1.73427,-3.39946 1.64309,-1.83653 2.69841,-1.75318 1.05515,-1.7221 1.62744,-3.13077 3.84427,-1.82887 2.38927,-1.03928 2.15992,-0.96837 3.99222,-1.98442 1.70461,-0.38248 3.10463,0.1651 3.67871,-2.06616 2.01276,0.93158 3.15096,-0.17407 2.64872,0.40765 2.52056,1.05365 4.05986,1.06795 2.29326,-0.22243 3.43782,2.51755 1.10509,1.81005 2.70623,1.61146 2.96867,1.41173 2.21425,2.74103 2.11982,1.68727 1.9159,2.42149 0.2008,3.64226 1.36796,1.42694 1.84512,3.81425 0.17529,3.28399 1.47124,0.86474 0.12715,4.18535 -0.37825,2.40879"
         id="path8382" /></clipPath><clipPath
       clipPathUnits="userSpaceOnUse"
       id="clipPath11076"><path
         d="m 35.86609,0 0.78735,2.02887 -0.28126,4.94266 -1.68511,2.13051 -1.07258,2.11131 -1.39699,3.62575 -0.56586,2.87848 -1.6551,1.47389 -1.69756,3.83597 -1.4492,0.83285 -2.29549,3.72491 -3.01779,0.81208 -1.25371,2.38262 -3.07584,1.1383 -3.08851,0.69146 -2.10954,1.2374 -2.84339,0.54914 -3.85581,0.3608 -2.85906,0.23458 -2.45524,0.96347 -3.40981,0.41632 -1.70453,-1.53203 -2.85948,-0.11017 -4.29424,0.06293 -1.88061,-2.69925 -2.76807,0.46419 -3.22733,-1.65304 -1.50335,-2.58396 -2.87661,-1.56607 -2.27577,-1.71298 -2.74911,-3.53729 0.04524,-2.03504 -1.40015,-2.31247 -1.40606,-3.09081 -1.70792,-3.68135 -0.80446,-1.78828 -0.05022,-2.94823 -1.62493,-2.38028 0.54696,-3.27184 0.59798,-2.758 -0.54445,-2.25808 0.6879,-3.00698 1.87651,-2.82422 0.81466,-4.17582 1.41381,-2.92857 0.8726,-1.55623 2.44199,-2.97473 1.06286,-2.63342 2.84093,-0.95955 1.29606,-3.16113 3.65717,-1.64562 1.54192,-0.41095 3.93916,-1.22944 2.40198,-1.62209 2.16325,-0.29239 3.02898,-1.11918 3.38237,0.17578 2.48397,-0.56983 3.92912,-0.04608 1.71746,0.71207 3.21126,0.72786 2.93894,0.95475 1.91163,0.859 3.38153,1.8862 3.36536,0.19507 1.13191,2.8047 3.24009,1.99651 0.95472,1.54255 1.77538,2.30947 1.66082,2.75384 1.82207,2.96266 2.62358,1.37917 0.34224,3.59875 0.81023,2.31707 0.69739,3.3489 -0.02956,3.22602 0.46628,2.43114"
         id="path11074" /></clipPath><clipPath
       clipPathUnits="userSpaceOnUse"
       id="clipPath13810"><path
         d="m 35.86609,0 0.91919,2.77107 -2.0884,2.46259 0.20588,4.43966 -0.89449,2.50306 -1.8038,1.86764 -1.30515,2.91288 -0.35205,3.50373 -2.41734,1.18709 -1.06017,3.50777 -2.30269,0.95083 -3.01897,1.31447 -3.3199,3.11794 -1.83208,0.87574 -2.32844,1.84179 -3.43362,1.98652 -2.26314,-1.05433 -3.26834,0.90571 -2.9893,1.08266 -2.31788,-0.22177 -2.7541,0.6226 -4.05221,-0.28659 -1.48619,-1.963 -3.5918,0.077 -2.20458,-1.24342 -3.06428,-1.97676 -1.95261,-1.87808 -2.86424,-1.1547 -3.53555,-2.12499 -1.62535,-2.12518 -0.98873,-1.37453 -2.24783,-2.7085 -1.84302,-3.80463 -0.74405,-1.18108 -0.44627,-3.91786 -2.2879,-2.97838 0.21289,-3.00575 0.16026,-2.68785 -0.63489,-2.24795 -0.90202,-2.92829 1.29564,-3.64108 1.19456,-1.59055 1.43891,-4.30025 0.10853,-2.2456 1.19075,-2.46476 2.69615,-2.97659 1.82578,-2.35771 0.59921,-2.53058 2.25521,-0.68494 2.04484,-3.68002 3.2912,-0.96983 1.90092,-0.44547 2.53247,-1.97572 3.22072,-2.22969 2.72683,0.49246 2.54682,-0.67793 3.99808,-0.22452 1.99505,-0.51938 2.47236,-0.58209 3.27449,1.7106 3.53082,-0.28422 2.17691,1.71304 2.96514,-0.05786 2.59925,2.80553 1.72159,1.06269 3.98099,0.47535 2.78899,3.05439 1.53285,1.19678 1.35762,2.31631 1.55672,3.3098 2.72369,2.88016 0.60054,1.8588 1.31741,3.19261 0.3302,2.15199 1.11194,3.54964 0.52788,3.78282 -0.61894,1.82331"
         id="path13808" /></clipPath></defs><sodipodi:namedview
     pagecolor="#ffffff"
     bordercolor="#666666"
     borderopacity="1"
     objecttolerance="10"
     gridtolerance="10"
     guidetolerance="10"
     inkscape:pageopacity="0"
     inkscape:pageshadow="2"
     inkscape:window-width="1294"
     inkscape:window-height="704"
     id="namedview8348"
     showgrid="false"
     inkscape:zoom="1.0095384"
     inkscape:cx="427.42306"
     inkscape:cy="82.711067"
     inkscape:window-x="72"
     inkscape:window-y="27"
     inkscape:window-maximized="1"
     inkscape:current-layer="g8354"
     inkscape:pagecheckerboard="0" /><g
     id="g8354"
     inkscape:groupmode="layer"
     inkscape:label="Standalone"
     transform="matrix(1.3333333,0,0,-1.3333333,0,120.94533)"><rect
       style="fill:#eff8fb;fill-opacity:1;stroke:#000000;stroke-width:0;stroke-miterlimit:4;stroke-dasharray:none;stroke-dashoffset:0"
       id="rect15588"
       width="225.00011"
       height="225.12317"
       x="5.771447e-07"
       y="-90.709"
       transform="scale(1,-1)" /><path
       style="fill:#bfbfbf;fill-opacity:1;stroke:#000000;stroke-width:0.75px;stroke-linecap:butt;stroke-linejoin:miter;stroke-opacity:1"
       d="m 107.30997,23.662695 10.55386,-0.48912 47.92031,-82.515063 -5.42321,-9.879191 -96.111194,3.68e-4 -4.84712,9.986736 z"
       id="path15832"
       sodipodi:nodetypes="ccccccc" /><path
       style="fill:#eff8fb;fill-opacity:1;stroke:#000000;stroke-width:0.75px;stroke-linecap:butt;stroke-linejoin:miter;stroke-opacity:1"
       d="M 112.31577,-5.7002553 87.091966,-49.836624 137.81066,-49.871074 Z"
       id="path24637"
       sodipodi:nodetypes="cccc" /><path
       style="fill:#dfdfdf;fill-opacity:1;stroke:#000000;stroke-width:0.75px;stroke-linecap:butt;stroke-linejoin:miter;stroke-opacity:1"
       d="m 137.81066,-49.871074 5.6833,-9.452311 -84.091344,0.08981 47.907354,82.89627 10.55386,-0.48912 -42.088824,-73.140944 z"
       id="path27909" /><path
       style="fill:#8c8c8c;fill-opacity:1;stroke:#000000;stroke-width:0.75px;stroke-linecap:butt;stroke-linejoin:miter;stroke-opacity:1"
       d="m 112.31577,-5.7002553 6.07794,10.11413 41.96722,-73.6345537 -96.111194,3.68e-4 -4.84712,9.986736 84.091344,-0.08981 z"
       id="path34241"
       sodipodi:nodetypes="ccccccc" /></g></svg>
