<?xml version="1.0" encoding="UTF-8" standalone="no"?>
<svg
   xmlns:dc="http://purl.org/dc/elements/1.1/"
   xmlns:cc="http://creativecommons.org/ns#"
   xmlns:rdf="http://www.w3.org/1999/02/22-rdf-syntax-ns#"
   xmlns:svg="http://www.w3.org/2000/svg"
   xmlns="http://www.w3.org/2000/svg"
   xmlns:sodipodi="http://sodipodi.sourceforge.net/DTD/sodipodi-0.dtd"
   xmlns:inkscape="http://www.inkscape.org/namespaces/inkscape"
   version="1.1"
   id="svg62"
   xml:space="preserve"
   width="151.71333"
   height="151.71333"
   viewBox="0 0 151.71333 151.71333"
   sodipodi:docname="Standalone(5).svg"
   inkscape:version="1.0.1 (1.0.1+r74)"><metadata
     id="metadata68"><rdf:RDF><cc:Work
         rdf:about=""><dc:format>image/svg+xml</dc:format><dc:type
           rdf:resource="http://purl.org/dc/dcmitype/StillImage" /><dc:title></dc:title></cc:Work></rdf:RDF></metadata><defs
     id="defs66" /><sodipodi:namedview
     pagecolor="#ffffff"
     bordercolor="#666666"
     borderopacity="1"
     objecttolerance="10"
     gridtolerance="10"
     guidetolerance="10"
     inkscape:pageopacity="0"
     inkscape:pageshadow="2"
     inkscape:window-width="1294"
     inkscape:window-height="704"
     id="namedview64"
     showgrid="false"
     inkscape:zoom="3.4341082"
     inkscape:cx="75.856667"
     inkscape:cy="75.856667"
     inkscape:window-x="72"
     inkscape:window-y="27"
     inkscape:window-maximized="1"
     inkscape:current-layer="g70" /><g
     id="g70"
     inkscape:groupmode="layer"
     inkscape:label="Standalone Square ice"
     transform="matrix(1.3333333,0,0,-1.3333333,0,151.71333)"><g
       id="g72"
       transform="translate(22.876,22.876)"><g
         id="g74"><g
           id="g76"><g
             id="g78"><path
               d="M -22.67752,-22.67752 V 90.71013 H 90.71013 V -22.67752 Z"
               style="fill:#eff8fb;fill-opacity:1;fill-rule:nonzero;stroke:none"
               id="path80" /></g><g
             id="g82"><path
               d="M -22.67752,-22.67752 V 90.71013 H 90.71013 V -22.67752 Z"
               style="fill:none;stroke:#000000;stroke-width:0.3985;stroke-linecap:butt;stroke-linejoin:miter;stroke-miterlimit:10;stroke-dasharray:2.98883, 2.98883;stroke-dashoffset:0;stroke-opacity:1"
               id="path84" /></g><path
             d="M -22.67752,0 H 90.71013"
             style="fill:none;stroke:#000000;stroke-width:0.3985;stroke-linecap:butt;stroke-linejoin:miter;stroke-miterlimit:10;stroke-dasharray:none;stroke-opacity:1"
             id="path86" /><path
             d="M -22.67752,22.67752 H 90.71013"
             style="fill:none;stroke:#000000;stroke-width:0.3985;stroke-linecap:butt;stroke-linejoin:miter;stroke-miterlimit:10;stroke-dasharray:none;stroke-opacity:1"
             id="path88" /><path
             d="M -22.67752,45.35506 H 90.71013"
             style="fill:none;stroke:#000000;stroke-width:0.3985;stroke-linecap:butt;stroke-linejoin:miter;stroke-miterlimit:10;stroke-dasharray:none;stroke-opacity:1"
             id="path90" /><path
             d="M -22.67752,68.0326 H 90.71013"
             style="fill:none;stroke:#000000;stroke-width:0.3985;stroke-linecap:butt;stroke-linejoin:miter;stroke-miterlimit:10;stroke-dasharray:none;stroke-opacity:1"
             id="path92" /><path
             d="M 0,-22.67752 V 90.71013"
             style="fill:none;stroke:#000000;stroke-width:0.3985;stroke-linecap:butt;stroke-linejoin:miter;stroke-miterlimit:10;stroke-dasharray:none;stroke-opacity:1"
             id="path94" /><path
             d="M 22.67752,-22.67752 V 90.71013"
             style="fill:none;stroke:#000000;stroke-width:0.3985;stroke-linecap:butt;stroke-linejoin:miter;stroke-miterlimit:10;stroke-dasharray:none;stroke-opacity:1"
             id="path96" /><path
             d="M 45.35506,-22.67752 V 90.71013"
             style="fill:none;stroke:#000000;stroke-width:0.3985;stroke-linecap:butt;stroke-linejoin:miter;stroke-miterlimit:10;stroke-dasharray:none;stroke-opacity:1"
             id="path98" /><path
             d="M 68.0326,-22.67752 V 90.71013"
             style="fill:none;stroke:#000000;stroke-width:0.3985;stroke-linecap:butt;stroke-linejoin:miter;stroke-miterlimit:10;stroke-dasharray:none;stroke-opacity:1"
             id="path100" /><g
             id="g102"><path
               d="M 3.1881,0 C 3.1881,1.76074 1.76074,3.1881 0,3.1881 -1.76074,3.1881 -3.1881,1.76074 -3.1881,0 c 0,-1.76074 1.42736,-3.1881 3.1881,-3.1881 1.76074,0 3.1881,1.42736 3.1881,3.1881 z"
               style="fill:#ff0000;fill-opacity:1;fill-rule:nonzero;stroke:#000000;stroke-width:0.3985;stroke-linecap:butt;stroke-linejoin:miter;stroke-miterlimit:10;stroke-dasharray:none;stroke-opacity:1"
               id="path104" /></g><g
             id="g106"><path
               d="m 25.86562,0 c 0,1.76074 -1.42736,3.1881 -3.1881,3.1881 -1.76076,0 -3.18811,-1.42736 -3.18811,-3.1881 0,-1.76074 1.42735,-3.1881 3.18811,-3.1881 1.76074,0 3.1881,1.42736 3.1881,3.1881 z"
               style="fill:#ff0000;fill-opacity:1;fill-rule:nonzero;stroke:#000000;stroke-width:0.3985;stroke-linecap:butt;stroke-linejoin:miter;stroke-miterlimit:10;stroke-dasharray:none;stroke-opacity:1"
               id="path108" /></g><g
             id="g110"><path
               d="m 48.54315,0 c 0,1.76074 -1.42735,3.1881 -3.18809,3.1881 -1.76076,0 -3.18811,-1.42736 -3.18811,-3.1881 0,-1.76074 1.42735,-3.1881 3.18811,-3.1881 1.76074,0 3.18809,1.42736 3.18809,3.1881 z"
               style="fill:#ff0000;fill-opacity:1;fill-rule:nonzero;stroke:#000000;stroke-width:0.3985;stroke-linecap:butt;stroke-linejoin:miter;stroke-miterlimit:10;stroke-dasharray:none;stroke-opacity:1"
               id="path112" /></g><g
             id="g114"><path
               d="m 71.22069,0 c 0,1.76074 -1.42736,3.1881 -3.18809,3.1881 -1.76076,0 -3.18812,-1.42736 -3.18812,-3.1881 0,-1.76074 1.42736,-3.1881 3.18812,-3.1881 1.76073,0 3.18809,1.42736 3.18809,3.1881 z"
               style="fill:#ff0000;fill-opacity:1;fill-rule:nonzero;stroke:#000000;stroke-width:0.3985;stroke-linecap:butt;stroke-linejoin:miter;stroke-miterlimit:10;stroke-dasharray:none;stroke-opacity:1"
               id="path116" /></g><g
             id="g118"><path
               d="m 3.1881,22.67752 c 0,1.76074 -1.42736,3.1881 -3.1881,3.1881 -1.76074,0 -3.1881,-1.42736 -3.1881,-3.1881 0,-1.76076 1.42736,-3.18811 3.1881,-3.18811 1.76074,0 3.1881,1.42735 3.1881,3.18811 z"
               style="fill:#ff0000;fill-opacity:1;fill-rule:nonzero;stroke:#000000;stroke-width:0.3985;stroke-linecap:butt;stroke-linejoin:miter;stroke-miterlimit:10;stroke-dasharray:none;stroke-opacity:1"
               id="path120" /></g><g
             id="g122"><path
               d="m 25.86562,22.67752 c 0,1.76074 -1.42736,3.1881 -3.1881,3.1881 -1.76076,0 -3.18811,-1.42736 -3.18811,-3.1881 0,-1.76076 1.42735,-3.18811 3.18811,-3.18811 1.76074,0 3.1881,1.42735 3.1881,3.18811 z"
               style="fill:#ff0000;fill-opacity:1;fill-rule:nonzero;stroke:#000000;stroke-width:0.3985;stroke-linecap:butt;stroke-linejoin:miter;stroke-miterlimit:10;stroke-dasharray:none;stroke-opacity:1"
               id="path124" /></g><g
             id="g126"><path
               d="m 48.54315,22.67752 c 0,1.76074 -1.42735,3.1881 -3.18809,3.1881 -1.76076,0 -3.18811,-1.42736 -3.18811,-3.1881 0,-1.76076 1.42735,-3.18811 3.18811,-3.18811 1.76074,0 3.18809,1.42735 3.18809,3.18811 z"
               style="fill:#ff0000;fill-opacity:1;fill-rule:nonzero;stroke:#000000;stroke-width:0.3985;stroke-linecap:butt;stroke-linejoin:miter;stroke-miterlimit:10;stroke-dasharray:none;stroke-opacity:1"
               id="path128" /></g><g
             id="g130"><path
               d="m 71.22069,22.67752 c 0,1.76074 -1.42736,3.1881 -3.18809,3.1881 -1.76076,0 -3.18812,-1.42736 -3.18812,-3.1881 0,-1.76076 1.42736,-3.18811 3.18812,-3.18811 1.76073,0 3.18809,1.42735 3.18809,3.18811 z"
               style="fill:#ff0000;fill-opacity:1;fill-rule:nonzero;stroke:#000000;stroke-width:0.3985;stroke-linecap:butt;stroke-linejoin:miter;stroke-miterlimit:10;stroke-dasharray:none;stroke-opacity:1"
               id="path132" /></g><g
             id="g134"><path
               d="m 3.1881,45.35506 c 0,1.76074 -1.42736,3.18809 -3.1881,3.18809 -1.76074,0 -3.1881,-1.42735 -3.1881,-3.18809 0,-1.76076 1.42736,-3.18811 3.1881,-3.18811 1.76074,0 3.1881,1.42735 3.1881,3.18811 z"
               style="fill:#ff0000;fill-opacity:1;fill-rule:nonzero;stroke:#000000;stroke-width:0.3985;stroke-linecap:butt;stroke-linejoin:miter;stroke-miterlimit:10;stroke-dasharray:none;stroke-opacity:1"
               id="path136" /></g><g
             id="g138"><path
               d="m 25.86562,45.35506 c 0,1.76074 -1.42736,3.18809 -3.1881,3.18809 -1.76076,0 -3.18811,-1.42735 -3.18811,-3.18809 0,-1.76076 1.42735,-3.18811 3.18811,-3.18811 1.76074,0 3.1881,1.42735 3.1881,3.18811 z"
               style="fill:#ff0000;fill-opacity:1;fill-rule:nonzero;stroke:#000000;stroke-width:0.3985;stroke-linecap:butt;stroke-linejoin:miter;stroke-miterlimit:10;stroke-dasharray:none;stroke-opacity:1"
               id="path140" /></g><g
             id="g142"><path
               d="m 48.54315,45.35506 c 0,1.76074 -1.42735,3.18809 -3.18809,3.18809 -1.76076,0 -3.18811,-1.42735 -3.18811,-3.18809 0,-1.76076 1.42735,-3.18811 3.18811,-3.18811 1.76074,0 3.18809,1.42735 3.18809,3.18811 z"
               style="fill:#ff0000;fill-opacity:1;fill-rule:nonzero;stroke:#000000;stroke-width:0.3985;stroke-linecap:butt;stroke-linejoin:miter;stroke-miterlimit:10;stroke-dasharray:none;stroke-opacity:1"
               id="path144" /></g><g
             id="g146"><path
               d="m 71.22069,45.35506 c 0,1.76074 -1.42736,3.18809 -3.18809,3.18809 -1.76076,0 -3.18812,-1.42735 -3.18812,-3.18809 0,-1.76076 1.42736,-3.18811 3.18812,-3.18811 1.76073,0 3.18809,1.42735 3.18809,3.18811 z"
               style="fill:#ff0000;fill-opacity:1;fill-rule:nonzero;stroke:#000000;stroke-width:0.3985;stroke-linecap:butt;stroke-linejoin:miter;stroke-miterlimit:10;stroke-dasharray:none;stroke-opacity:1"
               id="path148" /></g><g
             id="g150"><path
               d="m 3.1881,68.0326 c 0,1.76073 -1.42736,3.18809 -3.1881,3.18809 -1.76074,0 -3.1881,-1.42736 -3.1881,-3.18809 0,-1.76076 1.42736,-3.18812 3.1881,-3.18812 1.76074,0 3.1881,1.42736 3.1881,3.18812 z"
               style="fill:#ff0000;fill-opacity:1;fill-rule:nonzero;stroke:#000000;stroke-width:0.3985;stroke-linecap:butt;stroke-linejoin:miter;stroke-miterlimit:10;stroke-dasharray:none;stroke-opacity:1"
               id="path152" /></g><g
             id="g154"><path
               d="m 25.86562,68.0326 c 0,1.76073 -1.42736,3.18809 -3.1881,3.18809 -1.76076,0 -3.18811,-1.42736 -3.18811,-3.18809 0,-1.76076 1.42735,-3.18812 3.18811,-3.18812 1.76074,0 3.1881,1.42736 3.1881,3.18812 z"
               style="fill:#ff0000;fill-opacity:1;fill-rule:nonzero;stroke:#000000;stroke-width:0.3985;stroke-linecap:butt;stroke-linejoin:miter;stroke-miterlimit:10;stroke-dasharray:none;stroke-opacity:1"
               id="path156" /></g><g
             id="g158"><path
               d="m 48.54315,68.0326 c 0,1.76073 -1.42735,3.18809 -3.18809,3.18809 -1.76076,0 -3.18811,-1.42736 -3.18811,-3.18809 0,-1.76076 1.42735,-3.18812 3.18811,-3.18812 1.76074,0 3.18809,1.42736 3.18809,3.18812 z"
               style="fill:#ff0000;fill-opacity:1;fill-rule:nonzero;stroke:#000000;stroke-width:0.3985;stroke-linecap:butt;stroke-linejoin:miter;stroke-miterlimit:10;stroke-dasharray:none;stroke-opacity:1"
               id="path160" /></g><g
             id="g162"><path
               d="m 71.22069,68.0326 c 0,1.76073 -1.42736,3.18809 -3.18809,3.18809 -1.76076,0 -3.18812,-1.42736 -3.18812,-3.18809 0,-1.76076 1.42736,-3.18812 3.18812,-3.18812 1.76073,0 3.18809,1.42736 3.18809,3.18812 z"
               style="fill:#ff0000;fill-opacity:1;fill-rule:nonzero;stroke:#000000;stroke-width:0.3985;stroke-linecap:butt;stroke-linejoin:miter;stroke-miterlimit:10;stroke-dasharray:none;stroke-opacity:1"
               id="path164" /></g><g
             id="g166"><path
               d="m -3.5971,0 c 0,1.14447 -0.92777,2.07225 -2.07226,2.07225 -1.14448,0 -2.07225,-0.92778 -2.07225,-2.07225 0,-1.14447 0.92777,-2.07225 2.07225,-2.07225 1.14449,0 2.07226,0.92778 2.07226,2.07225 z"
               style="fill:#ffffff;fill-opacity:1;fill-rule:nonzero;stroke:#000000;stroke-width:0.3985;stroke-linecap:butt;stroke-linejoin:miter;stroke-miterlimit:10;stroke-dasharray:none;stroke-opacity:1"
               id="path168" /></g><g
             id="g170"><path
               d="m 2.07225,5.66936 c 0,1.14448 -0.92778,2.07225 -2.07225,2.07225 -1.14447,0 -2.07225,-0.92777 -2.07225,-2.07225 0,-1.14449 0.92778,-2.07226 2.07225,-2.07226 1.14447,0 2.07225,0.92777 2.07225,2.07226 z"
               style="fill:#ffffff;fill-opacity:1;fill-rule:nonzero;stroke:#000000;stroke-width:0.3985;stroke-linecap:butt;stroke-linejoin:miter;stroke-miterlimit:10;stroke-dasharray:none;stroke-opacity:1"
               id="path172" /></g><g
             id="g174"><path
               d="m 19.08038,0 c 0,1.14447 -0.92776,2.07225 -2.07225,2.07225 -1.14448,0 -2.07225,-0.92778 -2.07225,-2.07225 0,-1.14447 0.92777,-2.07225 2.07225,-2.07225 1.14449,0 2.07225,0.92778 2.07225,2.07225 z"
               style="fill:#ffffff;fill-opacity:1;fill-rule:nonzero;stroke:#000000;stroke-width:0.3985;stroke-linecap:butt;stroke-linejoin:miter;stroke-miterlimit:10;stroke-dasharray:none;stroke-opacity:1"
               id="path176" /></g><g
             id="g178"><path
               d="m 30.41914,0 c 0,1.14447 -0.92776,2.07225 -2.07224,2.07225 -1.14449,0 -2.07226,-0.92778 -2.07226,-2.07225 0,-1.14447 0.92777,-2.07225 2.07226,-2.07225 1.14448,0 2.07224,0.92778 2.07224,2.07225 z"
               style="fill:#ffffff;fill-opacity:1;fill-rule:nonzero;stroke:#000000;stroke-width:0.3985;stroke-linecap:butt;stroke-linejoin:miter;stroke-miterlimit:10;stroke-dasharray:none;stroke-opacity:1"
               id="path180" /></g><g
             id="g182"><path
               d="m 47.4273,5.66936 c 0,1.14448 -0.92777,2.07225 -2.07224,2.07225 -1.14449,0 -2.07227,-0.92777 -2.07227,-2.07225 0,-1.14449 0.92778,-2.07226 2.07227,-2.07226 1.14447,0 2.07224,0.92777 2.07224,2.07226 z"
               style="fill:#ffffff;fill-opacity:1;fill-rule:nonzero;stroke:#000000;stroke-width:0.3985;stroke-linecap:butt;stroke-linejoin:miter;stroke-miterlimit:10;stroke-dasharray:none;stroke-opacity:1"
               id="path184" /></g><g
             id="g186"><path
               d="m 53.09668,0 c 0,1.14447 -0.92777,2.07225 -2.07225,2.07225 -1.14449,0 -2.07225,-0.92778 -2.07225,-2.07225 0,-1.14447 0.92776,-2.07225 2.07225,-2.07225 1.14448,0 2.07225,0.92778 2.07225,2.07225 z"
               style="fill:#ffffff;fill-opacity:1;fill-rule:nonzero;stroke:#000000;stroke-width:0.3985;stroke-linecap:butt;stroke-linejoin:miter;stroke-miterlimit:10;stroke-dasharray:none;stroke-opacity:1"
               id="path188" /></g><g
             id="g190"><path
               d="m 70.10484,5.66936 c 0,1.14448 -0.92778,2.07225 -2.07224,2.07225 -1.1445,0 -2.07227,-0.92777 -2.07227,-2.07225 0,-1.14449 0.92777,-2.07226 2.07227,-2.07226 1.14446,0 2.07224,0.92777 2.07224,2.07226 z"
               style="fill:#ffffff;fill-opacity:1;fill-rule:nonzero;stroke:#000000;stroke-width:0.3985;stroke-linecap:butt;stroke-linejoin:miter;stroke-miterlimit:10;stroke-dasharray:none;stroke-opacity:1"
               id="path192" /></g><g
             id="g194"><path
               d="m 75.77422,0 c 0,1.14447 -0.92777,2.07225 -2.07225,2.07225 -1.14449,0 -2.07226,-0.92778 -2.07226,-2.07225 0,-1.14447 0.92777,-2.07225 2.07226,-2.07225 1.14448,0 2.07225,0.92778 2.07225,2.07225 z"
               style="fill:#ffffff;fill-opacity:1;fill-rule:nonzero;stroke:#000000;stroke-width:0.3985;stroke-linecap:butt;stroke-linejoin:miter;stroke-miterlimit:10;stroke-dasharray:none;stroke-opacity:1"
               id="path196" /></g><g
             id="g198"><path
               d="m -3.5971,22.67752 c 0,1.14447 -0.92777,2.07225 -2.07226,2.07225 -1.14448,0 -2.07225,-0.92778 -2.07225,-2.07225 0,-1.14448 0.92777,-2.07226 2.07225,-2.07226 1.14449,0 2.07226,0.92778 2.07226,2.07226 z"
               style="fill:#ffffff;fill-opacity:1;fill-rule:nonzero;stroke:#000000;stroke-width:0.3985;stroke-linecap:butt;stroke-linejoin:miter;stroke-miterlimit:10;stroke-dasharray:none;stroke-opacity:1"
               id="path200" /></g><g
             id="g202"><path
               d="m 2.07225,28.3469 c 0,1.14448 -0.92778,2.07224 -2.07225,2.07224 -1.14447,0 -2.07225,-0.92776 -2.07225,-2.07224 0,-1.14449 0.92778,-2.07226 2.07225,-2.07226 1.14447,0 2.07225,0.92777 2.07225,2.07226 z"
               style="fill:#ffffff;fill-opacity:1;fill-rule:nonzero;stroke:#000000;stroke-width:0.3985;stroke-linecap:butt;stroke-linejoin:miter;stroke-miterlimit:10;stroke-dasharray:none;stroke-opacity:1"
               id="path204" /></g><g
             id="g206"><path
               d="m 19.08038,22.67752 c 0,1.14447 -0.92776,2.07225 -2.07225,2.07225 -1.14448,0 -2.07225,-0.92778 -2.07225,-2.07225 0,-1.14448 0.92777,-2.07226 2.07225,-2.07226 1.14449,0 2.07225,0.92778 2.07225,2.07226 z"
               style="fill:#ffffff;fill-opacity:1;fill-rule:nonzero;stroke:#000000;stroke-width:0.3985;stroke-linecap:butt;stroke-linejoin:miter;stroke-miterlimit:10;stroke-dasharray:none;stroke-opacity:1"
               id="path208" /></g><g
             id="g210"><path
               d="m 24.74977,17.00813 c 0,1.14449 -0.92778,2.07225 -2.07225,2.07225 -1.14448,0 -2.07226,-0.92776 -2.07226,-2.07225 0,-1.14448 0.92778,-2.07225 2.07226,-2.07225 1.14447,0 2.07225,0.92777 2.07225,2.07225 z"
               style="fill:#ffffff;fill-opacity:1;fill-rule:nonzero;stroke:#000000;stroke-width:0.3985;stroke-linecap:butt;stroke-linejoin:miter;stroke-miterlimit:10;stroke-dasharray:none;stroke-opacity:1"
               id="path212" /></g><g
             id="g214"><path
               d="m 41.75792,22.67752 c 0,1.14447 -0.92777,2.07225 -2.07225,2.07225 -1.14449,0 -2.07225,-0.92778 -2.07225,-2.07225 0,-1.14448 0.92776,-2.07226 2.07225,-2.07226 1.14448,0 2.07225,0.92778 2.07225,2.07226 z"
               style="fill:#ffffff;fill-opacity:1;fill-rule:nonzero;stroke:#000000;stroke-width:0.3985;stroke-linecap:butt;stroke-linejoin:miter;stroke-miterlimit:10;stroke-dasharray:none;stroke-opacity:1"
               id="path216" /></g><g
             id="g218"><path
               d="m 53.09668,22.67752 c 0,1.14447 -0.92777,2.07225 -2.07225,2.07225 -1.14449,0 -2.07225,-0.92778 -2.07225,-2.07225 0,-1.14448 0.92776,-2.07226 2.07225,-2.07226 1.14448,0 2.07225,0.92778 2.07225,2.07226 z"
               style="fill:#ffffff;fill-opacity:1;fill-rule:nonzero;stroke:#000000;stroke-width:0.3985;stroke-linecap:butt;stroke-linejoin:miter;stroke-miterlimit:10;stroke-dasharray:none;stroke-opacity:1"
               id="path220" /></g><g
             id="g222"><path
               d="m 70.10484,28.3469 c 0,1.14448 -0.92778,2.07224 -2.07224,2.07224 -1.1445,0 -2.07227,-0.92776 -2.07227,-2.07224 0,-1.14449 0.92777,-2.07226 2.07227,-2.07226 1.14446,0 2.07224,0.92777 2.07224,2.07226 z"
               style="fill:#ffffff;fill-opacity:1;fill-rule:nonzero;stroke:#000000;stroke-width:0.3985;stroke-linecap:butt;stroke-linejoin:miter;stroke-miterlimit:10;stroke-dasharray:none;stroke-opacity:1"
               id="path224" /></g><g
             id="g226"><path
               d="m 75.77422,22.67752 c 0,1.14447 -0.92777,2.07225 -2.07225,2.07225 -1.14449,0 -2.07226,-0.92778 -2.07226,-2.07225 0,-1.14448 0.92777,-2.07226 2.07226,-2.07226 1.14448,0 2.07225,0.92778 2.07225,2.07226 z"
               style="fill:#ffffff;fill-opacity:1;fill-rule:nonzero;stroke:#000000;stroke-width:0.3985;stroke-linecap:butt;stroke-linejoin:miter;stroke-miterlimit:10;stroke-dasharray:none;stroke-opacity:1"
               id="path228" /></g><g
             id="g230"><path
               d="m -3.5971,45.35506 c 0,1.14447 -0.92777,2.07224 -2.07226,2.07224 -1.14448,0 -2.07225,-0.92777 -2.07225,-2.07224 0,-1.14449 0.92777,-2.07227 2.07225,-2.07227 1.14449,0 2.07226,0.92778 2.07226,2.07227 z"
               style="fill:#ffffff;fill-opacity:1;fill-rule:nonzero;stroke:#000000;stroke-width:0.3985;stroke-linecap:butt;stroke-linejoin:miter;stroke-miterlimit:10;stroke-dasharray:none;stroke-opacity:1"
               id="path232" /></g><g
             id="g234"><path
               d="m 7.74161,45.35506 c 0,1.14447 -0.92777,2.07224 -2.07225,2.07224 -1.14449,0 -2.07226,-0.92777 -2.07226,-2.07224 0,-1.14449 0.92777,-2.07227 2.07226,-2.07227 1.14448,0 2.07225,0.92778 2.07225,2.07227 z"
               style="fill:#ffffff;fill-opacity:1;fill-rule:nonzero;stroke:#000000;stroke-width:0.3985;stroke-linecap:butt;stroke-linejoin:miter;stroke-miterlimit:10;stroke-dasharray:none;stroke-opacity:1"
               id="path236" /></g><g
             id="g238"><path
               d="m 24.74977,51.02443 c 0,1.14448 -0.92778,2.07225 -2.07225,2.07225 -1.14448,0 -2.07226,-0.92777 -2.07226,-2.07225 0,-1.14449 0.92778,-2.07225 2.07226,-2.07225 1.14447,0 2.07225,0.92776 2.07225,2.07225 z"
               style="fill:#ffffff;fill-opacity:1;fill-rule:nonzero;stroke:#000000;stroke-width:0.3985;stroke-linecap:butt;stroke-linejoin:miter;stroke-miterlimit:10;stroke-dasharray:none;stroke-opacity:1"
               id="path240" /></g><g
             id="g242"><path
               d="m 24.74977,39.68567 c 0,1.14448 -0.92778,2.07225 -2.07225,2.07225 -1.14448,0 -2.07226,-0.92777 -2.07226,-2.07225 0,-1.14449 0.92778,-2.07225 2.07226,-2.07225 1.14447,0 2.07225,0.92776 2.07225,2.07225 z"
               style="fill:#ffffff;fill-opacity:1;fill-rule:nonzero;stroke:#000000;stroke-width:0.3985;stroke-linecap:butt;stroke-linejoin:miter;stroke-miterlimit:10;stroke-dasharray:none;stroke-opacity:1"
               id="path244" /></g><g
             id="g246"><path
               d="m 41.75792,45.35506 c 0,1.14447 -0.92777,2.07224 -2.07225,2.07224 -1.14449,0 -2.07225,-0.92777 -2.07225,-2.07224 0,-1.14449 0.92776,-2.07227 2.07225,-2.07227 1.14448,0 2.07225,0.92778 2.07225,2.07227 z"
               style="fill:#ffffff;fill-opacity:1;fill-rule:nonzero;stroke:#000000;stroke-width:0.3985;stroke-linecap:butt;stroke-linejoin:miter;stroke-miterlimit:10;stroke-dasharray:none;stroke-opacity:1"
               id="path248" /></g><g
             id="g250"><path
               d="m 47.4273,39.68567 c 0,1.14448 -0.92777,2.07225 -2.07224,2.07225 -1.14449,0 -2.07227,-0.92777 -2.07227,-2.07225 0,-1.14449 0.92778,-2.07225 2.07227,-2.07225 1.14447,0 2.07224,0.92776 2.07224,2.07225 z"
               style="fill:#ffffff;fill-opacity:1;fill-rule:nonzero;stroke:#000000;stroke-width:0.3985;stroke-linecap:butt;stroke-linejoin:miter;stroke-miterlimit:10;stroke-dasharray:none;stroke-opacity:1"
               id="path252" /></g><g
             id="g254"><path
               d="m 64.43546,45.35506 c 0,1.14447 -0.92777,2.07224 -2.07226,2.07224 -1.14448,0 -2.07225,-0.92777 -2.07225,-2.07224 0,-1.14449 0.92777,-2.07227 2.07225,-2.07227 1.14449,0 2.07226,0.92778 2.07226,2.07227 z"
               style="fill:#ffffff;fill-opacity:1;fill-rule:nonzero;stroke:#000000;stroke-width:0.3985;stroke-linecap:butt;stroke-linejoin:miter;stroke-miterlimit:10;stroke-dasharray:none;stroke-opacity:1"
               id="path256" /></g><g
             id="g258"><path
               d="m 75.77422,45.35506 c 0,1.14447 -0.92777,2.07224 -2.07225,2.07224 -1.14449,0 -2.07226,-0.92777 -2.07226,-2.07224 0,-1.14449 0.92777,-2.07227 2.07226,-2.07227 1.14448,0 2.07225,0.92778 2.07225,2.07227 z"
               style="fill:#ffffff;fill-opacity:1;fill-rule:nonzero;stroke:#000000;stroke-width:0.3985;stroke-linecap:butt;stroke-linejoin:miter;stroke-miterlimit:10;stroke-dasharray:none;stroke-opacity:1"
               id="path260" /></g><g
             id="g262"><path
               d="m -3.5971,68.0326 c 0,1.14446 -0.92777,2.07224 -2.07226,2.07224 -1.14448,0 -2.07225,-0.92778 -2.07225,-2.07224 0,-1.1445 0.92777,-2.07227 2.07225,-2.07227 1.14449,0 2.07226,0.92777 2.07226,2.07227 z"
               style="fill:#ffffff;fill-opacity:1;fill-rule:nonzero;stroke:#000000;stroke-width:0.3985;stroke-linecap:butt;stroke-linejoin:miter;stroke-miterlimit:10;stroke-dasharray:none;stroke-opacity:1"
               id="path264" /></g><g
             id="g266"><path
               d="m 2.07225,62.3632 c 0,1.14449 -0.92778,2.07226 -2.07225,2.07226 -1.14447,0 -2.07225,-0.92777 -2.07225,-2.07226 0,-1.14448 0.92778,-2.07225 2.07225,-2.07225 1.14447,0 2.07225,0.92777 2.07225,2.07225 z"
               style="fill:#ffffff;fill-opacity:1;fill-rule:nonzero;stroke:#000000;stroke-width:0.3985;stroke-linecap:butt;stroke-linejoin:miter;stroke-miterlimit:10;stroke-dasharray:none;stroke-opacity:1"
               id="path268" /></g><g
             id="g270"><path
               d="m 19.08038,68.0326 c 0,1.14446 -0.92776,2.07224 -2.07225,2.07224 -1.14448,0 -2.07225,-0.92778 -2.07225,-2.07224 0,-1.1445 0.92777,-2.07227 2.07225,-2.07227 1.14449,0 2.07225,0.92777 2.07225,2.07227 z"
               style="fill:#ffffff;fill-opacity:1;fill-rule:nonzero;stroke:#000000;stroke-width:0.3985;stroke-linecap:butt;stroke-linejoin:miter;stroke-miterlimit:10;stroke-dasharray:none;stroke-opacity:1"
               id="path272" /></g><g
             id="g274"><path
               d="m 30.41914,68.0326 c 0,1.14446 -0.92776,2.07224 -2.07224,2.07224 -1.14449,0 -2.07226,-0.92778 -2.07226,-2.07224 0,-1.1445 0.92777,-2.07227 2.07226,-2.07227 1.14448,0 2.07224,0.92777 2.07224,2.07227 z"
               style="fill:#ffffff;fill-opacity:1;fill-rule:nonzero;stroke:#000000;stroke-width:0.3985;stroke-linecap:butt;stroke-linejoin:miter;stroke-miterlimit:10;stroke-dasharray:none;stroke-opacity:1"
               id="path276" /></g><g
             id="g278"><path
               d="m 47.4273,62.3632 c 0,1.14449 -0.92777,2.07226 -2.07224,2.07226 -1.14449,0 -2.07227,-0.92777 -2.07227,-2.07226 0,-1.14448 0.92778,-2.07225 2.07227,-2.07225 1.14447,0 2.07224,0.92777 2.07224,2.07225 z"
               style="fill:#ffffff;fill-opacity:1;fill-rule:nonzero;stroke:#000000;stroke-width:0.3985;stroke-linecap:butt;stroke-linejoin:miter;stroke-miterlimit:10;stroke-dasharray:none;stroke-opacity:1"
               id="path280" /></g><g
             id="g282"><path
               d="m 53.09668,68.0326 c 0,1.14446 -0.92777,2.07224 -2.07225,2.07224 -1.14449,0 -2.07225,-0.92778 -2.07225,-2.07224 0,-1.1445 0.92776,-2.07227 2.07225,-2.07227 1.14448,0 2.07225,0.92777 2.07225,2.07227 z"
               style="fill:#ffffff;fill-opacity:1;fill-rule:nonzero;stroke:#000000;stroke-width:0.3985;stroke-linecap:butt;stroke-linejoin:miter;stroke-miterlimit:10;stroke-dasharray:none;stroke-opacity:1"
               id="path284" /></g><g
             id="g286"><path
               d="m 70.10484,62.3632 c 0,1.14449 -0.92778,2.07226 -2.07224,2.07226 -1.1445,0 -2.07227,-0.92777 -2.07227,-2.07226 0,-1.14448 0.92777,-2.07225 2.07227,-2.07225 1.14446,0 2.07224,0.92777 2.07224,2.07225 z"
               style="fill:#ffffff;fill-opacity:1;fill-rule:nonzero;stroke:#000000;stroke-width:0.3985;stroke-linecap:butt;stroke-linejoin:miter;stroke-miterlimit:10;stroke-dasharray:none;stroke-opacity:1"
               id="path288" /></g><g
             id="g290"><path
               d="m 75.77422,68.0326 c 0,1.14446 -0.92777,2.07224 -2.07225,2.07224 -1.14449,0 -2.07226,-0.92778 -2.07226,-2.07224 0,-1.1445 0.92777,-2.07227 2.07226,-2.07227 1.14448,0 2.07225,0.92777 2.07225,2.07227 z"
               style="fill:#ffffff;fill-opacity:1;fill-rule:nonzero;stroke:#000000;stroke-width:0.3985;stroke-linecap:butt;stroke-linejoin:miter;stroke-miterlimit:10;stroke-dasharray:none;stroke-opacity:1"
               id="path292" /></g></g></g></g></g></svg>
