<?xml version="1.0" standalone="no"?>

<svg width="200" height="125" xmlns="http://www.w3.org/2000/svg">
  
<g transform="scale(0.6 0.6)">
    
  <rect width="200" height="125" style="fill: rgb(254, 247, 221);stroke-width:1;stroke:rgb(0,0,0)" />
         <polyline fill="rgb(74, 110, 141)" 
      points="0,0 0,20 7,27 7,0 0,0"/>
    
    <polyline fill="rgb(199, 54, 60)" 
      points="0,25 0,45 7,52 7,32 0,25"/>
    
     <polyline fill="rgb(74, 110, 141)" 
      points="0,50 0,70 7,77 7,57 0,50"/>
    
    
    <polyline fill="rgb(199, 54, 60)" 
      points="0,75 0,95 7,102 7,82 0,75"/>
    
    <polyline fill="rgb(74, 110, 141)" 
      points="0,100 0,120 7,125 7,107 0,100"/>
   
    
 <polyline fill="rgb(254, 247, 221)" style="stroke:rgb(0,0,0);stroke-width:1"
       points="200,125 100,45 0,125 200,125"    />
    
    <polyline fill="rgb(254, 247, 221)" style="stroke:rgb(0,0,0);stroke-width:1" 
      points="100,80 200,0 0,0 100,80"/>
    
    
    <polyline fill="rgb(199, 54, 60)" 
      points="5,125 12,118 32,118 25,125 5,125"/>
    
    <polyline fill="rgb(74, 110, 141)" 
      points="30,125 37,118 57,118 50,125 30,125"/>
   
    <g transform="translate(-5 0)">
        <polyline fill="rgb(199, 54, 60)" 
      points="60,125 67,118 87,118 80,125 60,125"/>
    
    <polyline fill="rgb(74, 110, 141)" 
      points="85,125 92,118 112,118 105,125 85,125"/>
    
     <polyline fill="rgb(199, 54, 60)" 
      points="110,125 117,118 137,118 130,125 110,125"/>
    
    <polyline fill="rgb(74, 110, 141)" 
      points="135,125 142,118 162,118 155,125 135,125"/>
    
     <polyline fill="rgb(199, 54, 60)" 
      points="160,125 167,118 187,118 180,125 160,125"/>
        
        <polyline fill="rgb(74, 110, 141)" 
      points="185,125 192,118 197.5,118 204.5,125 185,125"/>
    </g>
    
     <polyline fill="rgb(199, 54, 60)" 
      points="200,120 193,113 193,93 200,100 200,120"/>
    
    <polyline fill="rgb(74, 110, 141)" 
      points="200,95 193,88 193,68 200,75 200,95"/>
    
      <polyline fill="rgb(199, 54, 60)" 
      points="200,70 193,63 193,43 200,50 200,70"/>
    
     <polyline fill="rgb(74, 110, 141)" 
      points="200,45 193,38 193,18 200,25 200,45"/>
    
    <polyline fill="rgb(199, 54, 60)" 
      points="200,15 193,8 193,5.75 200,0.15 200,15"/>
    
    
    <circle cx="130" cy="40" r="22" stroke="black" stroke-width="1" fill="white" fill-opacity="0"/>
    <circle cx="130" cy="40" r="20.7" stroke="black" stroke-width="0.5" fill="white" fill-opacity="0"/>
    
     <circle cx="130" cy="40" r="13.5" stroke="black" stroke-width="0.7" fill="white" fill-opacity="0"/>
   
    <path id="MyPath" fill="none" 
      d=" M 114 38 A 16 16 0 1 1 114 41" />
    
  <text>
    <textPath font-size="5px" style="font-weight: bold;" href="#MyPath">
      EXPRESS DELIVERY&#160;&#160;&#160;&#160;&#160;POSTE OFFICE
    </textPath> 
  </text>
    
    <g transform="translate(130, 40)">
        <path d="M 0.5,0.5 C 5.5,0.5 10.5,3.5 15.5,3.5" fill="none" stroke="black" stroke-width="0.6px"/> 
  
    <path d="M 15.5,3.5 C 20.5,3.5 25.5,0.5 30.5,0.5" fill="none" stroke="black" stroke-width="0.6px"/> 
    
    <path d="M 30.5,0.5 C 35.5,0.5 40.5,3.5 45.5,3.5" fill="none" stroke="black" stroke-width="0.6px"/> 
    
    
     <path d="M 0.5,6.5 C 5.5,6.5 10.5,9.5 15.5,9.5" fill="none" stroke="black" stroke-width="0.6px"/> 
  
    <path d="M 15.5,9.5 C 20.5,9.5 25.5,6.5 30.5,6.5" fill="none" stroke="black" stroke-width="0.6px"/> 
    
    <path d="M 30.5,6.5 C 35.5,6.5 40.5,9.5 45.5,9.5" fill="none" stroke="black" stroke-width="0.6px"/> 
    
     <path d="M 0.5,12.5 C 5.5,12.5 10.5,15.5 15.5,15.5" fill="none" stroke="black" stroke-width="0.6px"/> 
  
    <path d="M 15.5,15.5 C 20.5,15.5 25.5,12.5 30.5,12.5" fill="none" stroke="black" stroke-width="0.6px"/> 
    
    <path d="M 30.5,12.5 C 35.5,12.5 40.5,15.5 45.5,15.5" fill="none" stroke="black" stroke-width="0.6px"/> 
    
    
      <path d="M 0.5,18.5 C 5.5,18.5 10.5,21.5 15.5,21.5" fill="none" stroke="black" stroke-width="0.6px"/> 
  
    <path d="M 15.5,21.5 C 20.5,21.5 25.5,18.5 30.5,18.5" fill="none" stroke="black" stroke-width="0.6px"/> 
    
    <path d="M 30.5,18.5 C 35.5,18.5 40.5,21.5 45.5,21.5" fill="none" stroke="black" stroke-width="0.6px"/> 
    </g>
   
  
    <svg width="200px" height="200px" version="1.1" xmlns="http://www.w3.org/2000/svg">
  <g transform="translate(119,30) scale(0.1 0.1)"> <g transform="translate(125 -25) rotate(-90,52.5,52.5)">
 <path d="M 28,52 C 70,80 80,70 52,28 L 52,28 -51,-69 C -105,-105 -105,-105 -69,-51 L -69,-51 28,52 L 
          28,52 52,28 " fill="black" stroke="black" stroke-width="0.8px"/> 
    
      <polyline points="-53,-53 -108,-49 -118,-57 -79,-79 -53,-53 " fill="black" stroke="black" stroke-width="0.8px"/>
      
      <polyline points="-53,-53 -49,-108 -57,-118 -79,-79 -53,-53 " fill="black" stroke="black" stroke-width="0.8px"/>
      
       <polyline points="25,25 -100,30 -110,20 -15,-15" fill="black" stroke="black" stroke-width="0.8px"/>
      
      <polyline points="25,25 30,-100 20,-110 -15,-15" fill="black" stroke="black" stroke-width="0.8px"/>
      
    <g transform="translate(-20,30)">
      <path d="M 10,0 C 15,5 5,15 0,10 L 0,10 -15,-5 L -15,-5  -5,-15 L -5,-15 10,0" fill="black" stroke="black" stroke-width="0.8px"/>  
      </g>
      
         <g transform="translate(-60,30)">
      <path d="M 10,0 C 15,5 5,15 0,10 L 0,10 -15,-5 L -15,-5  -5,-15 L -5,-15 10,0" fill="black" stroke="black" stroke-width="0.8px"/>  
      </g>
      
      
      <g transform="translate(30,-20)">
      <path d="M 10,0 C 15,5 5,15 0,10 L 0,10 -15,-5 L -15,-5  -5,-15 L -5,-15 10,0" fill="black" stroke="black" stroke-width="0.8px"/>  
      </g>
      
       
      <g transform="translate(30,-60)">
      <path d="M 10,0 C 15,5 5,15 0,10 L 0,10 -15,-5 L -15,-5  -5,-15 L -5,-15 10,0" fill="black" stroke="black" stroke-width="0.8px"/>  
      </g>
          
      
    </g>
    </g>  
</svg>
    
  
        </g> 
    
</svg>
 

